SplineFontDB: 3.2
FontName: Entity-ExtraLight
FullName: Entity ExtraLight
FamilyName: Entity
Weight: ExtraLight
Copyright: Based on Geist Copyright 2024 The Geist Project Authors https:github.comvercelgeist-font.git
Version: 0.1
ItalicAngle: 0
UnderlinePosition: -125
UnderlineWidth: 50
Ascent: 800
Descent: 200
InvalidEm: 0
sfntRevision: 0x0000199a
LayerCount: 2
Layer: 0 0 "Back" 1
Layer: 1 0 "Fore" 0
XUID: [1021 1008 -1557834819 14218005]
StyleMap: 0x0040
FSType: 0
OS2Version: 4
OS2_WeightWidthSlopeOnly: 0
OS2_UseTypoMetrics: 1
CreationTime: 1728311655
ModificationTime: 1746816759
PfmFamily: 81
TTFWeight: 200
TTFWidth: 5
LineGap: 0
VLineGap: 0
Panose: 0 0 0 0 0 0 0 0 0 0
OS2TypoAscent: 1005
OS2TypoAOffset: 0
OS2TypoDescent: -295
OS2TypoDOffset: 0
OS2TypoLinegap: 0
OS2WinAscent: 1012
OS2WinAOffset: 0
OS2WinDescent: 262
OS2WinDOffset: 0
HheadAscent: 1005
HheadAOffset: 0
HheadDescent: -295
HheadDOffset: 0
OS2SubXSize: 650
OS2SubYSize: 600
OS2SubXOff: 0
OS2SubYOff: 75
OS2SupXSize: 650
OS2SupYSize: 600
OS2SupXOff: 0
OS2SupYOff: 350
OS2StrikeYSize: 50
OS2StrikeYPos: 318
OS2CapHeight: 710
OS2XHeight: 530
OS2Vendor: 'VRCL'
OS2CodePages: 20000097.00000000
OS2UnicodeRanges: a10002ff.5001e5fb.00000000.00000000
Lookup: 1 0 0 "'aalt' Access All Alternates in Latin lookup 0" { "'aalt' Access All Alternates in Latin lookup 0 subtable"  } ['aalt' ('DFLT' <'dflt' > 'latn' <'AZE ' 'CAT ' 'CRT ' 'KAZ ' 'MAH ' 'MOL ' 'NLD ' 'ROM ' 'TAT ' 'TRK ' 'dflt' > ) ]
Lookup: 3 0 0 "'aalt' Access All Alternates in Latin lookup 1" { "'aalt' Access All Alternates in Latin lookup 1 subtable"  } ['aalt' ('DFLT' <'dflt' > 'latn' <'AZE ' 'CAT ' 'CRT ' 'KAZ ' 'MAH ' 'MOL ' 'NLD ' 'ROM ' 'TAT ' 'TRK ' 'dflt' > ) ]

StartChar: .notdef
Encoding: 65536 -1 0
Width: 603
GlyphClass: 1
Flags: MW
HStem: 0 36<95 510 95 565> 674 36<95 95 95 510>
VStem: 40 33<64 646 64 710> 532 33<64 646 646 646>
LayerCount: 2
Fore
SplineSet
40 0 m 1
 40 710 l 1
 565 710 l 1
 565 0 l 1
 40 0 l 1
95 674 m 1
 303 384 l 1
 510 674 l 1
 95 674 l 1
73 646 m 1
 73 64 l 1
 282 355 l 1
 73 646 l 1
323 355 m 1
 532 64 l 1
 532 646 l 1
 323 355 l 1
95 36 m 1
 510 36 l 1
 303 326 l 1
 95 36 l 1
EndSplineSet
EndChar

StartChar: A
Encoding: 65 65 1
Width: 631
GlyphClass: 2
Flags: MW
HStem: 0 21G<23 23 23 76 555 555 555 608> 224 48<174 457 174 474 157 457> 664 46<315 315>
VStem: 23 585<0 0>
AnchorPoint: "Anchor-3" 315 710 basechar 0
AnchorPoint: "Anchor-2" 608 0 basechar 0
AnchorPoint: "Anchor-0" 315 0 basechar 0
LayerCount: 2
Fore
SplineSet
23 0 m 1
 283 710 l 1
 347 710 l 1
 608 0 l 1
 555 0 l 1
 474 224 l 1
 157 224 l 1
 76 0 l 1
 23 0 l 1
174 272 m 1
 457 272 l 1
 315 664 l 1
 174 272 l 1
EndSplineSet
Substitution2: "Single Substitution lookup 27 subtable" ordfeminine
Substitution2: "'aalt' Access All Alternates in Latin lookup 0 subtable" ordfeminine
EndChar

StartChar: Aacute
Encoding: 193 193 2
Width: 631
GlyphClass: 2
Flags: MW
HStem: 0 21G<23 23 23 76 555 555 555 608> 224 48<174 457 174 474 157 457> 664 46<315 315> 786 120<294 418 294 418>
VStem: 23 585<0 0>
AnchorPoint: "Anchor-3" 315 710 basechar 0
AnchorPoint: "Anchor-2" 608 0 basechar 0
AnchorPoint: "Anchor-0" 315 0 basechar 0
LayerCount: 2
Fore
SplineSet
294 786 m 1
 364 906 l 1
 418 906 l 1
 334 786 l 1
 294 786 l 1
23 0 m 1
 283 710 l 1
 347 710 l 1
 608 0 l 1
 555 0 l 1
 474 224 l 1
 157 224 l 1
 76 0 l 1
 23 0 l 1
174 272 m 1
 457 272 l 1
 315 664 l 1
 174 272 l 1
EndSplineSet
EndChar

StartChar: Abreve
Encoding: 258 258 3
Width: 631
GlyphClass: 2
Flags: MW
HStem: 0 21G<23 23 23 76 555 555 555 608> 224 48<174 457 174 474 157 457> 664 46<315 315> 793 39<290 340 290 352>
VStem: 23 585<0 0>
AnchorPoint: "Anchor-3" 315 710 basechar 0
AnchorPoint: "Anchor-2" 608 0 basechar 0
AnchorPoint: "Anchor-0" 315 0 basechar 0
LayerCount: 2
Fore
SplineSet
315 793 m 0
 241 793 194 840 186 913 c 1
 223 913 l 1
 230 859 265 832 315 832 c 0
 365 832 400 859 408 913 c 1
 444 913 l 1
 436 840 389 793 315 793 c 0
23 0 m 1
 283 710 l 1
 347 710 l 1
 608 0 l 1
 555 0 l 1
 474 224 l 1
 157 224 l 1
 76 0 l 1
 23 0 l 1
174 272 m 1
 457 272 l 1
 315 664 l 1
 174 272 l 1
EndSplineSet
EndChar

StartChar: uni01CD
Encoding: 461 461 4
Width: 631
GlyphClass: 2
Flags: MW
HStem: 0 21G<23 23 23 76 555 555 555 608> 224 48<174 457 174 474 157 457> 664 46<315 315> 786 31<315 315 315 338 292 315> 786 127<204 338 204 292>
VStem: 23 585<0 0>
AnchorPoint: "Anchor-3" 315 710 basechar 0
AnchorPoint: "Anchor-2" 608 0 basechar 0
AnchorPoint: "Anchor-0" 315 0 basechar 0
LayerCount: 2
Fore
SplineSet
204 913 m 1xec
 246 913 l 1xec
 315 817 l 1xf4
 385 913 l 1
 427 913 l 1xec
 338 786 l 1
 292 786 l 1xf4
 204 913 l 1xec
23 0 m 1
 283 710 l 1
 347 710 l 1
 608 0 l 1
 555 0 l 1
 474 224 l 1
 157 224 l 1
 76 0 l 1
 23 0 l 1
174 272 m 1
 457 272 l 1
 315 664 l 1
 174 272 l 1
EndSplineSet
EndChar

StartChar: Acircumflex
Encoding: 194 194 5
Width: 631
GlyphClass: 2
Flags: MW
HStem: 0 21G<23 23 23 76 555 555 555 608> 224 48<174 457 174 474 157 457> 664 46<315 315> 786 127<204 339 204 339 293 386 293 428> 882 31<316 316>
VStem: 23 585<0 0>
AnchorPoint: "Anchor-3" 315 710 basechar 0
AnchorPoint: "Anchor-2" 608 0 basechar 0
AnchorPoint: "Anchor-0" 315 0 basechar 0
LayerCount: 2
Fore
SplineSet
204 786 m 1xf4
 293 913 l 1
 339 913 l 1xec
 428 786 l 1
 386 786 l 1xf4
 316 882 l 1xec
 246 786 l 1
 204 786 l 1xf4
23 0 m 1
 283 710 l 1
 347 710 l 1
 608 0 l 1
 555 0 l 1
 474 224 l 1
 157 224 l 1
 76 0 l 1
 23 0 l 1
174 272 m 1
 457 272 l 1
 315 664 l 1
 174 272 l 1
EndSplineSet
EndChar

StartChar: Adieresis
Encoding: 196 196 6
Width: 631
GlyphClass: 2
Flags: MW
HStem: 0 21G<23 23 23 76 555 555 555 608> 224 48<174 457 174 474 157 457> 664 46<315 315> 803 79<218 270 218 270 361 413>
VStem: 218 52<803 882 803 882> 361 52<803 882 803 882>
AnchorPoint: "Anchor-3" 315 710 basechar 0
AnchorPoint: "Anchor-2" 608 0 basechar 0
AnchorPoint: "Anchor-0" 315 0 basechar 0
LayerCount: 2
Fore
SplineSet
218 803 m 1
 218 882 l 1
 270 882 l 1
 270 803 l 1
 218 803 l 1
361 803 m 1
 361 882 l 1
 413 882 l 1
 413 803 l 1
 361 803 l 1
23 0 m 1
 283 710 l 1
 347 710 l 1
 608 0 l 1
 555 0 l 1
 474 224 l 1
 157 224 l 1
 76 0 l 1
 23 0 l 1
174 272 m 1
 457 272 l 1
 315 664 l 1
 174 272 l 1
EndSplineSet
Substitution2: "'ss08' Style Set 8 in Latin lookup 41 subtable" Adieresis.ss08
Substitution2: "'aalt' Access All Alternates in Latin lookup 0 subtable" Adieresis.ss08
EndChar

StartChar: Agrave
Encoding: 192 192 7
Width: 631
GlyphClass: 2
Flags: MW
HStem: 0 21G<23 23 23 76 555 555 555 608> 224 48<174 457 174 474 157 457> 664 46<315 315> 793 120<213 296 213 337>
VStem: 23 585<0 0>
AnchorPoint: "Anchor-3" 315 710 basechar 0
AnchorPoint: "Anchor-2" 608 0 basechar 0
AnchorPoint: "Anchor-0" 315 0 basechar 0
LayerCount: 2
Fore
SplineSet
296 793 m 1
 213 913 l 1
 267 913 l 1
 337 793 l 1
 296 793 l 1
23 0 m 1
 283 710 l 1
 347 710 l 1
 608 0 l 1
 555 0 l 1
 474 224 l 1
 157 224 l 1
 76 0 l 1
 23 0 l 1
174 272 m 1
 457 272 l 1
 315 664 l 1
 174 272 l 1
EndSplineSet
EndChar

StartChar: Amacron
Encoding: 256 256 8
Width: 631
GlyphClass: 2
Flags: MW
HStem: 0 21G<23 23 23 76 555 555 555 608> 224 48<174 457 174 474 157 457> 664 46<315 315> 818 42<188 443 188 443>
VStem: 23 585<0 0>
AnchorPoint: "Anchor-3" 315 710 basechar 0
AnchorPoint: "Anchor-2" 608 0 basechar 0
AnchorPoint: "Anchor-0" 315 0 basechar 0
LayerCount: 2
Fore
SplineSet
188 818 m 1
 188 860 l 1
 443 860 l 1
 443 818 l 1
 188 818 l 1
23 0 m 1
 283 710 l 1
 347 710 l 1
 608 0 l 1
 555 0 l 1
 474 224 l 1
 157 224 l 1
 76 0 l 1
 23 0 l 1
174 272 m 1
 457 272 l 1
 315 664 l 1
 174 272 l 1
EndSplineSet
EndChar

StartChar: Aogonek
Encoding: 260 260 9
Width: 631
GlyphClass: 2
Flags: MW
HStem: -198 40<572 592 572 592.5> 0 21G<23 23 23 76 555 555 555 568 608 608> 224 48<174 457 174 474 157 457> 664 46<315 315>
VStem: 500 46<-137.5 -118>
AnchorPoint: "Anchor-3" 315 710 basechar 0
AnchorPoint: "Anchor-2" 608 0 basechar 0
AnchorPoint: "Anchor-0" 315 0 basechar 0
LayerCount: 2
Fore
SplineSet
23 0 m 1
 283 710 l 1
 347 710 l 1
 608 0 l 1
 579 -43 l 2
 557 -74 546 -99 546 -125 c 0
 546 -150 562 -158 582 -158 c 0
 602 -158 619 -152 631 -143 c 1
 648 -177 l 1
 631 -190 607 -198 578 -198 c 0
 533 -198 500 -179 500 -135 c 0
 500 -101 525 -63 551 -25 c 2
 568 0 l 1
 555 0 l 1
 474 224 l 1
 157 224 l 1
 76 0 l 1
 23 0 l 1
174 272 m 1
 457 272 l 1
 315 664 l 1
 174 272 l 1
EndSplineSet
EndChar

StartChar: Aring
Encoding: 197 197 10
Width: 631
GlyphClass: 2
Flags: MW
HStem: 0 21G<22 22 22 76 554 554 554 608> 224 48<174 456 174 473 157 456> 664 46<315 315> 767 33<300.5 327.5 300.5 336.5> 889 34<300.5 327.5>
VStem: 235 34<831.5 858 831.5 867> 358 34<831.5 858>
AnchorPoint: "Anchor-3" 315 710 basechar 0
AnchorPoint: "Anchor-2" 608 0 basechar 0
AnchorPoint: "Anchor-0" 315 0 basechar 0
LayerCount: 2
Fore
SplineSet
314 767 m 0
 269 767 235 799 235 845 c 0
 235 889 269 923 314 923 c 0
 359 923 392 889 392 845 c 0
 392 800 359 767 314 767 c 0
314 800 m 0
 341 800 358 818 358 845 c 0
 358 871 341 889 314 889 c 0
 287 889 269 871 269 845 c 0
 269 818 287 800 314 800 c 0
22 0 m 1
 283 710 l 1
 347 710 l 1
 608 0 l 1
 554 0 l 1
 473 224 l 1
 157 224 l 1
 76 0 l 1
 22 0 l 1
174 272 m 1
 456 272 l 1
 315 664 l 1
 174 272 l 1
EndSplineSet
EndChar

StartChar: Atilde
Encoding: 195 195 11
Width: 631
GlyphClass: 2
Flags: MW
HStem: 0 21G<22 22 22 76 554 554 554 608> 224 48<174 456 174 473 157 456> 664 46<315 315> 803 35<361 381.5 361 390.5> 861 35<234 259.5>
VStem: 166 34<798 798> 412 35<905 905>
AnchorPoint: "Anchor-3" 315 710 basechar 0
AnchorPoint: "Anchor-2" 608 0 basechar 0
AnchorPoint: "Anchor-0" 315 0 basechar 0
LayerCount: 2
Fore
SplineSet
367 803 m 0
 340 803 321 814 301 834 c 0
 283 852 271 861 248 861 c 0
 220 861 202 843 200 798 c 1
 166 798 l 1
 169 861 202 896 248 896 c 0xee
 280 896 300 882 321 862 c 0
 340 844 353 838 369 838 c 0
 394 838 408 855 412 905 c 1
 447 905 l 1
 443 841 414 803 367 803 c 0
22 0 m 1
 283 710 l 1
 347 710 l 1
 608 0 l 1
 554 0 l 1
 473 224 l 1
 157 224 l 1
 76 0 l 1
 22 0 l 1
174 272 m 1
 456 272 l 1
 315 664 l 1
 174 272 l 1
EndSplineSet
EndChar

StartChar: AE
Encoding: 198 198 12
Width: 917
GlyphClass: 2
Flags: MW
HStem: 0 48<515 865 515 865> 224 48<220 465 220 465 195 465> 332 48<515 845 515 845> 662 48<515 857 515 515> 663 47<422 465 422 422>
VStem: 465 50<48 224 224 224 272 332 380 662>
AnchorPoint: "Anchor-3" 483 710 basechar 0
AnchorPoint: "Anchor-0" 483 0 basechar 0
LayerCount: 2
Fore
SplineSet
23 0 m 1xf4
 397 710 l 1
 857 710 l 1
 857 662 l 1
 515 662 l 1
 515 380 l 1
 845 380 l 1
 845 332 l 1
 515 332 l 1
 515 48 l 1
 865 48 l 1
 865 0 l 1
 465 0 l 1
 465 224 l 1
 195 224 l 1
 79 0 l 1
 23 0 l 1xf4
465 663 m 1xec
 422 663 l 1
 220 272 l 1
 465 272 l 1
 465 663 l 1xec
EndSplineSet
EndChar

StartChar: B
Encoding: 66 66 13
Width: 652
GlyphClass: 2
Flags: MW
HStem: 0 48<145 361 145 361> 332 48<145 321 321 361 145 321> 662 48<145 321 145 145>
VStem: 95 50<48 48 48 332 380 662> 512 53<478.5 566.5> 542 53<144.5 236>
AnchorPoint: "Anchor-3" 326 710 basechar 0
AnchorPoint: "Anchor-0" 326 0 basechar 0
LayerCount: 2
Fore
SplineSet
95 0 m 1xf4
 95 710 l 1
 321 710 l 2
 483 710 565 648 565 520 c 0xf8
 565 437 513 376 432 361 c 1
 533 348 595 284 595 191 c 0
 595 64 515 0 361 0 c 2
 95 0 l 1xf4
145 380 m 1
 321 380 l 2
 443 380 512 430 512 518 c 0
 512 615 449 662 321 662 c 2
 145 662 l 1
 145 380 l 1
145 48 m 1
 361 48 l 2
 480 48 542 96 542 193 c 0xf4
 542 279 473 332 361 332 c 2
 145 332 l 1
 145 48 l 1
EndSplineSet
EndChar

StartChar: C
Encoding: 67 67 14
Width: 685
GlyphClass: 2
Flags: MW
HStem: -16 49<276.5 421 276.5 434> 677 49<276.5 418>
VStem: 48 53<254 454 254 469>
AnchorPoint: "Anchor-3" 353 710 basechar 0
AnchorPoint: "Anchor-0" 354 0 basechar 0
LayerCount: 2
Fore
SplineSet
353 -16 m 0
 169 -16 48 124 48 354 c 0
 48 584 169 726 353 726 c 0
 513 726 607 630 636 481 c 1
 583 477 l 1
 561 599 483 677 353 677 c 0
 200 677 101 554 101 354 c 0
 101 154 200 33 353 33 c 0
 489 33 571 114 589 249 c 1
 642 245 l 1
 617 85 515 -16 353 -16 c 0
EndSplineSet
EndChar

StartChar: Cacute
Encoding: 262 262 15
Width: 685
GlyphClass: 2
Flags: MW
HStem: -16 49<276.5 421 276.5 434> 677 49<276.5 418> 786 120<331 455 331 455>
VStem: 48 53<254 454 254 469>
AnchorPoint: "Anchor-3" 353 710 basechar 0
AnchorPoint: "Anchor-0" 354 0 basechar 0
LayerCount: 2
Fore
SplineSet
331 786 m 1
 401 906 l 1
 455 906 l 1
 372 786 l 1
 331 786 l 1
353 -16 m 0
 169 -16 48 124 48 354 c 0
 48 584 169 726 353 726 c 0
 513 726 607 630 636 481 c 1
 583 477 l 1
 561 599 483 677 353 677 c 0
 200 677 101 554 101 354 c 0
 101 154 200 33 353 33 c 0
 489 33 571 114 589 249 c 1
 642 245 l 1
 617 85 515 -16 353 -16 c 0
EndSplineSet
EndChar

StartChar: Ccaron
Encoding: 268 268 16
Width: 685
GlyphClass: 2
Flags: MW
HStem: -16 49<276.5 421 276.5 434> 677 49<276.5 418> 786 31<353 353 353 376 330 353> 786 127<241 376 241 330>
VStem: 48 53<254 454 254 469>
AnchorPoint: "Anchor-3" 353 710 basechar 0
AnchorPoint: "Anchor-0" 354 0 basechar 0
LayerCount: 2
Fore
SplineSet
241 913 m 1xd8
 283 913 l 1xd8
 353 817 l 1xe8
 422 913 l 1
 464 913 l 1xd8
 376 786 l 1
 330 786 l 1xe8
 241 913 l 1xd8
353 -16 m 0
 169 -16 48 124 48 354 c 0
 48 584 169 726 353 726 c 0
 513 726 607 630 636 481 c 1
 583 477 l 1
 561 599 483 677 353 677 c 0
 200 677 101 554 101 354 c 0
 101 154 200 33 353 33 c 0
 489 33 571 114 589 249 c 1
 642 245 l 1
 617 85 515 -16 353 -16 c 0
EndSplineSet
EndChar

StartChar: Ccedilla
Encoding: 199 199 17
Width: 685
GlyphClass: 2
Flags: MW
HStem: -209 36<323.5 363 323.5 374.5> -75 31<348 348 348 355.5> -15 48<326 326> 677 49<276.5 418>
VStem: 48 53<254 454 254 469> 407 38<-141 -108>
AnchorPoint: "Anchor-3" 353 710 basechar 0
AnchorPoint: "Anchor-0" 354 0 basechar 0
LayerCount: 2
Fore
SplineSet
345 -209 m 0
 291 -209 255 -183 242 -143 c 1
 275 -130 l 1
 285 -157 304 -173 343 -173 c 0
 383 -173 407 -158 407 -124 c 0
 407 -92 387 -75 324 -75 c 1xdc
 305 -53 l 1
 326 -15 l 1
 157 -2 48 135 48 354 c 0
 48 584 169 726 353 726 c 0
 513 726 607 630 636 481 c 1
 583 477 l 1
 561 599 483 677 353 677 c 0
 200 677 101 554 101 354 c 0
 101 154 200 33 353 33 c 0xbc
 489 33 571 114 589 249 c 1
 642 245 l 1
 618 89 520 -11 365 -16 c 1
 348 -44 l 1
 411 -46 445 -74 445 -126 c 0
 445 -178 404 -209 345 -209 c 0
EndSplineSet
EndChar

StartChar: Ccircumflex
Encoding: 264 264 18
Width: 685
GlyphClass: 2
Flags: MW
HStem: -16 49<276.5 421 276.5 434> 677 49<276.5 418> 786 127<242 376 242 376 330 423 330 465> 882 31<353 353>
VStem: 48 53<254 454 254 469>
AnchorPoint: "Anchor-3" 353 710 basechar 0
AnchorPoint: "Anchor-0" 354 0 basechar 0
LayerCount: 2
Fore
SplineSet
242 786 m 1xe8
 330 913 l 1
 376 913 l 1xd8
 465 786 l 1
 423 786 l 1xe8
 353 882 l 1xd8
 284 786 l 1
 242 786 l 1xe8
353 -16 m 0
 169 -16 48 124 48 354 c 0
 48 584 169 726 353 726 c 0
 513 726 607 630 636 481 c 1
 583 477 l 1
 561 599 483 677 353 677 c 0
 200 677 101 554 101 354 c 0
 101 154 200 33 353 33 c 0
 489 33 571 114 589 249 c 1
 642 245 l 1
 617 85 515 -16 353 -16 c 0
EndSplineSet
EndChar

StartChar: Cdotaccent
Encoding: 266 266 19
Width: 685
GlyphClass: 2
Flags: MW
HStem: -16 49<276.5 421 276.5 434> 677 49<276.5 418> 803 79<327 379 327 379>
VStem: 48 53<254 454 254 469> 327 52<803 882 803 882>
AnchorPoint: "Anchor-3" 353 710 basechar 0
AnchorPoint: "Anchor-0" 354 0 basechar 0
LayerCount: 2
Fore
SplineSet
327 803 m 1
 327 882 l 1
 379 882 l 1
 379 803 l 1
 327 803 l 1
353 -16 m 0
 169 -16 48 124 48 354 c 0
 48 584 169 726 353 726 c 0
 513 726 607 630 636 481 c 1
 583 477 l 1
 561 599 483 677 353 677 c 0
 200 677 101 554 101 354 c 0
 101 154 200 33 353 33 c 0
 489 33 571 114 589 249 c 1
 642 245 l 1
 617 85 515 -16 353 -16 c 0
EndSplineSet
Substitution2: "'ss08' Style Set 8 in Latin lookup 41 subtable" Cdotaccent.ss08
Substitution2: "'aalt' Access All Alternates in Latin lookup 0 subtable" Cdotaccent.ss08
EndChar

StartChar: D
Encoding: 68 68 20
Width: 683
GlyphClass: 2
Flags: MW
HStem: 0 48<145 303 303 309> 662 48<145 303 145 145>
VStem: 95 50<48 48 48 662> 582 53<254.5 454>
AnchorPoint: "Anchor-3" 320 710 basechar 0
AnchorPoint: "Anchor-1" 200 355 basechar 0
AnchorPoint: "Anchor-0" 320 0 basechar 0
LayerCount: 2
Fore
SplineSet
95 0 m 1
 95 710 l 1
 303 710 l 2
 515 710 635 582 635 354 c 0
 635 127 518 0 309 0 c 2
 95 0 l 1
145 48 m 1
 303 48 l 2
 484 48 582 155 582 354 c 0
 582 554 484 662 303 662 c 2
 145 662 l 1
 145 48 l 1
EndSplineSet
EndChar

StartChar: Dcaron
Encoding: 270 270 21
Width: 683
GlyphClass: 2
Flags: MW
HStem: 0 48<145 303 303 309> 662 48<145 303 145 145> 786 31<320 320 320 343 297 320> 786 127<209 343 209 297>
VStem: 95 50<48 48 48 662> 582 53<254.5 454>
AnchorPoint: "Anchor-3" 320 710 basechar 0
AnchorPoint: "Anchor-1" 200 355 basechar 0
AnchorPoint: "Anchor-0" 320 0 basechar 0
LayerCount: 2
Fore
SplineSet
209 913 m 1xdc
 251 913 l 1xdc
 320 817 l 1xec
 390 913 l 1
 432 913 l 1xdc
 343 786 l 1
 297 786 l 1xec
 209 913 l 1xdc
95 0 m 1
 95 710 l 1
 303 710 l 2
 515 710 635 582 635 354 c 0
 635 127 518 0 309 0 c 2
 95 0 l 1
145 48 m 1
 303 48 l 2
 484 48 582 155 582 354 c 0
 582 554 484 662 303 662 c 2
 145 662 l 1
 145 48 l 1
EndSplineSet
EndChar

StartChar: Dcroat
Encoding: 272 272 22
Width: 683
GlyphClass: 2
Flags: MW
HStem: 0 48<145 303 303 309> 332 46<13 95 13 95 145 387> 662 48<145 303 145 145>
VStem: 95 50<48 48 48 332 378 662> 582 53<254.5 454>
AnchorPoint: "Anchor-3" 320 710 basechar 0
AnchorPoint: "Anchor-1" 200 355 basechar 0
AnchorPoint: "Anchor-0" 320 0 basechar 0
LayerCount: 2
Fore
SplineSet
95 0 m 1
 95 332 l 1
 13 332 l 1
 13 378 l 1
 95 378 l 1
 95 710 l 1
 303 710 l 2
 515 710 635 582 635 354 c 0
 635 127 518 0 309 0 c 2
 95 0 l 1
145 48 m 1
 303 48 l 2
 484 48 582 155 582 354 c 0
 582 554 484 662 303 662 c 2
 145 662 l 1
 145 378 l 1
 387 378 l 1
 387 332 l 1
 145 332 l 1
 145 48 l 1
EndSplineSet
EndChar

StartChar: Eth
Encoding: 208 208 23
Width: 683
GlyphClass: 2
Flags: MW
HStem: 0 48<145 303 303 309> 332 46<13 95 13 95 145 387> 662 48<145 303 145 145>
VStem: 95 50<48 48 48 332 378 662> 582 53<254.5 454>
AnchorPoint: "Anchor-3" 320 710 basechar 0
AnchorPoint: "Anchor-1" 200 355 basechar 0
AnchorPoint: "Anchor-0" 320 0 basechar 0
LayerCount: 2
Fore
SplineSet
95 0 m 1
 95 332 l 1
 13 332 l 1
 13 378 l 1
 95 378 l 1
 95 710 l 1
 303 710 l 2
 515 710 635 582 635 354 c 0
 635 127 518 0 309 0 c 2
 95 0 l 1
145 48 m 1
 303 48 l 2
 484 48 582 155 582 354 c 0
 582 554 484 662 303 662 c 2
 145 662 l 1
 145 378 l 1
 387 378 l 1
 387 332 l 1
 145 332 l 1
 145 48 l 1
EndSplineSet
EndChar

StartChar: E
Encoding: 69 69 24
Width: 583
GlyphClass: 2
Flags: MW
HStem: 0 48<145 531 145 531> 331 47<145 511 145 511> 662 48<145 523 145 145>
VStem: 95 50<48 331 378 662>
AnchorPoint: "Anchor-3" 310 710 basechar 0
AnchorPoint: "Anchor-2" 531 0 basechar 0
AnchorPoint: "Anchor-0" 310 0 basechar 0
LayerCount: 2
Fore
SplineSet
95 0 m 1
 95 710 l 1
 523 710 l 1
 523 662 l 1
 145 662 l 1
 145 378 l 1
 511 378 l 1
 511 331 l 1
 145 331 l 1
 145 48 l 1
 531 48 l 1
 531 0 l 1
 95 0 l 1
EndSplineSet
EndChar

StartChar: Eacute
Encoding: 201 201 25
Width: 583
GlyphClass: 2
Flags: MW
HStem: 0 48<145 531 145 531> 331 47<145 511 145 511> 662 48<145 523 145 145> 786 120<288 412 288 412>
VStem: 95 50<48 331 378 662>
AnchorPoint: "Anchor-3" 310 710 basechar 0
AnchorPoint: "Anchor-2" 531 0 basechar 0
AnchorPoint: "Anchor-0" 310 0 basechar 0
LayerCount: 2
Fore
SplineSet
288 786 m 1
 358 906 l 1
 412 906 l 1
 329 786 l 1
 288 786 l 1
95 0 m 1
 95 710 l 1
 523 710 l 1
 523 662 l 1
 145 662 l 1
 145 378 l 1
 511 378 l 1
 511 331 l 1
 145 331 l 1
 145 48 l 1
 531 48 l 1
 531 0 l 1
 95 0 l 1
EndSplineSet
EndChar

StartChar: Ecaron
Encoding: 282 282 26
Width: 583
GlyphClass: 2
Flags: MW
HStem: 0 48<145 531 145 531> 331 47<145 511 145 511> 662 48<145 523 145 145> 786 31<310 310 310 333 287 310> 786 127<198 333 198 287>
VStem: 95 50<48 331 378 662>
AnchorPoint: "Anchor-3" 310 710 basechar 0
AnchorPoint: "Anchor-2" 531 0 basechar 0
AnchorPoint: "Anchor-0" 310 0 basechar 0
LayerCount: 2
Fore
SplineSet
198 913 m 1xec
 240 913 l 1xec
 310 817 l 1xf4
 379 913 l 1
 421 913 l 1xec
 333 786 l 1
 287 786 l 1xf4
 198 913 l 1xec
95 0 m 1
 95 710 l 1
 523 710 l 1
 523 662 l 1
 145 662 l 1
 145 378 l 1
 511 378 l 1
 511 331 l 1
 145 331 l 1
 145 48 l 1
 531 48 l 1
 531 0 l 1
 95 0 l 1
EndSplineSet
EndChar

StartChar: Ecircumflex
Encoding: 202 202 27
Width: 583
GlyphClass: 2
Flags: MW
HStem: 0 48<145 531 145 531> 331 47<145 511 145 511> 662 48<145 523 145 145> 786 127<199 333 199 333 287 380 287 422> 882 31<310 310>
VStem: 95 50<48 331 378 662>
AnchorPoint: "Anchor-3" 310 710 basechar 0
AnchorPoint: "Anchor-2" 531 0 basechar 0
AnchorPoint: "Anchor-0" 310 0 basechar 0
LayerCount: 2
Fore
SplineSet
199 786 m 1xf4
 287 913 l 1
 333 913 l 1xec
 422 786 l 1
 380 786 l 1xf4
 310 882 l 1xec
 241 786 l 1
 199 786 l 1xf4
95 0 m 1
 95 710 l 1
 523 710 l 1
 523 662 l 1
 145 662 l 1
 145 378 l 1
 511 378 l 1
 511 331 l 1
 145 331 l 1
 145 48 l 1
 531 48 l 1
 531 0 l 1
 95 0 l 1
EndSplineSet
EndChar

StartChar: Edieresis
Encoding: 203 203 28
Width: 583
GlyphClass: 2
Flags: MW
HStem: 0 48<145 531 145 531> 331 47<145 511 145 511> 662 48<145 523 145 145> 803 79<212 264 212 264 355 407>
VStem: 95 50<48 331 378 662> 212 52<803 882 803 882> 355 52<803 882 803 882>
AnchorPoint: "Anchor-3" 310 710 basechar 0
AnchorPoint: "Anchor-2" 531 0 basechar 0
AnchorPoint: "Anchor-0" 310 0 basechar 0
LayerCount: 2
Fore
SplineSet
212 803 m 1
 212 882 l 1
 264 882 l 1
 264 803 l 1
 212 803 l 1
355 803 m 1
 355 882 l 1
 407 882 l 1
 407 803 l 1
 355 803 l 1
95 0 m 1
 95 710 l 1
 523 710 l 1
 523 662 l 1
 145 662 l 1
 145 378 l 1
 511 378 l 1
 511 331 l 1
 145 331 l 1
 145 48 l 1
 531 48 l 1
 531 0 l 1
 95 0 l 1
EndSplineSet
Substitution2: "'ss08' Style Set 8 in Latin lookup 41 subtable" Edieresis.ss08
Substitution2: "'aalt' Access All Alternates in Latin lookup 0 subtable" Edieresis.ss08
EndChar

StartChar: Edotaccent
Encoding: 278 278 29
Width: 583
GlyphClass: 2
Flags: MW
HStem: 0 48<145 531 145 531> 331 47<145 511 145 511> 662 48<145 523 145 145> 803 79<284 336 284 336>
VStem: 95 50<48 331 378 662> 284 52<803 882 803 882>
AnchorPoint: "Anchor-3" 310 710 basechar 0
AnchorPoint: "Anchor-2" 531 0 basechar 0
AnchorPoint: "Anchor-0" 310 0 basechar 0
LayerCount: 2
Fore
SplineSet
284 803 m 1
 284 882 l 1
 336 882 l 1
 336 803 l 1
 284 803 l 1
95 0 m 1
 95 710 l 1
 523 710 l 1
 523 662 l 1
 145 662 l 1
 145 378 l 1
 511 378 l 1
 511 331 l 1
 145 331 l 1
 145 48 l 1
 531 48 l 1
 531 0 l 1
 95 0 l 1
EndSplineSet
Substitution2: "'ss08' Style Set 8 in Latin lookup 41 subtable" Edotaccent.ss08
Substitution2: "'aalt' Access All Alternates in Latin lookup 0 subtable" Edotaccent.ss08
EndChar

StartChar: Egrave
Encoding: 200 200 30
Width: 583
GlyphClass: 2
Flags: MW
HStem: 0 48<145 531 145 531> 331 47<145 511 145 511> 662 48<145 523 145 145> 793 120<207 291 207 331>
VStem: 95 50<48 331 378 662>
AnchorPoint: "Anchor-3" 310 710 basechar 0
AnchorPoint: "Anchor-2" 531 0 basechar 0
AnchorPoint: "Anchor-0" 310 0 basechar 0
LayerCount: 2
Fore
SplineSet
291 793 m 1
 207 913 l 1
 261 913 l 1
 331 793 l 1
 291 793 l 1
95 0 m 1
 95 710 l 1
 523 710 l 1
 523 662 l 1
 145 662 l 1
 145 378 l 1
 511 378 l 1
 511 331 l 1
 145 331 l 1
 145 48 l 1
 531 48 l 1
 531 0 l 1
 95 0 l 1
EndSplineSet
EndChar

StartChar: Emacron
Encoding: 274 274 31
Width: 583
GlyphClass: 2
Flags: MW
HStem: 0 48<145 531 145 531> 331 47<145 511 145 511> 662 48<145 523 145 145> 818 42<182 437 182 437>
VStem: 95 50<48 331 378 662>
AnchorPoint: "Anchor-3" 310 710 basechar 0
AnchorPoint: "Anchor-2" 531 0 basechar 0
AnchorPoint: "Anchor-0" 310 0 basechar 0
LayerCount: 2
Fore
SplineSet
182 818 m 1
 182 860 l 1
 437 860 l 1
 437 818 l 1
 182 818 l 1
95 0 m 1
 95 710 l 1
 523 710 l 1
 523 662 l 1
 145 662 l 1
 145 378 l 1
 511 378 l 1
 511 331 l 1
 145 331 l 1
 145 48 l 1
 531 48 l 1
 531 0 l 1
 95 0 l 1
EndSplineSet
EndChar

StartChar: Eogonek
Encoding: 280 280 32
Width: 583
GlyphClass: 2
Flags: MW
HStem: -198 40<495 514.5> 0 48<145 491 145 531> 331 47<145 511 145 511> 662 48<145 523 145 145>
VStem: 95 50<48 331 378 662> 423 46<-137.5 -118> 491 40<0 48>
AnchorPoint: "Anchor-3" 310 710 basechar 0
AnchorPoint: "Anchor-2" 531 0 basechar 0
AnchorPoint: "Anchor-0" 310 0 basechar 0
LayerCount: 2
Fore
SplineSet
95 0 m 1
 95 710 l 1
 523 710 l 1
 523 662 l 1
 145 662 l 1
 145 378 l 1
 511 378 l 1
 511 331 l 1
 145 331 l 1
 145 48 l 1
 531 48 l 1
 531 0 l 1xfa
 502 -43 l 2
 480 -74 469 -99 469 -125 c 0
 469 -150 485 -158 505 -158 c 0
 525 -158 541 -152 554 -143 c 1
 571 -177 l 1
 554 -190 529 -198 500 -198 c 0
 456 -198 423 -179 423 -135 c 0xfc
 423 -101 447 -63 474 -25 c 2
 491 0 l 1
 95 0 l 1
EndSplineSet
EndChar

StartChar: uni1EBC
Encoding: 7868 7868 33
Width: 583
GlyphClass: 2
Flags: MW
HStem: 0 48<145 531 145 531> 331 47<145 511 145 511> 662 48<145 523 145 145> 803 35<359 380 359 389.5> 861 35<233 258>
VStem: 95 50<48 331 378 662> 164 35<798 798> 411 34<905 905>
AnchorPoint: "Anchor-3" 310 710 basechar 0
AnchorPoint: "Anchor-2" 531 0 basechar 0
AnchorPoint: "Anchor-0" 310 0 basechar 0
LayerCount: 2
Fore
SplineSet
366 803 m 0
 339 803 320 814 300 834 c 0
 282 852 269 861 247 861 c 0
 219 861 201 843 199 798 c 1
 164 798 l 1
 168 861 201 896 247 896 c 0xea
 279 896 299 882 320 862 c 0
 339 844 351 838 367 838 c 0
 393 838 407 855 411 905 c 1
 445 905 l 1
 441 841 413 803 366 803 c 0
95 0 m 1xec
 95 710 l 1
 523 710 l 1
 523 662 l 1
 145 662 l 1
 145 378 l 1
 511 378 l 1
 511 331 l 1
 145 331 l 1
 145 48 l 1
 531 48 l 1
 531 0 l 1
 95 0 l 1xec
EndSplineSet
EndChar

StartChar: uni018F
Encoding: 399 399 34
Width: 705
GlyphClass: 1
Flags: MW
HStem: -15 49<280.5 420 280.5 440> 325 48<102 604 102 102> 677 49<298.5 421.5>
VStem: 48 54<325 373 325 373> 604 53<325 325> 605 52<373 373>
LayerCount: 2
Fore
SplineSet
657 356 m 0xf4
 657 126 530 -15 350 -15 c 0
 180 -15 48 120 48 351 c 2
 48 373 l 1
 605 373 l 1
 600 562 493 677 350 677 c 0
 247 677 162 612 125 511 c 1
 72 516 l 1
 110 642 217 726 350 726 c 0
 533 726 657 582 657 356 c 0xf4
350 34 m 0
 490 34 598 141 604 325 c 1xf8
 102 325 l 1
 113 142 211 34 350 34 c 0
EndSplineSet
EndChar

StartChar: F
Encoding: 70 70 35
Width: 570
GlyphClass: 1
Flags: MW
HStem: 0 21G<95 95 95 145> 328 47<145 505 145 505> 662 48<145 523 145 145>
VStem: 95 50<0 328 375 662>
LayerCount: 2
Fore
SplineSet
95 0 m 1
 95 710 l 1
 523 710 l 1
 523 662 l 1
 145 662 l 1
 145 375 l 1
 505 375 l 1
 505 328 l 1
 145 328 l 1
 145 0 l 1
 95 0 l 1
EndSplineSet
EndChar

StartChar: G
Encoding: 71 71 36
Width: 683
GlyphClass: 2
Flags: MW
HStem: -16 49<272 413.5> 0 21G<590 630 590 590> 294 46<358 582 358 630> 677 49<271.5 417.5>
VStem: 48 53<257.5 449.5 257.5 466> 582 48<294 294> 588 42
AnchorPoint: "Anchor-3" 356 710 basechar 0
AnchorPoint: "Anchor-0" 358 0 basechar 0
LayerCount: 2
Fore
SplineSet
351 -16 m 0xba
 164 -16 48 131 48 354 c 0
 48 578 161 726 356 726 c 0
 505 726 599 635 628 485 c 1
 576 480 l 1
 551 607 479 677 356 677 c 0
 187 677 101 545 101 354 c 0
 101 161 192 33 352 33 c 0
 490 33 573 133 582 294 c 1xbc
 358 294 l 1
 358 340 l 1
 630 340 l 1
 630 0 l 1
 590 0 l 1x7a
 586 156 l 1
 558 59 476 -16 351 -16 c 0xba
EndSplineSet
Substitution2: "'ss06' Style Set 6 in Latin lookup 39 subtable" G.ss06
Substitution2: "'aalt' Access All Alternates in Latin lookup 0 subtable" G.ss06
EndChar

StartChar: Gbreve
Encoding: 286 286 37
Width: 683
GlyphClass: 2
Flags: MW
HStem: -16 49<272 413.5> 0 21G<590 630 590 590> 294 46<358 582 358 630> 677 49<271.5 417.5> 793 39<331 381 331 393>
VStem: 48 53<257.5 449.5 257.5 466> 582 48<294 294> 588 42
AnchorPoint: "Anchor-3" 356 710 basechar 0
AnchorPoint: "Anchor-0" 358 0 basechar 0
LayerCount: 2
Fore
SplineSet
356 793 m 0xbd
 282 793 235 840 227 913 c 1
 263 913 l 1
 271 859 306 832 356 832 c 0
 406 832 441 859 448 913 c 1
 485 913 l 1
 477 840 430 793 356 793 c 0xbd
351 -16 m 0
 164 -16 48 131 48 354 c 0
 48 578 161 726 356 726 c 0
 505 726 599 635 628 485 c 1
 576 480 l 1
 551 607 479 677 356 677 c 0
 187 677 101 545 101 354 c 0
 101 161 192 33 352 33 c 0
 490 33 573 133 582 294 c 1xbe
 358 294 l 1
 358 340 l 1
 630 340 l 1
 630 0 l 1
 590 0 l 1x7d
 586 156 l 1
 558 59 476 -16 351 -16 c 0
EndSplineSet
Substitution2: "'ss06' Style Set 6 in Latin lookup 39 subtable" Gbreve.ss06
Substitution2: "'aalt' Access All Alternates in Latin lookup 0 subtable" Gbreve.ss06
EndChar

StartChar: Gcaron
Encoding: 486 486 38
Width: 683
GlyphClass: 2
Flags: MW
HStem: -16 49<272 413.5> 0 21G<590 630 590 590> 294 46<358 582 358 630> 677 49<271.5 417.5> 786 31<356 356 356 379 333 356> 786 127<244 379 244 333>
VStem: 48 53<257.5 449.5 257.5 466> 582 48<294 294> 588 42
AnchorPoint: "Anchor-3" 356 710 basechar 0
AnchorPoint: "Anchor-0" 358 0 basechar 0
LayerCount: 2
Fore
SplineSet
244 913 m 1xb680
 286 913 l 1xb680
 356 817 l 1xba80
 426 913 l 1
 468 913 l 1xb7
 379 786 l 1
 333 786 l 1xbb
 244 913 l 1xb680
351 -16 m 0
 164 -16 48 131 48 354 c 0
 48 578 161 726 356 726 c 0
 505 726 599 635 628 485 c 1
 576 480 l 1
 551 607 479 677 356 677 c 0
 187 677 101 545 101 354 c 0
 101 161 192 33 352 33 c 0
 490 33 573 133 582 294 c 1xb3
 358 294 l 1
 358 340 l 1
 630 340 l 1
 630 0 l 1
 590 0 l 1x7280
 586 156 l 1
 558 59 476 -16 351 -16 c 0
EndSplineSet
EndChar

StartChar: Gcircumflex
Encoding: 284 284 39
Width: 683
GlyphClass: 2
Flags: MW
HStem: -16 49<272 413.5> 0 21G<590 630 590 590> 294 46<358 582 358 630> 677 49<271.5 417.5> 786 127<245 380 245 380 334 426 334 468> 882 31<357 357>
VStem: 48 53<257.5 449.5 257.5 466> 582 48<294 294> 588 42
AnchorPoint: "Anchor-3" 356 710 basechar 0
AnchorPoint: "Anchor-0" 358 0 basechar 0
LayerCount: 2
Fore
SplineSet
245 786 m 1xbb
 334 913 l 1
 380 913 l 1xb680
 468 786 l 1
 426 786 l 1xbb
 357 882 l 1xb7
 287 786 l 1
 245 786 l 1xbb
351 -16 m 0
 164 -16 48 131 48 354 c 0
 48 578 161 726 356 726 c 0
 505 726 599 635 628 485 c 1
 576 480 l 1
 551 607 479 677 356 677 c 0
 187 677 101 545 101 354 c 0
 101 161 192 33 352 33 c 0
 490 33 573 133 582 294 c 1xb3
 358 294 l 1
 358 340 l 1
 630 340 l 1
 630 0 l 1
 590 0 l 1x7280
 586 156 l 1
 558 59 476 -16 351 -16 c 0
EndSplineSet
Substitution2: "'ss06' Style Set 6 in Latin lookup 39 subtable" Gcircumflex.ss06
Substitution2: "'aalt' Access All Alternates in Latin lookup 0 subtable" Gcircumflex.ss06
EndChar

StartChar: uni0122
Encoding: 290 290 40
Width: 683
GlyphClass: 2
Flags: MW
HStem: -110 62<325 353 325 391> -16 49<272 413.5> 0 21G<590 630 590 590> 294 46<358 582 358 630> 677 49<271.5 417.5>
VStem: 48 53<257.5 449.5 257.5 466> 325 66<-104 -48 -104 -48 -104 -48> 582 48<294 294> 588 42
AnchorPoint: "Anchor-3" 356 710 basechar 0
AnchorPoint: "Anchor-0" 358 -193 basechar 0
LayerCount: 2
Fore
SplineSet
351 -16 m 0xde80
 164 -16 48 131 48 354 c 0
 48 578 161 726 356 726 c 0
 505 726 599 635 628 485 c 1
 576 480 l 1
 551 607 479 677 356 677 c 0
 187 677 101 545 101 354 c 0
 101 161 192 33 352 33 c 0
 490 33 573 133 582 294 c 1xdf
 358 294 l 1
 358 340 l 1
 630 340 l 1
 630 0 l 1
 590 0 l 1xbe80
 586 156 l 1
 558 59 476 -16 351 -16 c 0xde80
310 -193 m 1
 353 -110 l 1
 325 -110 l 1
 325 -48 l 1
 391 -48 l 1
 391 -104 l 1
 344 -193 l 1
 310 -193 l 1
EndSplineSet
Substitution2: "'ss06' Style Set 6 in Latin lookup 39 subtable" uni0122.ss06
Substitution2: "'aalt' Access All Alternates in Latin lookup 0 subtable" uni0122.ss06
EndChar

StartChar: Gdotaccent
Encoding: 288 288 41
Width: 683
GlyphClass: 2
Flags: MW
HStem: -16 49<272 413.5> 0 21G<590 630 590 590> 294 46<358 582 358 630> 677 49<271.5 417.5> 803 79<330 382 330 382>
VStem: 48 53<257.5 449.5 257.5 466> 330 52<803 882 803 882> 582 48<294 294> 588 42
AnchorPoint: "Anchor-3" 356 710 basechar 0
AnchorPoint: "Anchor-0" 358 0 basechar 0
LayerCount: 2
Fore
SplineSet
330 803 m 1xbe80
 330 882 l 1
 382 882 l 1
 382 803 l 1
 330 803 l 1xbe80
351 -16 m 0
 164 -16 48 131 48 354 c 0
 48 578 161 726 356 726 c 0
 505 726 599 635 628 485 c 1
 576 480 l 1
 551 607 479 677 356 677 c 0
 187 677 101 545 101 354 c 0
 101 161 192 33 352 33 c 0
 490 33 573 133 582 294 c 1xbf
 358 294 l 1
 358 340 l 1
 630 340 l 1
 630 0 l 1
 590 0 l 1x7e80
 586 156 l 1
 558 59 476 -16 351 -16 c 0
EndSplineSet
Substitution2: "'ss08' Style Set 8 in Latin lookup 41 subtable" Gdotaccent.ss08
Substitution2: "'ss06' Style Set 6 in Latin lookup 39 subtable" Gdotaccent.ss06
AlternateSubs2: "'aalt' Access All Alternates in Latin lookup 1 subtable" Gdotaccent.ss06 Gdotaccent.ss08
EndChar

StartChar: uni1E20
Encoding: 7712 7712 42
Width: 683
GlyphClass: 2
Flags: MW
HStem: -16 49<272 413.5> 0 21G<590 630 590 590> 294 46<358 582 358 630> 677 49<271.5 417.5> 818 42<229 483 229 483>
VStem: 48 53<257.5 449.5 257.5 466> 582 48<294 294> 588 42
AnchorPoint: "Anchor-3" 356 710 basechar 0
AnchorPoint: "Anchor-0" 358 0 basechar 0
LayerCount: 2
Fore
SplineSet
229 818 m 1xbd
 229 860 l 1
 483 860 l 1
 483 818 l 1
 229 818 l 1xbd
351 -16 m 0
 164 -16 48 131 48 354 c 0
 48 578 161 726 356 726 c 0
 505 726 599 635 628 485 c 1
 576 480 l 1
 551 607 479 677 356 677 c 0
 187 677 101 545 101 354 c 0
 101 161 192 33 352 33 c 0
 490 33 573 133 582 294 c 1xbe
 358 294 l 1
 358 340 l 1
 630 340 l 1
 630 0 l 1
 590 0 l 1x7d
 586 156 l 1
 558 59 476 -16 351 -16 c 0
EndSplineSet
Substitution2: "'ss06' Style Set 6 in Latin lookup 39 subtable" uni1E20.ss06
Substitution2: "'aalt' Access All Alternates in Latin lookup 0 subtable" uni1E20.ss06
EndChar

StartChar: uni01E4
Encoding: 484 484 43
Width: 724
GlyphClass: 2
Flags: MW
HStem: -16 49<269 400.5 269 414.5> 163 41<359 556 359 570 359 607 619 681> 294 46<358 582 358 630> 677 49<275 419>
VStem: 48 53<257.5 453.5 257.5 468> 582 48<290 294>
AnchorPoint: "Anchor-3" 357 710 basechar 0
AnchorPoint: "Anchor-0" 356 0 basechar 0
LayerCount: 2
Fore
SplineSet
350 -16 m 0
 161 -16 48 131 48 354 c 0
 48 582 165 726 358 726 c 0
 503 726 599 637 628 485 c 1
 576 480 l 1
 553 603 480 677 358 677 c 0
 192 677 101 553 101 354 c 0
 101 161 188 33 350 33 c 0
 451 33 521 83 556 163 c 1
 359 163 l 1
 359 204 l 1
 570 204 l 1
 578 231 582 261 582 294 c 1
 358 294 l 1
 358 340 l 1
 630 340 l 1
 630 309 l 2
 630 271 626 236 619 204 c 1
 681 204 l 1
 681 163 l 1
 607 163 l 1
 568 51 479 -16 350 -16 c 0
EndSplineSet
EndChar

StartChar: H
Encoding: 72 72 44
Width: 688
GlyphClass: 2
Flags: MW
HStem: 0 21G<95 95 95 145 544 544 544 594> 338 48<145 544 145 544> 690 20G<95 145 145 145 544 594 594 594>
VStem: 95 50<0 338 386 710> 544 50<0 338 338 338 386 710 0 710>
AnchorPoint: "Anchor-3" 344 710 basechar 0
AnchorPoint: "Anchor-1" 344 563 basechar 0
AnchorPoint: "Anchor-0" 344 0 basechar 0
LayerCount: 2
Fore
SplineSet
95 0 m 1
 95 710 l 1
 145 710 l 1
 145 386 l 1
 544 386 l 1
 544 710 l 1
 594 710 l 1
 594 0 l 1
 544 0 l 1
 544 338 l 1
 145 338 l 1
 145 0 l 1
 95 0 l 1
EndSplineSet
EndChar

StartChar: Hbar
Encoding: 294 294 45
Width: 688
GlyphClass: 2
Flags: MW
HStem: 0 21G<95 95 95 145 544 544 544 594> 338 48<145 544 145 544> 540 45<18 95 18 95 145 544 594 671> 540 170<18 145 18 145 95 145 95 544>
VStem: 95 50<0 338 386 540 585 710> 544 50<0 338 338 338 386 540 0 540 585 710>
AnchorPoint: "Anchor-3" 344 710 basechar 0
AnchorPoint: "Anchor-1" 344 563 basechar 0
AnchorPoint: "Anchor-0" 344 0 basechar 0
LayerCount: 2
Fore
SplineSet
95 0 m 1xec
 95 540 l 1
 18 540 l 1
 18 585 l 1
 95 585 l 1xec
 95 710 l 1
 145 710 l 1xdc
 145 585 l 1
 544 585 l 1xec
 544 710 l 1
 594 710 l 1xdc
 594 585 l 1
 671 585 l 1
 671 540 l 1
 594 540 l 1
 594 0 l 1
 544 0 l 1
 544 338 l 1
 145 338 l 1
 145 0 l 1
 95 0 l 1xec
145 386 m 1
 544 386 l 1
 544 540 l 1
 145 540 l 1
 145 386 l 1
EndSplineSet
EndChar

StartChar: Hcircumflex
Encoding: 292 292 46
Width: 688
GlyphClass: 2
Flags: MW
HStem: 0 21G<95 95 95 145 544 544 544 594> 338 48<145 544 145 544> 690 20G<95 145 145 145 544 594 594 594> 786 127<233 368 233 368 322 415 322 457> 882 31<345 345>
VStem: 95 50<0 338 386 710> 544 50<0 338 338 338 386 710 0 710>
AnchorPoint: "Anchor-3" 344 710 basechar 0
AnchorPoint: "Anchor-1" 344 563 basechar 0
AnchorPoint: "Anchor-0" 344 0 basechar 0
LayerCount: 2
Fore
SplineSet
233 786 m 1xf6
 322 913 l 1
 368 913 l 1xee
 457 786 l 1
 415 786 l 1xf6
 345 882 l 1xee
 275 786 l 1
 233 786 l 1xf6
95 0 m 1
 95 710 l 1
 145 710 l 1
 145 386 l 1
 544 386 l 1
 544 710 l 1
 594 710 l 1
 594 0 l 1
 544 0 l 1
 544 338 l 1
 145 338 l 1
 145 0 l 1
 95 0 l 1
EndSplineSet
EndChar

StartChar: I
Encoding: 73 73 47
Width: 239
GlyphClass: 2
Flags: MW
HStem: 0 21G<95 95 95 145> 690 20G<95 145 145 145>
VStem: 95 50<0 710 0 710>
AnchorPoint: "Anchor-3" 120 710 basechar 0
AnchorPoint: "Anchor-2" 145 0 basechar 0
AnchorPoint: "Anchor-0" 120 0 basechar 0
LayerCount: 2
Fore
SplineSet
95 0 m 1
 95 710 l 1
 145 710 l 1
 145 0 l 1
 95 0 l 1
EndSplineSet
Substitution2: "'ss05' Style Set 5 in Latin lookup 38 subtable" I.ss05
Substitution2: "'aalt' Access All Alternates in Latin lookup 0 subtable" I.ss05
EndChar

StartChar: IJ
Encoding: 306 306 48
Width: 792
GlyphClass: 2
Flags: MW
HStem: -16 49<447.5 547.5 447.5 561.5> 0 21G<95 95 95 145> 690 20G<95 145 145 145 662 712 712 712>
VStem: 95 50<0 710 0 710> 282 52<233 237> 662 50<248 710>
AnchorPoint: "Anchor-3" 687 710 basechar 0
AnchorPoint: "Anchor-2" 145 0 basechar 0
AnchorPoint: "Anchor-0" 120 0 basechar 0
LayerCount: 2
Fore
SplineSet
95 0 m 1x7c
 95 710 l 1
 145 710 l 1
 145 0 l 1
 95 0 l 1x7c
496 -16 m 0
 371 -16 284 79 282 233 c 1
 334 237 l 1
 336 104 399 33 496 33 c 0
 599 33 662 106 662 248 c 2
 662 710 l 1
 712 710 l 1
 712 248 l 2xbc
 712 79 627 -16 496 -16 c 0
EndSplineSet
EndChar

StartChar: Iacute
Encoding: 205 205 49
Width: 239
GlyphClass: 2
Flags: MW
HStem: 0 21G<95 95 95 145> 690 20G<95 145 145 145> 786 120<98 222 98 222>
VStem: 95 50<0 710 0 710>
AnchorPoint: "Anchor-3" 120 710 basechar 0
AnchorPoint: "Anchor-2" 145 0 basechar 0
AnchorPoint: "Anchor-0" 120 0 basechar 0
LayerCount: 2
Fore
SplineSet
98 786 m 1
 168 906 l 1
 222 906 l 1
 139 786 l 1
 98 786 l 1
95 0 m 1
 95 710 l 1
 145 710 l 1
 145 0 l 1
 95 0 l 1
EndSplineSet
Substitution2: "'ss05' Style Set 5 in Latin lookup 38 subtable" Iacute.ss05
Substitution2: "'aalt' Access All Alternates in Latin lookup 0 subtable" Iacute.ss05
EndChar

StartChar: Icircumflex
Encoding: 206 206 50
Width: 239
GlyphClass: 2
Flags: MW
HStem: 0 21G<95 95 95 145> 690 20G<95 145 145 145> 786 127<9 143 9 143 97 190 97 232> 882 31<120 120>
VStem: 95 50<0 710 0 710>
AnchorPoint: "Anchor-3" 120 710 basechar 0
AnchorPoint: "Anchor-2" 145 0 basechar 0
AnchorPoint: "Anchor-0" 120 0 basechar 0
LayerCount: 2
Fore
SplineSet
9 786 m 1xe8
 97 913 l 1
 143 913 l 1xd8
 232 786 l 1
 190 786 l 1xe8
 120 882 l 1xd8
 51 786 l 1
 9 786 l 1xe8
95 0 m 1
 95 710 l 1
 145 710 l 1
 145 0 l 1
 95 0 l 1
EndSplineSet
Substitution2: "'ss05' Style Set 5 in Latin lookup 38 subtable" Icircumflex.ss05
Substitution2: "'aalt' Access All Alternates in Latin lookup 0 subtable" Icircumflex.ss05
EndChar

StartChar: Idieresis
Encoding: 207 207 51
Width: 239
GlyphClass: 2
Flags: MW
HStem: 0 21G<95 95 95 145> 690 20G<95 145 145 145> 803 79<22 74 22 74 165 217>
VStem: 22 52<803 882 803 882> 95 50<0 710 0 710> 165 52<803 882 803 882>
AnchorPoint: "Anchor-3" 120 710 basechar 0
AnchorPoint: "Anchor-2" 145 0 basechar 0
AnchorPoint: "Anchor-0" 120 0 basechar 0
LayerCount: 2
Fore
SplineSet
22 803 m 1
 22 882 l 1
 74 882 l 1
 74 803 l 1
 22 803 l 1
165 803 m 1
 165 882 l 1
 217 882 l 1
 217 803 l 1
 165 803 l 1
95 0 m 1xe8
 95 710 l 1
 145 710 l 1
 145 0 l 1
 95 0 l 1xe8
EndSplineSet
Substitution2: "'ss08' Style Set 8 in Latin lookup 41 subtable" Idieresis.ss08
Substitution2: "'ss05' Style Set 5 in Latin lookup 38 subtable" Idieresis.ss05
AlternateSubs2: "'aalt' Access All Alternates in Latin lookup 1 subtable" Idieresis.ss05 Idieresis.ss08
EndChar

StartChar: Idotaccent
Encoding: 304 304 52
Width: 239
GlyphClass: 2
Flags: MW
HStem: 0 21G<95 95 95 145> 690 20G<95 145 145 145> 803 79<94 146 94 146>
VStem: 94 52<803 882 803 882> 95 50<0 710 0 710>
AnchorPoint: "Anchor-3" 120 710 basechar 0
AnchorPoint: "Anchor-2" 145 0 basechar 0
AnchorPoint: "Anchor-0" 120 0 basechar 0
LayerCount: 2
Fore
SplineSet
94 803 m 1xf0
 94 882 l 1
 146 882 l 1
 146 803 l 1
 94 803 l 1xf0
95 0 m 1xe8
 95 710 l 1
 145 710 l 1
 145 0 l 1
 95 0 l 1xe8
EndSplineSet
Substitution2: "'ss08' Style Set 8 in Latin lookup 41 subtable" Idotaccent.ss08
Substitution2: "'ss05' Style Set 5 in Latin lookup 38 subtable" Idotaccent.ss05
AlternateSubs2: "'aalt' Access All Alternates in Latin lookup 1 subtable" Idotaccent.ss05 Idotaccent.ss08
EndChar

StartChar: Igrave
Encoding: 204 204 53
Width: 239
GlyphClass: 2
Flags: MW
HStem: 0 21G<95 95 95 145> 690 20G<95 145 145 145> 793 120<17 101 17 141>
VStem: 95 50<0 710 0 710>
AnchorPoint: "Anchor-3" 120 710 basechar 0
AnchorPoint: "Anchor-2" 145 0 basechar 0
AnchorPoint: "Anchor-0" 120 0 basechar 0
LayerCount: 2
Fore
SplineSet
101 793 m 1
 17 913 l 1
 71 913 l 1
 141 793 l 1
 101 793 l 1
95 0 m 1
 95 710 l 1
 145 710 l 1
 145 0 l 1
 95 0 l 1
EndSplineSet
Substitution2: "'ss05' Style Set 5 in Latin lookup 38 subtable" Igrave.ss05
Substitution2: "'aalt' Access All Alternates in Latin lookup 0 subtable" Igrave.ss05
EndChar

StartChar: Imacron
Encoding: 298 298 54
Width: 239
GlyphClass: 2
Flags: MW
HStem: 0 21G<95 95 95 145> 690 20G<95 145 145 145> 818 42<-8 247 -8 247>
VStem: 95 50<0 710 0 710>
AnchorPoint: "Anchor-3" 120 710 basechar 0
AnchorPoint: "Anchor-2" 145 0 basechar 0
AnchorPoint: "Anchor-0" 120 0 basechar 0
LayerCount: 2
Fore
SplineSet
-8 818 m 1
 -8 860 l 1
 247 860 l 1
 247 818 l 1
 -8 818 l 1
95 0 m 1
 95 710 l 1
 145 710 l 1
 145 0 l 1
 95 0 l 1
EndSplineSet
Substitution2: "'ss05' Style Set 5 in Latin lookup 38 subtable" Imacron.ss05
Substitution2: "'aalt' Access All Alternates in Latin lookup 0 subtable" Imacron.ss05
EndChar

StartChar: Iogonek
Encoding: 302 302 55
Width: 239
GlyphClass: 2
Flags: MW
HStem: -198 40<109 128.5> 0 21G<95 95 95 105 145 145> 690 20G<95 145 145 145>
VStem: 37 46<-137.5 -118> 95 50<0 710 0 710>
AnchorPoint: "Anchor-3" 120 710 basechar 0
AnchorPoint: "Anchor-2" 145 0 basechar 0
AnchorPoint: "Anchor-0" 120 0 basechar 0
LayerCount: 2
Fore
SplineSet
95 0 m 1
 95 710 l 1
 145 710 l 1
 145 0 l 1xe8
 116 -43 l 2
 94 -74 83 -99 83 -125 c 0
 83 -150 99 -158 119 -158 c 0
 139 -158 155 -152 168 -143 c 1
 185 -177 l 1
 168 -190 143 -198 114 -198 c 0
 70 -198 37 -179 37 -135 c 0xf0
 37 -101 61 -63 88 -25 c 2
 105 0 l 1
 95 0 l 1
EndSplineSet
Substitution2: "'ss05' Style Set 5 in Latin lookup 38 subtable" Iogonek.ss05
Substitution2: "'aalt' Access All Alternates in Latin lookup 0 subtable" Iogonek.ss05
EndChar

StartChar: Itilde
Encoding: 296 296 56
Width: 239
GlyphClass: 2
Flags: MW
HStem: 0 21G<95 95 95 145> 690 20G<95 145 145 145> 803 35<169 190 169 199.5> 861 35<43 68>
VStem: -26 35<798 798> 95 50<0 710 0 710> 221 34<905 905>
AnchorPoint: "Anchor-3" 120 710 basechar 0
AnchorPoint: "Anchor-2" 145 0 basechar 0
AnchorPoint: "Anchor-0" 120 0 basechar 0
LayerCount: 2
Fore
SplineSet
176 803 m 0
 149 803 130 814 110 834 c 0
 92 852 79 861 57 861 c 0
 29 861 11 843 9 798 c 1
 -26 798 l 1
 -22 861 11 896 57 896 c 0xde
 89 896 109 882 130 862 c 0
 149 844 161 838 177 838 c 0
 203 838 217 855 221 905 c 1
 255 905 l 1
 251 841 223 803 176 803 c 0
95 0 m 1
 95 710 l 1
 145 710 l 1
 145 0 l 1
 95 0 l 1
EndSplineSet
Substitution2: "'ss05' Style Set 5 in Latin lookup 38 subtable" Itilde.ss05
Substitution2: "'aalt' Access All Alternates in Latin lookup 0 subtable" Itilde.ss05
EndChar

StartChar: J
Encoding: 74 74 57
Width: 579
GlyphClass: 2
Flags: MW
HStem: -16 49<235 335 235 349.5> 690 20G<449 499 499 499>
VStem: 70 52<233 237> 449 50<248 710>
AnchorPoint: "Anchor-3" 475 710 basechar 0
LayerCount: 2
Fore
SplineSet
284 -16 m 0
 158 -16 71 79 70 233 c 1
 122 237 l 1
 123 104 186 33 284 33 c 0
 386 33 449 106 449 248 c 2
 449 710 l 1
 499 710 l 1
 499 248 l 2
 499 79 415 -16 284 -16 c 0
EndSplineSet
Substitution2: "Single Substitution lookup 16 subtable" uni004A0301
Substitution2: "'aalt' Access All Alternates in Latin lookup 0 subtable" uni004A0301
EndChar

StartChar: uni004A0301
Encoding: 65537 -1 58
Width: 579
GlyphClass: 2
Flags: MW
HStem: -16 49<235 335 235 349.5> 690 20G<449 499 499 499> 786 120<453 577 453 577>
VStem: 70 52<233 237> 449 50<248 710>
AnchorPoint: "Anchor-3" 475 710 basechar 0
LayerCount: 2
Fore
SplineSet
453 786 m 1
 523 906 l 1
 577 906 l 1
 494 786 l 1
 453 786 l 1
284 -16 m 0
 158 -16 71 79 70 233 c 1
 122 237 l 1
 123 104 186 33 284 33 c 0
 386 33 449 106 449 248 c 2
 449 710 l 1
 499 710 l 1
 499 248 l 2
 499 79 415 -16 284 -16 c 0
EndSplineSet
EndChar

StartChar: Jcircumflex
Encoding: 308 308 59
Width: 579
GlyphClass: 2
Flags: MW
HStem: -16 49<235 335 235 349.5> 690 20G<449 499 499 499> 786 127<364 498 364 498 452 545 452 587> 882 31<475 475>
VStem: 70 52<233 237> 449 50<248 710>
AnchorPoint: "Anchor-3" 475 710 basechar 0
LayerCount: 2
Fore
SplineSet
364 786 m 1xec
 452 913 l 1
 498 913 l 1xdc
 587 786 l 1
 545 786 l 1xec
 475 882 l 1xdc
 406 786 l 1
 364 786 l 1xec
284 -16 m 0
 158 -16 71 79 70 233 c 1
 122 237 l 1
 123 104 186 33 284 33 c 0
 386 33 449 106 449 248 c 2
 449 710 l 1
 499 710 l 1
 499 248 l 2
 499 79 415 -16 284 -16 c 0
EndSplineSet
EndChar

StartChar: K
Encoding: 75 75 60
Width: 623
GlyphClass: 2
Flags: MW
HStem: 0 21G<95 95 95 145 545 545 545 605> 690 20G<95 145 145 145 522 584 584 584>
VStem: 95 50<0 234 302 710>
AnchorPoint: "Anchor-3" 321 710 basechar 0
AnchorPoint: "Anchor-0" 334 0 basechar 0
LayerCount: 2
Fore
SplineSet
95 0 m 1
 95 710 l 1
 145 710 l 1
 145 302 l 1
 522 710 l 1
 584 710 l 1
 299 401 l 1
 605 0 l 1
 545 0 l 1
 267 366 l 1
 145 234 l 1
 145 0 l 1
 95 0 l 1
EndSplineSet
EndChar

StartChar: uni01E8
Encoding: 488 488 61
Width: 623
GlyphClass: 2
Flags: MW
HStem: 0 21G<95 95 95 145 545 545 545 605> 690 20G<95 145 145 145 522 584 584 584> 786 31<321 321 321 344 298 321> 786 127<209 344 209 298>
VStem: 95 50<0 234 302 710>
AnchorPoint: "Anchor-3" 321 710 basechar 0
AnchorPoint: "Anchor-0" 334 0 basechar 0
LayerCount: 2
Fore
SplineSet
209 913 m 1xd8
 251 913 l 1xd8
 321 817 l 1xe8
 390 913 l 1
 432 913 l 1xd8
 344 786 l 1
 298 786 l 1xe8
 209 913 l 1xd8
95 0 m 1
 95 710 l 1
 145 710 l 1
 145 302 l 1
 522 710 l 1
 584 710 l 1
 299 401 l 1
 605 0 l 1
 545 0 l 1
 267 366 l 1
 145 234 l 1
 145 0 l 1
 95 0 l 1
EndSplineSet
EndChar

StartChar: uni0136
Encoding: 310 310 62
Width: 623
GlyphClass: 2
Flags: MW
HStem: -110 62<300 328 300 367> 0 21G<95 95 95 145 545 545 545 605> 690 20G<95 145 145 145 522 584 584 584>
VStem: 95 50<0 234 302 710> 300 67<-104 -48 -104 -48 -104 -48>
AnchorPoint: "Anchor-3" 321 710 basechar 0
AnchorPoint: "Anchor-0" 334 -193 basechar 0
LayerCount: 2
Fore
SplineSet
95 0 m 1
 95 710 l 1
 145 710 l 1
 145 302 l 1
 522 710 l 1
 584 710 l 1
 299 401 l 1
 605 0 l 1
 545 0 l 1
 267 366 l 1
 145 234 l 1
 145 0 l 1
 95 0 l 1
286 -193 m 1
 328 -110 l 1
 300 -110 l 1
 300 -48 l 1
 367 -48 l 1
 367 -104 l 1
 320 -193 l 1
 286 -193 l 1
EndSplineSet
EndChar

StartChar: L
Encoding: 76 76 63
Width: 560
GlyphClass: 2
Flags: MW
HStem: 0 48<145 518 145 518> 690 20G<95 145 145 145>
VStem: 95 50<48 710 48 710 48 710>
AnchorPoint: "Anchor-4" 353 530 basechar 0
AnchorPoint: "Anchor-3" 120 710 basechar 0
AnchorPoint: "Anchor-1" 151 380 basechar 0
AnchorPoint: "Anchor-0" 306 0 basechar 0
LayerCount: 2
Fore
SplineSet
95 0 m 1
 95 710 l 1
 145 710 l 1
 145 48 l 1
 518 48 l 1
 518 0 l 1
 95 0 l 1
EndSplineSet
EndChar

StartChar: Lacute
Encoding: 313 313 64
Width: 560
GlyphClass: 2
Flags: MW
HStem: 0 48<145 518 145 518> 690 20G<95 145 145 145> 786 120<98 222 98 222>
VStem: 95 50<48 710 48 710 48 710>
AnchorPoint: "Anchor-4" 353 530 basechar 0
AnchorPoint: "Anchor-3" 120 710 basechar 0
AnchorPoint: "Anchor-1" 151 380 basechar 0
AnchorPoint: "Anchor-0" 306 0 basechar 0
LayerCount: 2
Fore
SplineSet
98 786 m 1
 168 906 l 1
 222 906 l 1
 139 786 l 1
 98 786 l 1
95 0 m 1
 95 710 l 1
 145 710 l 1
 145 48 l 1
 518 48 l 1
 518 0 l 1
 95 0 l 1
EndSplineSet
EndChar

StartChar: Lcaron
Encoding: 317 317 65
Width: 560
GlyphClass: 2
Flags: MW
HStem: 0 48<145 518 145 518> 690 20G<95 145 145 145 406 455 455 455>
VStem: 95 50<48 710 48 710 48 710>
AnchorPoint: "Anchor-4" 353 530 basechar 0
AnchorPoint: "Anchor-3" 120 710 basechar 0
AnchorPoint: "Anchor-1" 151 380 basechar 0
AnchorPoint: "Anchor-0" 306 0 basechar 0
LayerCount: 2
Fore
SplineSet
95 0 m 1
 95 710 l 1
 145 710 l 1
 145 48 l 1
 518 48 l 1
 518 0 l 1
 95 0 l 1
373 486 m 1
 406 710 l 1
 455 710 l 1
 411 486 l 1
 373 486 l 1
EndSplineSet
EndChar

StartChar: uni013B
Encoding: 315 315 66
Width: 560
GlyphClass: 2
Flags: MW
HStem: -110 62<273 301 273 340> 0 48<145 518 145 518> 690 20G<95 145 145 145>
VStem: 95 50<48 710 48 710 48 710> 273 67<-104 -48 -104 -48 -104 -48>
AnchorPoint: "Anchor-4" 353 530 basechar 0
AnchorPoint: "Anchor-3" 120 710 basechar 0
AnchorPoint: "Anchor-1" 151 380 basechar 0
AnchorPoint: "Anchor-0" 306 -193 basechar 0
LayerCount: 2
Fore
SplineSet
95 0 m 1
 95 710 l 1
 145 710 l 1
 145 48 l 1
 518 48 l 1
 518 0 l 1
 95 0 l 1
259 -193 m 1
 301 -110 l 1
 273 -110 l 1
 273 -48 l 1
 340 -48 l 1
 340 -104 l 1
 293 -193 l 1
 259 -193 l 1
EndSplineSet
Substitution2: "'locl' Localized Forms in Latin lookup 11 subtable" uni013B.loclMAH
Substitution2: "'aalt' Access All Alternates in Latin lookup 0 subtable" uni013B.loclMAH
EndChar

StartChar: Lslash
Encoding: 321 321 67
Width: 560
GlyphClass: 2
Flags: MW
HStem: 0 48<145 518 145 518> 690 20G<95 145 145 145>
VStem: 95 50<48 331 331 331 398 710> 95 183<0 463 331 463 420 463 420 710>
AnchorPoint: "Anchor-4" 353 530 basechar 0
AnchorPoint: "Anchor-3" 120 710 basechar 0
AnchorPoint: "Anchor-1" 151 380 basechar 0
AnchorPoint: "Anchor-0" 306 0 basechar 0
LayerCount: 2
Fore
SplineSet
95 0 m 1xe0
 95 331 l 1
 25 297 l 1
 25 340 l 1
 95 374 l 1
 95 710 l 1
 145 710 l 1
 145 398 l 1xe0
 278 463 l 1
 278 420 l 1xd0
 145 355 l 1
 145 48 l 1
 518 48 l 1
 518 0 l 1
 95 0 l 1xe0
EndSplineSet
EndChar

StartChar: M
Encoding: 77 77 68
Width: 859
GlyphClass: 2
Flags: MW
HStem: 0 54<398 430 430 430 430 461> 637 73<145 145 714 714>
VStem: 95 50<0 637 0 710> 714 50<0 637 637 637>
AnchorPoint: "Anchor-3" 430 710 basechar 0
AnchorPoint: "Anchor-0" 430 0 basechar 0
LayerCount: 2
Fore
SplineSet
95 0 m 1
 95 710 l 1
 171 710 l 1
 430 54 l 1
 688 710 l 1
 764 710 l 1
 764 0 l 1
 714 0 l 1
 714 637 l 1
 461 0 l 1
 398 0 l 1
 145 637 l 1
 145 0 l 1
 95 0 l 1
EndSplineSet
EndChar

StartChar: N
Encoding: 78 78 69
Width: 722
GlyphClass: 2
Flags: MW
HStem: 0 49<553 577 577 577 577 627> 657 53<145 145>
VStem: 95 50<0 657 0 710> 577 50<49 710 0 710>
AnchorPoint: "Anchor-3" 366 710 basechar 0
AnchorPoint: "Anchor-0" 362 0 basechar 0
LayerCount: 2
Fore
SplineSet
95 0 m 1
 95 710 l 1
 167 710 l 1
 577 49 l 1
 577 710 l 1
 627 710 l 1
 627 0 l 1
 553 0 l 1
 145 657 l 1
 145 0 l 1
 95 0 l 1
EndSplineSet
EndChar

StartChar: Nacute
Encoding: 323 323 70
Width: 722
GlyphClass: 2
Flags: MW
HStem: 0 49<553 577 577 577 577 627> 657 53<145 145> 786 120<344 468 344 468>
VStem: 95 50<0 657 0 710> 577 50<49 710 0 710>
AnchorPoint: "Anchor-3" 366 710 basechar 0
AnchorPoint: "Anchor-0" 362 0 basechar 0
LayerCount: 2
Fore
SplineSet
344 786 m 1
 414 906 l 1
 468 906 l 1
 385 786 l 1
 344 786 l 1
95 0 m 1
 95 710 l 1
 167 710 l 1
 577 49 l 1
 577 710 l 1
 627 710 l 1
 627 0 l 1
 553 0 l 1
 145 657 l 1
 145 0 l 1
 95 0 l 1
EndSplineSet
EndChar

StartChar: Ncaron
Encoding: 327 327 71
Width: 722
GlyphClass: 2
Flags: MW
HStem: 0 49<553 577 577 577 577 627> 657 53<145 145> 786 31<366 366 366 389 343 366> 786 127<254 389 254 343>
VStem: 95 50<0 657 0 710> 577 50<49 710 0 710>
AnchorPoint: "Anchor-3" 366 710 basechar 0
AnchorPoint: "Anchor-0" 362 0 basechar 0
LayerCount: 2
Fore
SplineSet
254 913 m 1xdc
 296 913 l 1xdc
 366 817 l 1xec
 436 913 l 1
 478 913 l 1xdc
 389 786 l 1
 343 786 l 1xec
 254 913 l 1xdc
95 0 m 1
 95 710 l 1
 167 710 l 1
 577 49 l 1
 577 710 l 1
 627 710 l 1
 627 0 l 1
 553 0 l 1
 145 657 l 1
 145 0 l 1
 95 0 l 1
EndSplineSet
EndChar

StartChar: uni0145
Encoding: 325 325 72
Width: 722
GlyphClass: 2
Flags: MW
HStem: -110 62<328 356 328 395> 0 49<553 577 577 577 577 627> 657 53<145 145>
VStem: 95 50<0 657 0 710> 328 67<-104 -48 -104 -48 -104 -48> 577 50<49 710 0 710>
AnchorPoint: "Anchor-3" 366 710 basechar 0
AnchorPoint: "Anchor-0" 362 -193 basechar 0
LayerCount: 2
Fore
SplineSet
95 0 m 1
 95 710 l 1
 167 710 l 1
 577 49 l 1
 577 710 l 1
 627 710 l 1
 627 0 l 1
 553 0 l 1
 145 657 l 1
 145 0 l 1
 95 0 l 1
314 -193 m 1
 356 -110 l 1
 328 -110 l 1
 328 -48 l 1
 395 -48 l 1
 395 -104 l 1
 348 -193 l 1
 314 -193 l 1
EndSplineSet
Substitution2: "'locl' Localized Forms in Latin lookup 11 subtable" uni0145.loclMAH
Substitution2: "'aalt' Access All Alternates in Latin lookup 0 subtable" uni0145.loclMAH
EndChar

StartChar: Ntilde
Encoding: 209 209 73
Width: 722
GlyphClass: 2
Flags: MW
HStem: 0 49<553 577 577 577 577 627> 657 53<145 145> 803 35<416 436.5 416 445.5> 861 35<289 314.5>
VStem: 95 50<0 657 0 710> 221 34<798 798> 467 35<905 905> 577 50<49 710 0 710>
AnchorPoint: "Anchor-3" 366 710 basechar 0
AnchorPoint: "Anchor-0" 362 0 basechar 0
LayerCount: 2
Fore
SplineSet
422 803 m 0
 395 803 376 814 356 834 c 0
 338 852 326 861 303 861 c 0
 275 861 257 843 255 798 c 1
 221 798 l 1
 224 861 257 896 303 896 c 0xdf
 335 896 355 882 376 862 c 0
 395 844 408 838 424 838 c 0
 449 838 463 855 467 905 c 1
 502 905 l 1
 498 841 469 803 422 803 c 0
95 0 m 1
 95 710 l 1
 167 710 l 1
 577 49 l 1
 577 710 l 1
 627 710 l 1
 627 0 l 1
 553 0 l 1
 145 657 l 1
 145 0 l 1
 95 0 l 1
EndSplineSet
EndChar

StartChar: Eng
Encoding: 330 330 74
Width: 722
GlyphClass: 2
Flags: MW
HStem: -150 45<395 495 395 495> 0 21G<95 95 95 145 553 553 553 577> 0 49<553 577 553 577> 657 53<145 145>
VStem: 95 50<0 657 0 710> 577 50<-23 -22 -22 0 0 0 49 710>
AnchorPoint: "Anchor-3" 361 710 basechar 0
AnchorPoint: "Anchor-0" 361 -150 basechar 0
LayerCount: 2
Fore
SplineSet
95 0 m 1xdc
 95 710 l 1
 167 710 l 1
 577 49 l 1xbc
 577 710 l 1
 627 710 l 1
 627 -22 l 2
 627 -98 577 -150 495 -150 c 2
 395 -150 l 1
 395 -105 l 1
 495 -105 l 2
 548 -105 577 -71 577 -23 c 2
 577 0 l 1
 553 0 l 1
 145 657 l 1
 145 0 l 1
 95 0 l 1xdc
EndSplineSet
EndChar

StartChar: O
Encoding: 79 79 75
Width: 722
GlyphClass: 2
Flags: MW
HStem: -16 49<280.5 442 280.5 458> 677 49<280.5 442>
VStem: 48 53<254.5 453.5 254.5 468.5> 621 53<254.5 453.5>
AnchorPoint: "Anchor-3" 361 710 basechar 0
AnchorPoint: "Anchor-1" 361 355 basechar 0
AnchorPoint: "Anchor-0" 361 0 basechar 0
LayerCount: 2
Fore
SplineSet
361 -16 m 0
 167 -16 48 126 48 354 c 0
 48 583 167 726 361 726 c 0
 555 726 674 583 674 354 c 0
 674 126 555 -16 361 -16 c 0
361 33 m 0
 523 33 621 155 621 354 c 0
 621 553 523 677 361 677 c 0
 200 677 101 553 101 354 c 0
 101 155 200 33 361 33 c 0
EndSplineSet
Substitution2: "Single Substitution lookup 27 subtable" ordmasculine
Substitution2: "'aalt' Access All Alternates in Latin lookup 0 subtable" ordmasculine
EndChar

StartChar: Oacute
Encoding: 211 211 76
Width: 722
GlyphClass: 2
Flags: MW
HStem: -16 49<280.5 442 280.5 458> 677 49<280.5 442> 786 120<339 463 339 463>
VStem: 48 53<254.5 453.5 254.5 468.5> 621 53<254.5 453.5>
AnchorPoint: "Anchor-3" 361 710 basechar 0
AnchorPoint: "Anchor-1" 361 355 basechar 0
AnchorPoint: "Anchor-0" 361 0 basechar 0
LayerCount: 2
Fore
SplineSet
339 786 m 1
 409 906 l 1
 463 906 l 1
 380 786 l 1
 339 786 l 1
361 -16 m 0
 167 -16 48 126 48 354 c 0
 48 583 167 726 361 726 c 0
 555 726 674 583 674 354 c 0
 674 126 555 -16 361 -16 c 0
361 33 m 0
 523 33 621 155 621 354 c 0
 621 553 523 677 361 677 c 0
 200 677 101 553 101 354 c 0
 101 155 200 33 361 33 c 0
EndSplineSet
EndChar

StartChar: Ocircumflex
Encoding: 212 212 77
Width: 722
GlyphClass: 2
Flags: MW
HStem: -16 49<280.5 442 280.5 458> 677 49<280.5 442> 786 127<250 385 250 385 339 431 339 473> 882 31<362 362>
VStem: 48 53<254.5 453.5 254.5 468.5> 621 53<254.5 453.5>
AnchorPoint: "Anchor-3" 361 710 basechar 0
AnchorPoint: "Anchor-1" 361 355 basechar 0
AnchorPoint: "Anchor-0" 361 0 basechar 0
LayerCount: 2
Fore
SplineSet
250 786 m 1xec
 339 913 l 1
 385 913 l 1xdc
 473 786 l 1
 431 786 l 1xec
 362 882 l 1xdc
 292 786 l 1
 250 786 l 1xec
361 -16 m 0
 167 -16 48 126 48 354 c 0
 48 583 167 726 361 726 c 0
 555 726 674 583 674 354 c 0
 674 126 555 -16 361 -16 c 0
361 33 m 0
 523 33 621 155 621 354 c 0
 621 553 523 677 361 677 c 0
 200 677 101 553 101 354 c 0
 101 155 200 33 361 33 c 0
EndSplineSet
EndChar

StartChar: Odieresis
Encoding: 214 214 78
Width: 722
GlyphClass: 2
Flags: MW
HStem: -16 49<280.5 442 280.5 458> 677 49<280.5 442> 803 79<263 315 263 315 407 459>
VStem: 48 53<254.5 453.5 254.5 468.5> 263 52<803 882 803 882> 407 52<803 882 803 882> 621 53<254.5 453.5>
AnchorPoint: "Anchor-3" 361 710 basechar 0
AnchorPoint: "Anchor-1" 361 355 basechar 0
AnchorPoint: "Anchor-0" 361 0 basechar 0
LayerCount: 2
Fore
SplineSet
263 803 m 1
 263 882 l 1
 315 882 l 1
 315 803 l 1
 263 803 l 1
407 803 m 1
 407 882 l 1
 459 882 l 1
 459 803 l 1
 407 803 l 1
361 -16 m 0
 167 -16 48 126 48 354 c 0
 48 583 167 726 361 726 c 0
 555 726 674 583 674 354 c 0
 674 126 555 -16 361 -16 c 0
361 33 m 0
 523 33 621 155 621 354 c 0
 621 553 523 677 361 677 c 0
 200 677 101 553 101 354 c 0
 101 155 200 33 361 33 c 0
EndSplineSet
Substitution2: "'ss08' Style Set 8 in Latin lookup 41 subtable" Odieresis.ss08
Substitution2: "'aalt' Access All Alternates in Latin lookup 0 subtable" Odieresis.ss08
EndChar

StartChar: Ograve
Encoding: 210 210 79
Width: 722
GlyphClass: 2
Flags: MW
HStem: -16 49<280.5 442 280.5 458> 677 49<280.5 442> 793 120<259 342 259 383>
VStem: 48 53<254.5 453.5 254.5 468.5> 621 53<254.5 453.5>
AnchorPoint: "Anchor-3" 361 710 basechar 0
AnchorPoint: "Anchor-1" 361 355 basechar 0
AnchorPoint: "Anchor-0" 361 0 basechar 0
LayerCount: 2
Fore
SplineSet
342 793 m 1
 259 913 l 1
 313 913 l 1
 383 793 l 1
 342 793 l 1
361 -16 m 0
 167 -16 48 126 48 354 c 0
 48 583 167 726 361 726 c 0
 555 726 674 583 674 354 c 0
 674 126 555 -16 361 -16 c 0
361 33 m 0
 523 33 621 155 621 354 c 0
 621 553 523 677 361 677 c 0
 200 677 101 553 101 354 c 0
 101 155 200 33 361 33 c 0
EndSplineSet
EndChar

StartChar: Ohungarumlaut
Encoding: 336 336 80
Width: 722
GlyphClass: 2
Flags: MW
HStem: -16 49<280.5 442 280.5 458> 677 49<280.5 442> 786 120<286 410 286 410 393 410 356 433 393 393>
VStem: 48 53<254.5 453.5 254.5 468.5> 621 53<254.5 453.5>
AnchorPoint: "Anchor-3" 361 710 basechar 0
AnchorPoint: "Anchor-1" 361 355 basechar 0
AnchorPoint: "Anchor-0" 361 0 basechar 0
LayerCount: 2
Fore
SplineSet
286 786 m 1
 356 906 l 1
 410 906 l 1
 327 786 l 1
 286 786 l 1
393 786 m 1
 463 906 l 1
 517 906 l 1
 433 786 l 1
 393 786 l 1
361 -16 m 0
 167 -16 48 126 48 354 c 0
 48 583 167 726 361 726 c 0
 555 726 674 583 674 354 c 0
 674 126 555 -16 361 -16 c 0
361 33 m 0
 523 33 621 155 621 354 c 0
 621 553 523 677 361 677 c 0
 200 677 101 553 101 354 c 0
 101 155 200 33 361 33 c 0
EndSplineSet
EndChar

StartChar: Omacron
Encoding: 332 332 81
Width: 722
GlyphClass: 2
Flags: MW
HStem: -16 49<280.5 442 280.5 458> 677 49<280.5 442> 818 42<234 488 234 488>
VStem: 48 53<254.5 453.5 254.5 468.5> 621 53<254.5 453.5>
AnchorPoint: "Anchor-3" 361 710 basechar 0
AnchorPoint: "Anchor-1" 361 355 basechar 0
AnchorPoint: "Anchor-0" 361 0 basechar 0
LayerCount: 2
Fore
SplineSet
234 818 m 1
 234 860 l 1
 488 860 l 1
 488 818 l 1
 234 818 l 1
361 -16 m 0
 167 -16 48 126 48 354 c 0
 48 583 167 726 361 726 c 0
 555 726 674 583 674 354 c 0
 674 126 555 -16 361 -16 c 0
361 33 m 0
 523 33 621 155 621 354 c 0
 621 553 523 677 361 677 c 0
 200 677 101 553 101 354 c 0
 101 155 200 33 361 33 c 0
EndSplineSet
EndChar

StartChar: Oslash
Encoding: 216 216 82
Width: 722
GlyphClass: 2
Flags: MW
HStem: -16 49<329 442 329 458> 677 49<280.5 393>
VStem: 48 53<304 453.5 304 468.5> 621 53<254.5 404.5>
AnchorPoint: "Anchor-3" 361 710 basechar 0
AnchorPoint: "Anchor-1" 361 355 basechar 0
AnchorPoint: "Anchor-0" 361 0 basechar 0
LayerCount: 2
Fore
SplineSet
78 -16 m 1
 141 74 l 1
 81 138 48 234 48 354 c 0
 48 583 167 726 361 726 c 0
 437 726 501 704 551 665 c 1
 593 726 l 1
 644 726 l 1
 582 636 l 1
 641 572 674 475 674 354 c 0
 674 126 555 -16 361 -16 c 0
 286 -16 222 5 171 45 c 1
 129 -16 l 1
 78 -16 l 1
101 354 m 0
 101 254 126 173 171 118 c 1
 521 622 l 1
 479 657 425 677 361 677 c 0
 200 677 101 553 101 354 c 0
361 33 m 0
 523 33 621 155 621 354 c 0
 621 455 596 536 551 591 c 1
 201 88 l 1
 243 52 297 33 361 33 c 0
EndSplineSet
EndChar

StartChar: Otilde
Encoding: 213 213 83
Width: 722
GlyphClass: 2
Flags: MW
HStem: -16 49<280.5 442 280.5 458> 677 49<280.5 442> 803 35<411 431.5 411 440.5> 861 35<284 309.5>
VStem: 48 53<254.5 453.5 254.5 468.5> 216 34<798 798> 462 35<905 905> 621 53<254.5 453.5>
AnchorPoint: "Anchor-3" 361 710 basechar 0
AnchorPoint: "Anchor-1" 361 355 basechar 0
AnchorPoint: "Anchor-0" 361 0 basechar 0
LayerCount: 2
Fore
SplineSet
417 803 m 0
 390 803 371 814 351 834 c 0
 333 852 321 861 298 861 c 0
 270 861 252 843 250 798 c 1
 216 798 l 1
 219 861 252 896 298 896 c 0xdf
 330 896 350 882 371 862 c 0
 390 844 403 838 419 838 c 0
 444 838 458 855 462 905 c 1
 497 905 l 1
 493 841 464 803 417 803 c 0
361 -16 m 0
 167 -16 48 126 48 354 c 0
 48 583 167 726 361 726 c 0
 555 726 674 583 674 354 c 0
 674 126 555 -16 361 -16 c 0
361 33 m 0
 523 33 621 155 621 354 c 0
 621 553 523 677 361 677 c 0
 200 677 101 553 101 354 c 0
 101 155 200 33 361 33 c 0
EndSplineSet
EndChar

StartChar: OE
Encoding: 338 338 84
Width: 1081
GlyphClass: 2
Flags: MW
HStem: -16 49<278 420.5> 0 48<672 1028 672 1028> 331 47<672 1008 672 1008> 662 48<672 1020 672 672> 677 49<278 421 263.5 443>
VStem: 48 53<256.5 451.5 256.5 465.5> 621 51<256.5 331 378 451> 622 50<48 149 149 149 561 662>
AnchorPoint: "Anchor-3" 540 710 basechar 0
AnchorPoint: "Anchor-0" 540 0 basechar 0
LayerCount: 2
Fore
SplineSet
360 -16 m 0xb5
 168 -16 48 132 48 354 c 0
 48 577 167 726 360 726 c 0xae
 482 726 573 666 622 561 c 1
 622 710 l 1x75
 1020 710 l 1
 1020 662 l 1
 672 662 l 1
 672 378 l 1
 1008 378 l 1
 1008 331 l 1
 672 331 l 1
 672 48 l 1x76
 1028 48 l 1
 1028 0 l 1
 622 0 l 1x75
 622 149 l 1
 573 44 481 -16 360 -16 c 0xb5
360 33 m 0
 526 33 621 159 621 354 c 0
 621 548 526 677 360 677 c 0
 196 677 101 549 101 354 c 0
 101 159 196 33 360 33 c 0
EndSplineSet
EndChar

StartChar: P
Encoding: 80 80 85
Width: 629
GlyphClass: 2
Flags: MW
HStem: 0 21G<95 95 95 145> 295 48<145 338 145 338> 662 48<145 338 145 145>
VStem: 95 50<0 295 343 662> 529 52<450.5 553.5>
AnchorPoint: "Anchor-3" 314 710 basechar 0
AnchorPoint: "Anchor-0" 314 0 basechar 0
LayerCount: 2
Fore
SplineSet
95 0 m 1
 95 710 l 1
 338 710 l 2
 490 710 581 631 581 502 c 0
 581 374 490 295 338 295 c 2
 145 295 l 1
 145 0 l 1
 95 0 l 1
145 343 m 1
 338 343 l 2
 461 343 529 399 529 502 c 0
 529 605 461 662 338 662 c 2
 145 662 l 1
 145 343 l 1
EndSplineSet
EndChar

StartChar: Thorn
Encoding: 222 222 86
Width: 599
GlyphClass: 2
Flags: MW
HStem: 0 21G<95 95 95 145> 159 48<145 301 145 301> 525 48<145 301 145 301> 690 20G<95 145 145 145>
VStem: 95 50<0 159 0 207 207 525 573 710> 499 52<310 419.5>
AnchorPoint: "Anchor-3" 300 710 basechar 0
AnchorPoint: "Anchor-0" 300 0 basechar 0
LayerCount: 2
Fore
SplineSet
95 0 m 1
 95 710 l 1
 145 710 l 1
 145 573 l 1
 301 573 l 2
 460 573 551 494 551 365 c 0
 551 233 460 159 301 159 c 2
 145 159 l 1
 145 0 l 1
 95 0 l 1
301 525 m 2
 145 525 l 1
 145 207 l 1
 301 207 l 2
 426 207 499 255 499 365 c 0
 499 474 426 525 301 525 c 2
EndSplineSet
EndChar

StartChar: Q
Encoding: 81 81 87
Width: 716
GlyphClass: 2
Flags: MW
HStem: -16 49<277 379 277 384> 677 49<276.5 439.5>
VStem: 48 53<258.5 450 258.5 463.5> 615 53<291 450>
AnchorPoint: "Anchor-3" 358 710 basechar 0
AnchorPoint: "Anchor-0" 358 0 basechar 0
LayerCount: 2
Fore
SplineSet
563 -69 m 1
 496 17 l 1
 458 -4 410 -16 358 -16 c 0
 168 -16 48 137 48 354 c 0
 48 573 167 726 358 726 c 0
 550 726 668 573 668 354 c 0
 668 212 619 102 533 39 c 1
 619 -69 l 1
 563 -69 l 1
358 33 m 0
 400 33 435 42 466 58 c 1
 347 208 l 1
 403 208 l 1
 503 77 l 1
 575 131 615 228 615 354 c 0
 615 546 521 677 358 677 c 0
 195 677 101 546 101 354 c 0
 101 163 196 33 358 33 c 0
EndSplineSet
EndChar

StartChar: R
Encoding: 82 82 88
Width: 644
GlyphClass: 2
Flags: MW
HStem: 0 21G<95 95 95 145 536 536 536 587> 303 48<145 356 356 371 145 356> 662 48<145 344 145 145>
VStem: 95 50<0 303 351 662> 532 52<459 556>
AnchorPoint: "Anchor-3" 328 710 basechar 0
AnchorPoint: "Anchor-0" 329 0 basechar 0
LayerCount: 2
Fore
SplineSet
95 0 m 1
 95 710 l 1
 345 710 l 2
 497 710 584 633 584 503 c 0
 584 415 528 352 451 331 c 1
 524 319 563 276 569 200 c 2
 587 0 l 1
 536 0 l 1
 520 196 l 2
 514 269 470 303 371 303 c 2
 145 303 l 1
 145 0 l 1
 95 0 l 1
145 351 m 1
 356 351 l 2
 464 351 532 405 532 504 c 0
 532 608 468 662 344 662 c 2
 145 662 l 1
 145 351 l 1
EndSplineSet
Substitution2: "'ss04' Style Set 4 in Latin lookup 37 subtable" R.ss04
Substitution2: "'aalt' Access All Alternates in Latin lookup 0 subtable" R.ss04
EndChar

StartChar: Racute
Encoding: 340 340 89
Width: 644
GlyphClass: 2
Flags: MW
HStem: 0 21G<95 95 95 145 536 536 536 587> 303 48<145 356 356 371 145 356> 662 48<145 344 145 145> 786 120<307 431 307 431>
VStem: 95 50<0 303 351 662> 532 52<459 556>
AnchorPoint: "Anchor-3" 328 710 basechar 0
AnchorPoint: "Anchor-0" 329 0 basechar 0
LayerCount: 2
Fore
SplineSet
307 786 m 1
 377 906 l 1
 431 906 l 1
 347 786 l 1
 307 786 l 1
95 0 m 1
 95 710 l 1
 345 710 l 2
 497 710 584 633 584 503 c 0
 584 415 528 352 451 331 c 1
 524 319 563 276 569 200 c 2
 587 0 l 1
 536 0 l 1
 520 196 l 2
 514 269 470 303 371 303 c 2
 145 303 l 1
 145 0 l 1
 95 0 l 1
145 351 m 1
 356 351 l 2
 464 351 532 405 532 504 c 0
 532 608 468 662 344 662 c 2
 145 662 l 1
 145 351 l 1
EndSplineSet
Substitution2: "'ss04' Style Set 4 in Latin lookup 37 subtable" Racute.ss04
Substitution2: "'aalt' Access All Alternates in Latin lookup 0 subtable" Racute.ss04
EndChar

StartChar: Rcaron
Encoding: 344 344 90
Width: 644
GlyphClass: 2
Flags: MW
HStem: 0 21G<95 95 95 145 536 536 536 587> 303 48<145 356 356 371 145 356> 662 48<145 344 145 145> 786 31<328 328 328 351 305 328> 786 127<217 351 217 305>
VStem: 95 50<0 303 351 662> 532 52<459 556>
AnchorPoint: "Anchor-3" 328 710 basechar 0
AnchorPoint: "Anchor-0" 329 0 basechar 0
LayerCount: 2
Fore
SplineSet
217 913 m 1xee
 259 913 l 1xee
 328 817 l 1xf6
 398 913 l 1
 440 913 l 1xee
 351 786 l 1
 305 786 l 1xf6
 217 913 l 1xee
95 0 m 1
 95 710 l 1
 345 710 l 2
 497 710 584 633 584 503 c 0
 584 415 528 352 451 331 c 1
 524 319 563 276 569 200 c 2
 587 0 l 1
 536 0 l 1
 520 196 l 2
 514 269 470 303 371 303 c 2
 145 303 l 1
 145 0 l 1
 95 0 l 1
145 351 m 1
 356 351 l 2
 464 351 532 405 532 504 c 0
 532 608 468 662 344 662 c 2
 145 662 l 1
 145 351 l 1
EndSplineSet
Substitution2: "'ss04' Style Set 4 in Latin lookup 37 subtable" Rcaron.ss04
Substitution2: "'aalt' Access All Alternates in Latin lookup 0 subtable" Rcaron.ss04
EndChar

StartChar: uni0156
Encoding: 342 342 91
Width: 644
GlyphClass: 2
Flags: MW
HStem: -110 62<295 323 295 362> 0 21G<95 95 95 145 536 536 536 587> 303 48<145 356 356 371 145 356> 662 48<145 344 145 145>
VStem: 95 50<0 303 351 662> 295 67<-104 -48 -104 -48 -104 -48> 532 52<459 556>
AnchorPoint: "Anchor-3" 328 710 basechar 0
AnchorPoint: "Anchor-0" 329 -193 basechar 0
LayerCount: 2
Fore
SplineSet
95 0 m 1
 95 710 l 1
 345 710 l 2
 497 710 584 633 584 503 c 0
 584 415 528 352 451 331 c 1
 524 319 563 276 569 200 c 2
 587 0 l 1
 536 0 l 1
 520 196 l 2
 514 269 470 303 371 303 c 2
 145 303 l 1
 145 0 l 1
 95 0 l 1
145 351 m 1
 356 351 l 2
 464 351 532 405 532 504 c 0
 532 608 468 662 344 662 c 2
 145 662 l 1
 145 351 l 1
281 -193 m 1
 323 -110 l 1
 295 -110 l 1
 295 -48 l 1
 362 -48 l 1
 362 -104 l 1
 315 -193 l 1
 281 -193 l 1
EndSplineSet
Substitution2: "'ss04' Style Set 4 in Latin lookup 37 subtable" uni0156.ss04
Substitution2: "'aalt' Access All Alternates in Latin lookup 0 subtable" uni0156.ss04
EndChar

StartChar: S
Encoding: 83 83 92
Width: 629
GlyphClass: 2
Flags: MW
HStem: -16 49<264 384 264 395.5> 677 49<248 366.5>
VStem: 58 52<222 226> 73 53<493.5 575 493.5 587.5> 500 53<501 505> 518 52<133 216>
AnchorPoint: "Anchor-3" 305 710 basechar 0
AnchorPoint: "Anchor-0" 316 0 basechar 0
LayerCount: 2
Fore
SplineSet
327 -16 m 0xd4
 172 -16 62 87 58 222 c 1
 110 226 l 1
 115 117 199 33 329 33 c 0
 439 33 518 86 518 180 c 0xe4
 518 252 479 301 296 344 c 0
 137 382 73 425 73 533 c 0
 73 642 159 726 306 726 c 0
 462 726 547 621 553 505 c 1
 500 501 l 1xd8
 496 598 429 677 304 677 c 0
 192 677 126 617 126 533 c 0
 126 454 167 424 321 388 c 0
 516 342 570 279 570 181 c 0
 570 59 464 -16 327 -16 c 0xd4
EndSplineSet
EndChar

StartChar: Sacute
Encoding: 346 346 93
Width: 629
GlyphClass: 2
Flags: MW
HStem: -16 49<264 384 264 395.5> 677 49<248 366.5> 786 120<283 407 283 407>
VStem: 58 52<222 226> 73 53<493.5 575 493.5 587.5> 500 53<501 505> 518 52<133 216>
AnchorPoint: "Anchor-3" 305 710 basechar 0
AnchorPoint: "Anchor-0" 316 0 basechar 0
LayerCount: 2
Fore
SplineSet
283 786 m 1xea
 353 906 l 1
 407 906 l 1
 324 786 l 1
 283 786 l 1xea
327 -16 m 0
 172 -16 62 87 58 222 c 1
 110 226 l 1
 115 117 199 33 329 33 c 0
 439 33 518 86 518 180 c 0xd2
 518 252 479 301 296 344 c 0
 137 382 73 425 73 533 c 0
 73 642 159 726 306 726 c 0
 462 726 547 621 553 505 c 1
 500 501 l 1xcc
 496 598 429 677 304 677 c 0
 192 677 126 617 126 533 c 0
 126 454 167 424 321 388 c 0
 516 342 570 279 570 181 c 0
 570 59 464 -16 327 -16 c 0
EndSplineSet
EndChar

StartChar: Scaron
Encoding: 352 352 94
Width: 629
GlyphClass: 2
Flags: MW
HStem: -16 49<264 384 264 395.5> 677 49<248 366.5> 786 31<305 305 305 328 282 305> 786 127<193 328 193 282>
VStem: 58 52<222 226> 73 53<493.5 575 493.5 587.5> 500 53<501 505> 518 52<133 216>
AnchorPoint: "Anchor-3" 305 710 basechar 0
AnchorPoint: "Anchor-0" 316 0 basechar 0
LayerCount: 2
Fore
SplineSet
193 913 m 1xd5
 235 913 l 1xd5
 305 817 l 1xe5
 374 913 l 1
 416 913 l 1xd5
 328 786 l 1
 282 786 l 1xe6
 193 913 l 1xd5
327 -16 m 0
 172 -16 62 87 58 222 c 1
 110 226 l 1
 115 117 199 33 329 33 c 0
 439 33 518 86 518 180 c 0xc9
 518 252 479 301 296 344 c 0
 137 382 73 425 73 533 c 0
 73 642 159 726 306 726 c 0
 462 726 547 621 553 505 c 1
 500 501 l 1xc6
 496 598 429 677 304 677 c 0
 192 677 126 617 126 533 c 0
 126 454 167 424 321 388 c 0
 516 342 570 279 570 181 c 0
 570 59 464 -16 327 -16 c 0
EndSplineSet
EndChar

StartChar: Scedilla
Encoding: 350 350 95
Width: 629
GlyphClass: 2
Flags: MW
HStem: -209 36<285.5 324.5 285.5 336.5> -75 31<310 310 310 317.5> -16 49<326 327 326 326> 677 49<248 366.5>
VStem: 58 52<222 226> 73 53<493.5 575 493.5 587.5> 368 39<-141 -108> 500 53<501 505> 518 52<133 216>
AnchorPoint: "Anchor-3" 305 710 basechar 0
AnchorPoint: "Anchor-0" 316 0 basechar 0
LayerCount: 2
Fore
SplineSet
327 -16 m 2xb680
 326 -16 l 1
 310 -44 l 1
 373 -46 407 -74 407 -126 c 0
 407 -178 366 -209 307 -209 c 0
 252 -209 217 -183 204 -143 c 1
 237 -130 l 1
 246 -157 266 -173 305 -173 c 0
 344 -173 368 -158 368 -124 c 0
 368 -92 349 -75 286 -75 c 1xd680
 267 -53 l 1
 289 -14 l 1
 154 2 62 98 58 222 c 1
 110 226 l 1
 115 117 199 33 329 33 c 0
 439 33 518 86 518 180 c 0xba80
 518 252 479 301 296 344 c 0
 137 382 73 425 73 533 c 0
 73 642 159 726 306 726 c 0
 462 726 547 621 553 505 c 1
 500 501 l 1xb7
 496 598 429 677 304 677 c 0
 192 677 126 617 126 533 c 0
 126 454 167 424 321 388 c 0
 516 342 570 279 570 181 c 0
 570 59 464 -16 327 -16 c 2xb680
EndSplineSet
Substitution2: "'locl' Localized Forms in Latin lookup 10 subtable" uni0218
Substitution2: "'aalt' Access All Alternates in Latin lookup 0 subtable" uni0218
EndChar

StartChar: Scircumflex
Encoding: 348 348 96
Width: 629
GlyphClass: 2
Flags: MW
HStem: -16 49<264 384 264 395.5> 677 49<248 366.5> 786 127<194 328 194 328 282 375 282 417> 882 31<305 305>
VStem: 58 52<222 226> 73 53<493.5 575 493.5 587.5> 500 53<501 505> 518 52<133 216>
AnchorPoint: "Anchor-3" 305 710 basechar 0
AnchorPoint: "Anchor-0" 316 0 basechar 0
LayerCount: 2
Fore
SplineSet
194 786 m 1xe5
 282 913 l 1
 328 913 l 1xd5
 417 786 l 1
 375 786 l 1xe6
 305 882 l 1xd6
 236 786 l 1
 194 786 l 1xe5
327 -16 m 0
 172 -16 62 87 58 222 c 1
 110 226 l 1
 115 117 199 33 329 33 c 0
 439 33 518 86 518 180 c 0xc9
 518 252 479 301 296 344 c 0
 137 382 73 425 73 533 c 0
 73 642 159 726 306 726 c 0
 462 726 547 621 553 505 c 1
 500 501 l 1xc6
 496 598 429 677 304 677 c 0
 192 677 126 617 126 533 c 0
 126 454 167 424 321 388 c 0
 516 342 570 279 570 181 c 0
 570 59 464 -16 327 -16 c 0
EndSplineSet
EndChar

StartChar: uni0218
Encoding: 536 536 97
Width: 629
GlyphClass: 2
Flags: MW
HStem: -110 62<282 310 282 349> -16 49<264 384 264 395.5> 677 49<248 366.5>
VStem: 58 52<222 226> 73 53<493.5 575 493.5 587.5> 282 67<-104 -48 -104 -48 -104 -48> 500 53<501 505> 518 52<133 216>
AnchorPoint: "Anchor-3" 305 710 basechar 0
AnchorPoint: "Anchor-0" 316 -193 basechar 0
LayerCount: 2
Fore
SplineSet
327 -16 m 0xed
 172 -16 62 87 58 222 c 1
 110 226 l 1
 115 117 199 33 329 33 c 0
 439 33 518 86 518 180 c 0xf5
 518 252 479 301 296 344 c 0
 137 382 73 425 73 533 c 0
 73 642 159 726 306 726 c 0
 462 726 547 621 553 505 c 1
 500 501 l 1xee
 496 598 429 677 304 677 c 0
 192 677 126 617 126 533 c 0
 126 454 167 424 321 388 c 0
 516 342 570 279 570 181 c 0
 570 59 464 -16 327 -16 c 0xed
268 -193 m 1
 310 -110 l 1
 282 -110 l 1
 282 -48 l 1
 349 -48 l 1
 349 -104 l 1
 302 -193 l 1
 268 -193 l 1
EndSplineSet
EndChar

StartChar: uni1E9E
Encoding: 7838 7838 98
Width: 667
GlyphClass: 2
Flags: MW
HStem: 0 48<230 364 230 364> 370 45<257 318> 662 48<232 568 279 511>
VStem: 95 50<0 520 520 521 0 583.5> 511 57<662 662> 557 52<155.5 260>
AnchorPoint: "Anchor-3" 333 710 basechar 0
AnchorPoint: "Anchor-0" 333 0 basechar 0
LayerCount: 2
Fore
SplineSet
95 0 m 1xf8
 95 520 l 2
 95 647 156 710 279 710 c 2
 568 710 l 1
 568 651 l 1xf8
 318 415 l 1
 507 413 609 341 609 207 c 0
 609 76 510 0 364 0 c 2
 230 0 l 1
 230 48 l 1
 364 48 l 2
 479 48 557 105 557 206 c 0xf4
 557 314 477 370 314 370 c 2
 257 370 l 1
 257 417 l 1
 511 662 l 1
 279 662 l 2
 185 662 145 620 145 521 c 2
 145 0 l 1
 95 0 l 1xf8
EndSplineSet
EndChar

StartChar: T
Encoding: 84 84 99
Width: 547
GlyphClass: 2
Flags: MW
HStem: 0 21G<248 248 248 298> 662 48<13 248 13 533 298 298 298 533>
VStem: 248 50<0 662 0 662>
AnchorPoint: "Anchor-3" 273 710 basechar 0
AnchorPoint: "Anchor-1" 273 348 basechar 0
AnchorPoint: "Anchor-0" 273 0 basechar 0
LayerCount: 2
Fore
SplineSet
248 0 m 1
 248 662 l 1
 13 662 l 1
 13 710 l 1
 533 710 l 1
 533 662 l 1
 298 662 l 1
 298 0 l 1
 248 0 l 1
EndSplineSet
EndChar

StartChar: Tbar
Encoding: 358 358 100
Width: 547
GlyphClass: 2
Flags: MW
HStem: 0 21G<248 248 248 298> 325 46<87 248 87 248 298 460> 662 48<13 248 13 533 298 298 298 533>
VStem: 248 50<0 325 0 325 371 662>
AnchorPoint: "Anchor-3" 273 710 basechar 0
AnchorPoint: "Anchor-1" 273 348 basechar 0
AnchorPoint: "Anchor-0" 273 0 basechar 0
LayerCount: 2
Fore
SplineSet
248 0 m 1
 248 325 l 1
 87 325 l 1
 87 371 l 1
 248 371 l 1
 248 662 l 1
 13 662 l 1
 13 710 l 1
 533 710 l 1
 533 662 l 1
 298 662 l 1
 298 371 l 1
 460 371 l 1
 460 325 l 1
 298 325 l 1
 298 0 l 1
 248 0 l 1
EndSplineSet
EndChar

StartChar: Tcaron
Encoding: 356 356 101
Width: 547
GlyphClass: 2
Flags: MW
HStem: 0 21G<248 248 248 298> 662 48<13 248 13 533 298 298 298 533> 786 31<273 273 273 296 250 273> 786 127<162 296 162 250>
VStem: 248 50<0 662 0 662>
AnchorPoint: "Anchor-3" 273 710 basechar 0
AnchorPoint: "Anchor-1" 273 348 basechar 0
AnchorPoint: "Anchor-0" 273 0 basechar 0
LayerCount: 2
Fore
SplineSet
162 913 m 1xd8
 204 913 l 1xd8
 273 817 l 1xe8
 343 913 l 1
 385 913 l 1xd8
 296 786 l 1
 250 786 l 1xe8
 162 913 l 1xd8
248 0 m 1
 248 662 l 1
 13 662 l 1
 13 710 l 1
 533 710 l 1
 533 662 l 1
 298 662 l 1
 298 0 l 1
 248 0 l 1
EndSplineSet
EndChar

StartChar: uni0162
Encoding: 354 354 102
Width: 547
GlyphClass: 2
Flags: MW
HStem: -209 36<243.5 282.5 243.5 294.5> -75 31<267 267 267 275> 0 21G<248 248 248 254 294 294 294 298> 662 48<13 248 13 533 298 298 298 533>
VStem: 248 50<0 662 0 662> 326 39<-141 -108>
AnchorPoint: "Anchor-3" 273 710 basechar 0
AnchorPoint: "Anchor-1" 273 348 basechar 0
AnchorPoint: "Anchor-0" 273 0 basechar 0
LayerCount: 2
Fore
SplineSet
248 0 m 1
 248 662 l 1
 13 662 l 1
 13 710 l 1
 533 710 l 1
 533 662 l 1
 298 662 l 1
 298 0 l 1
 294 0 l 1xf8
 267 -44 l 1
 330 -46 365 -74 365 -126 c 0
 365 -178 324 -209 265 -209 c 0
 210 -209 174 -183 162 -143 c 1
 195 -130 l 1
 204 -157 224 -173 263 -173 c 0
 302 -173 326 -158 326 -124 c 0xf4
 326 -92 307 -75 243 -75 c 1
 225 -53 l 1
 254 0 l 1
 248 0 l 1
EndSplineSet
Substitution2: "'locl' Localized Forms in Latin lookup 10 subtable" uni021A
Substitution2: "'aalt' Access All Alternates in Latin lookup 0 subtable" uni021A
EndChar

StartChar: uni021A
Encoding: 538 538 103
Width: 547
GlyphClass: 2
Flags: MW
HStem: -110 62<240 268 240 307> 0 21G<248 248 248 298> 662 48<13 248 13 533 298 298 298 533>
VStem: 240 58<-110 662 -48 662> 248 50<0 662 0 662> 248 59<-104 662>
AnchorPoint: "Anchor-3" 273 710 basechar 0
AnchorPoint: "Anchor-1" 273 348 basechar 0
AnchorPoint: "Anchor-0" 273 -193 basechar 0
LayerCount: 2
Fore
SplineSet
248 0 m 1xe8
 248 662 l 1
 13 662 l 1
 13 710 l 1
 533 710 l 1
 533 662 l 1
 298 662 l 1
 298 0 l 1
 248 0 l 1xe8
226 -193 m 1
 268 -110 l 1
 240 -110 l 1
 240 -48 l 1xf0
 307 -48 l 1
 307 -104 l 1xe4
 260 -193 l 1
 226 -193 l 1
EndSplineSet
EndChar

StartChar: U
Encoding: 85 85 104
Width: 671
GlyphClass: 2
Flags: MW
HStem: -16 49<270 401.5 270 416.5> 691 20G<80 130 130 130 541 591 591 591>
VStem: 80 50<248 711> 541 50<248 711>
AnchorPoint: "Anchor-3" 336 710 basechar 0
AnchorPoint: "Anchor-2" 443 2 basechar 0
AnchorPoint: "Anchor-0" 336 0 basechar 0
LayerCount: 2
Fore
SplineSet
336 -16 m 0
 174 -16 80 81 80 248 c 2
 80 711 l 1
 130 711 l 1
 130 248 l 2
 130 110 204 33 336 33 c 0
 467 33 541 110 541 248 c 2
 541 711 l 1
 591 711 l 1
 591 248 l 2
 591 81 497 -16 336 -16 c 0
EndSplineSet
EndChar

StartChar: Uacute
Encoding: 218 218 105
Width: 671
GlyphClass: 2
Flags: MW
HStem: -16 49<270 401.5 270 416.5> 691 20G<80 130 130 130 541 591 591 591> 786 120<314 438 314 438>
VStem: 80 50<248 711> 541 50<248 711>
AnchorPoint: "Anchor-3" 336 710 basechar 0
AnchorPoint: "Anchor-2" 443 2 basechar 0
AnchorPoint: "Anchor-0" 336 0 basechar 0
LayerCount: 2
Fore
SplineSet
314 786 m 1
 384 906 l 1
 438 906 l 1
 355 786 l 1
 314 786 l 1
336 -16 m 0
 174 -16 80 81 80 248 c 2
 80 711 l 1
 130 711 l 1
 130 248 l 2
 130 110 204 33 336 33 c 0
 467 33 541 110 541 248 c 2
 541 711 l 1
 591 711 l 1
 591 248 l 2
 591 81 497 -16 336 -16 c 0
EndSplineSet
EndChar

StartChar: Ubreve
Encoding: 364 364 106
Width: 671
GlyphClass: 2
Flags: MW
HStem: -16 49<270 401.5 270 416.5> 691 20G<80 130 130 130 541 591 591 591> 793 39<311 361 311 373>
VStem: 80 50<248 711> 541 50<248 711>
AnchorPoint: "Anchor-3" 336 710 basechar 0
AnchorPoint: "Anchor-2" 443 2 basechar 0
AnchorPoint: "Anchor-0" 336 0 basechar 0
LayerCount: 2
Fore
SplineSet
336 793 m 0
 262 793 214 840 206 913 c 1
 243 913 l 1
 250 859 286 832 336 832 c 0
 386 832 421 859 428 913 c 1
 465 913 l 1
 457 840 410 793 336 793 c 0
336 -16 m 0
 174 -16 80 81 80 248 c 2
 80 711 l 1
 130 711 l 1
 130 248 l 2
 130 110 204 33 336 33 c 0
 467 33 541 110 541 248 c 2
 541 711 l 1
 591 711 l 1
 591 248 l 2
 591 81 497 -16 336 -16 c 0
EndSplineSet
EndChar

StartChar: Ucircumflex
Encoding: 219 219 107
Width: 671
GlyphClass: 2
Flags: MW
HStem: -16 49<270 401.5 270 416.5> 691 20G<80 130 130 130 541 591 591 591> 786 127<225 359 225 359 313 406 313 448> 882 31<336 336>
VStem: 80 50<248 711> 541 50<248 711>
AnchorPoint: "Anchor-3" 336 710 basechar 0
AnchorPoint: "Anchor-2" 443 2 basechar 0
AnchorPoint: "Anchor-0" 336 0 basechar 0
LayerCount: 2
Fore
SplineSet
225 786 m 1xec
 313 913 l 1
 359 913 l 1xdc
 448 786 l 1
 406 786 l 1xec
 336 882 l 1xdc
 267 786 l 1
 225 786 l 1xec
336 -16 m 0
 174 -16 80 81 80 248 c 2
 80 711 l 1
 130 711 l 1
 130 248 l 2
 130 110 204 33 336 33 c 0
 467 33 541 110 541 248 c 2
 541 711 l 1
 591 711 l 1
 591 248 l 2
 591 81 497 -16 336 -16 c 0
EndSplineSet
EndChar

StartChar: Udieresis
Encoding: 220 220 108
Width: 671
GlyphClass: 2
Flags: MW
HStem: -16 49<270 401.5 270 416.5> 691 20G<80 130 130 130 541 591 591 591> 803 79<238 290 238 290 381 433>
VStem: 80 50<248 711> 238 52<803 882 803 882> 381 52<803 882 803 882> 541 50<248 711>
AnchorPoint: "Anchor-3" 336 710 basechar 0
AnchorPoint: "Anchor-2" 443 2 basechar 0
AnchorPoint: "Anchor-0" 336 0 basechar 0
LayerCount: 2
Fore
SplineSet
238 803 m 1
 238 882 l 1
 290 882 l 1
 290 803 l 1
 238 803 l 1
381 803 m 1
 381 882 l 1
 433 882 l 1
 433 803 l 1
 381 803 l 1
336 -16 m 0
 174 -16 80 81 80 248 c 2
 80 711 l 1
 130 711 l 1
 130 248 l 2
 130 110 204 33 336 33 c 0
 467 33 541 110 541 248 c 2
 541 711 l 1
 591 711 l 1
 591 248 l 2
 591 81 497 -16 336 -16 c 0
EndSplineSet
Substitution2: "'ss08' Style Set 8 in Latin lookup 41 subtable" Udieresis.ss08
Substitution2: "'aalt' Access All Alternates in Latin lookup 0 subtable" Udieresis.ss08
EndChar

StartChar: Ugrave
Encoding: 217 217 109
Width: 671
GlyphClass: 2
Flags: MW
HStem: -16 49<270 401.5 270 416.5> 691 20G<80 130 130 130 541 591 591 591> 793 120<233 317 233 357>
VStem: 80 50<248 711> 541 50<248 711>
AnchorPoint: "Anchor-3" 336 710 basechar 0
AnchorPoint: "Anchor-2" 443 2 basechar 0
AnchorPoint: "Anchor-0" 336 0 basechar 0
LayerCount: 2
Fore
SplineSet
317 793 m 1
 233 913 l 1
 287 913 l 1
 357 793 l 1
 317 793 l 1
336 -16 m 0
 174 -16 80 81 80 248 c 2
 80 711 l 1
 130 711 l 1
 130 248 l 2
 130 110 204 33 336 33 c 0
 467 33 541 110 541 248 c 2
 541 711 l 1
 591 711 l 1
 591 248 l 2
 591 81 497 -16 336 -16 c 0
EndSplineSet
EndChar

StartChar: Uhungarumlaut
Encoding: 368 368 110
Width: 671
GlyphClass: 2
Flags: MW
HStem: -16 49<270 401.5 270 416.5> 691 20G<80 130 130 130 541 591 591 591> 786 120<261 385 261 385 367 385 331 408 367 367>
VStem: 80 50<248 711> 541 50<248 711>
AnchorPoint: "Anchor-3" 336 710 basechar 0
AnchorPoint: "Anchor-2" 443 2 basechar 0
AnchorPoint: "Anchor-0" 336 0 basechar 0
LayerCount: 2
Fore
SplineSet
261 786 m 1
 331 906 l 1
 385 906 l 1
 302 786 l 1
 261 786 l 1
367 786 m 1
 437 906 l 1
 491 906 l 1
 408 786 l 1
 367 786 l 1
336 -16 m 0
 174 -16 80 81 80 248 c 2
 80 711 l 1
 130 711 l 1
 130 248 l 2
 130 110 204 33 336 33 c 0
 467 33 541 110 541 248 c 2
 541 711 l 1
 591 711 l 1
 591 248 l 2
 591 81 497 -16 336 -16 c 0
EndSplineSet
EndChar

StartChar: Umacron
Encoding: 362 362 111
Width: 671
GlyphClass: 2
Flags: MW
HStem: -16 49<270 401.5 270 416.5> 691 20G<80 130 130 130 541 591 591 591> 818 42<208 463 208 463>
VStem: 80 50<248 711> 541 50<248 711>
AnchorPoint: "Anchor-3" 336 710 basechar 0
AnchorPoint: "Anchor-2" 443 2 basechar 0
AnchorPoint: "Anchor-0" 336 0 basechar 0
LayerCount: 2
Fore
SplineSet
208 818 m 1
 208 860 l 1
 463 860 l 1
 463 818 l 1
 208 818 l 1
336 -16 m 0
 174 -16 80 81 80 248 c 2
 80 711 l 1
 130 711 l 1
 130 248 l 2
 130 110 204 33 336 33 c 0
 467 33 541 110 541 248 c 2
 541 711 l 1
 591 711 l 1
 591 248 l 2
 591 81 497 -16 336 -16 c 0
EndSplineSet
EndChar

StartChar: Uogonek
Encoding: 370 370 112
Width: 671
GlyphClass: 2
Flags: MW
HStem: -196 40<407 427 407 427.5> -16 49<270 346> 691 20G<80 130 130 130 541 591 591 591>
VStem: 80 50<248 711> 335 46<-136 -116> 541 50<248 711>
AnchorPoint: "Anchor-3" 336 710 basechar 0
AnchorPoint: "Anchor-2" 443 2 basechar 0
AnchorPoint: "Anchor-0" 336 0 basechar 0
LayerCount: 2
Fore
SplineSet
336 -16 m 0
 174 -16 80 81 80 248 c 2
 80 711 l 1
 130 711 l 1
 130 248 l 2
 130 110 204 33 336 33 c 0
 467 33 541 110 541 248 c 2
 541 711 l 1
 591 711 l 1
 591 248 l 2
 591 123 538 37 443 2 c 1
 414 -41 l 2
 392 -73 381 -97 381 -124 c 0
 381 -148 397 -156 417 -156 c 0
 437 -156 454 -151 466 -142 c 1
 483 -175 l 1
 466 -188 442 -196 413 -196 c 0
 368 -196 335 -178 335 -133 c 0
 335 -99 360 -61 386 -23 c 2
 394 -11 l 1
 376 -14 356 -16 336 -16 c 0
EndSplineSet
EndChar

StartChar: Uring
Encoding: 366 366 113
Width: 671
GlyphClass: 2
Flags: MW
HStem: -16 49<270 401.5 270 416.5> 691 20G<80 130 130 130 541 591 591 591> 767 33<322.5 349 322.5 358.5> 889 34<322.5 349>
VStem: 80 50<248 711> 257 34<831.5 858 831.5 867> 380 34<831.5 858> 541 50<248 711>
AnchorPoint: "Anchor-3" 336 710 basechar 0
AnchorPoint: "Anchor-2" 443 2 basechar 0
AnchorPoint: "Anchor-0" 336 0 basechar 0
LayerCount: 2
Fore
SplineSet
336 767 m 0
 290 767 257 799 257 845 c 0
 257 889 290 923 336 923 c 0
 380 923 414 889 414 845 c 0
 414 800 381 767 336 767 c 0
336 800 m 0
 362 800 380 818 380 845 c 0
 380 871 362 889 336 889 c 0
 309 889 291 871 291 845 c 0
 291 818 309 800 336 800 c 0
336 -16 m 0
 174 -16 80 81 80 248 c 2
 80 711 l 1
 130 711 l 1
 130 248 l 2
 130 110 204 33 336 33 c 0
 467 33 541 110 541 248 c 2
 541 711 l 1
 591 711 l 1
 591 248 l 2
 591 81 497 -16 336 -16 c 0
EndSplineSet
EndChar

StartChar: Utilde
Encoding: 360 360 114
Width: 671
GlyphClass: 2
Flags: MW
HStem: -16 49<270 401.5 270 416.5> 691 20G<80 130 130 130 541 591 591 591> 803 35<385 406 385 415.5> 861 35<259 284>
VStem: 80 50<248 711> 190 35<798 798> 437 34<905 905> 541 50<248 711>
AnchorPoint: "Anchor-3" 336 710 basechar 0
AnchorPoint: "Anchor-2" 443 2 basechar 0
AnchorPoint: "Anchor-0" 336 0 basechar 0
LayerCount: 2
Fore
SplineSet
392 803 m 0
 365 803 346 814 326 834 c 0
 308 852 295 861 273 861 c 0
 245 861 227 843 225 798 c 1
 190 798 l 1
 194 861 227 896 273 896 c 0xdf
 305 896 325 882 346 862 c 0
 365 844 377 838 393 838 c 0
 419 838 433 855 437 905 c 1
 471 905 l 1
 467 841 439 803 392 803 c 0
336 -16 m 0
 174 -16 80 81 80 248 c 2
 80 711 l 1
 130 711 l 1
 130 248 l 2
 130 110 204 33 336 33 c 0
 467 33 541 110 541 248 c 2
 541 711 l 1
 591 711 l 1
 591 248 l 2
 591 81 497 -16 336 -16 c 0
EndSplineSet
EndChar

StartChar: V
Encoding: 86 86 115
Width: 650
GlyphClass: 2
Flags: MW
HStem: 0 21G<294 294 294 356> 0 54<294 325 325 325 325 356> 690 20G<23 77 77 77 573 628 628 628>
VStem: 23 605<710 710>
AnchorPoint: "Anchor-3" 325 710 basechar 0
AnchorPoint: "Anchor-0" 325 0 basechar 0
LayerCount: 2
Fore
SplineSet
294 0 m 1xb0
 23 710 l 1
 77 710 l 1
 325 54 l 1x70
 573 710 l 1
 628 710 l 1
 356 0 l 1
 294 0 l 1xb0
EndSplineSet
EndChar

StartChar: W
Encoding: 87 87 116
Width: 924
GlyphClass: 2
Flags: MW
HStem: 0 61<236 269 269 269 269 303> 634 76<462 462>
VStem: 41 843<710 710>
AnchorPoint: "Anchor-3" 462 710 basechar 0
AnchorPoint: "Anchor-0" 462 0 basechar 0
LayerCount: 2
Fore
SplineSet
236 0 m 1
 41 710 l 1
 94 710 l 1
 269 61 l 1
 431 710 l 1
 493 710 l 1
 656 61 l 1
 830 710 l 1
 884 710 l 1
 689 0 l 1
 621 0 l 1
 462 634 l 1
 303 0 l 1
 236 0 l 1
EndSplineSet
EndChar

StartChar: Wacute
Encoding: 7810 7810 117
Width: 924
GlyphClass: 2
Flags: MW
HStem: 0 61<236 269 269 269 269 303> 634 76<462 462> 786 120<440 564 440 564>
VStem: 41 843<710 710>
AnchorPoint: "Anchor-3" 462 710 basechar 0
AnchorPoint: "Anchor-0" 462 0 basechar 0
LayerCount: 2
Fore
SplineSet
440 786 m 1
 510 906 l 1
 564 906 l 1
 481 786 l 1
 440 786 l 1
236 0 m 1
 41 710 l 1
 94 710 l 1
 269 61 l 1
 431 710 l 1
 493 710 l 1
 656 61 l 1
 830 710 l 1
 884 710 l 1
 689 0 l 1
 621 0 l 1
 462 634 l 1
 303 0 l 1
 236 0 l 1
EndSplineSet
EndChar

StartChar: Wcircumflex
Encoding: 372 372 118
Width: 924
GlyphClass: 2
Flags: MW
HStem: 0 61<236 269 269 269 269 303> 634 76<462 462> 690 20G<41 94 94 94 431 493 493 493 830 884 884 884> 786 127<351 486 351 486 440 532 440 574> 882 31<463 463>
VStem: 41 843<710 710>
AnchorPoint: "Anchor-3" 462 710 basechar 0
AnchorPoint: "Anchor-0" 462 0 basechar 0
LayerCount: 2
Fore
SplineSet
351 786 m 1xb4
 440 913 l 1
 486 913 l 1xcc
 574 786 l 1
 532 786 l 1xb4
 463 882 l 1xac
 393 786 l 1
 351 786 l 1xb4
236 0 m 1
 41 710 l 1
 94 710 l 1
 269 61 l 1
 431 710 l 1
 493 710 l 1
 656 61 l 1
 830 710 l 1
 884 710 l 1
 689 0 l 1
 621 0 l 1
 462 634 l 1
 303 0 l 1
 236 0 l 1
EndSplineSet
EndChar

StartChar: Wdieresis
Encoding: 7812 7812 119
Width: 924
GlyphClass: 2
Flags: MW
HStem: 0 61<236 269 269 269 269 303> 634 76<462 462> 803 79<364 416 364 416 508 560>
VStem: 364 52<803 882 803 882> 508 52<803 882 803 882>
AnchorPoint: "Anchor-3" 462 710 basechar 0
AnchorPoint: "Anchor-0" 462 0 basechar 0
LayerCount: 2
Fore
SplineSet
364 803 m 1
 364 882 l 1
 416 882 l 1
 416 803 l 1
 364 803 l 1
508 803 m 1
 508 882 l 1
 560 882 l 1
 560 803 l 1
 508 803 l 1
236 0 m 1
 41 710 l 1
 94 710 l 1
 269 61 l 1
 431 710 l 1
 493 710 l 1
 656 61 l 1
 830 710 l 1
 884 710 l 1
 689 0 l 1
 621 0 l 1
 462 634 l 1
 303 0 l 1
 236 0 l 1
EndSplineSet
Substitution2: "'ss08' Style Set 8 in Latin lookup 41 subtable" Wdieresis.ss08
Substitution2: "'aalt' Access All Alternates in Latin lookup 0 subtable" Wdieresis.ss08
EndChar

StartChar: Wgrave
Encoding: 7808 7808 120
Width: 924
GlyphClass: 2
Flags: MW
HStem: 0 61<236 269 269 269 269 303> 634 76<462 462> 793 120<360 443 360 484>
VStem: 41 843<710 710>
AnchorPoint: "Anchor-3" 462 710 basechar 0
AnchorPoint: "Anchor-0" 462 0 basechar 0
LayerCount: 2
Fore
SplineSet
443 793 m 1
 360 913 l 1
 414 913 l 1
 484 793 l 1
 443 793 l 1
236 0 m 1
 41 710 l 1
 94 710 l 1
 269 61 l 1
 431 710 l 1
 493 710 l 1
 656 61 l 1
 830 710 l 1
 884 710 l 1
 689 0 l 1
 621 0 l 1
 462 634 l 1
 303 0 l 1
 236 0 l 1
EndSplineSet
EndChar

StartChar: X
Encoding: 88 88 121
Width: 601
GlyphClass: 2
Flags: MW
HStem: 0 21G<18 18 18 78 522 522 522 582> 690 20G<24 84 84 84 517 576 576 576>
VStem: 18 564<0 0>
AnchorPoint: "Anchor-3" 300 710 basechar 0
AnchorPoint: "Anchor-0" 300 0 basechar 0
LayerCount: 2
Fore
SplineSet
18 0 m 1
 268 357 l 1
 24 710 l 1
 84 710 l 1
 300 396 l 1
 517 710 l 1
 576 710 l 1
 332 357 l 1
 582 0 l 1
 522 0 l 1
 301 318 l 1
 78 0 l 1
 18 0 l 1
EndSplineSet
EndChar

StartChar: Y
Encoding: 89 89 122
Width: 553
GlyphClass: 2
Flags: MW
HStem: 0 21G<252 252 252 302> 690 20G<-3 56 56 56 497 556 556 556>
VStem: 252 50<0 290 0 290>
AnchorPoint: "Anchor-3" 277 710 basechar 0
AnchorPoint: "Anchor-0" 277 0 basechar 0
LayerCount: 2
Fore
SplineSet
252 0 m 1
 252 290 l 1
 -3 710 l 1
 56 710 l 1
 277 339 l 1
 497 710 l 1
 556 710 l 1
 302 290 l 1
 302 0 l 1
 252 0 l 1
EndSplineSet
EndChar

StartChar: Yacute
Encoding: 221 221 123
Width: 553
GlyphClass: 2
Flags: MW
HStem: 0 21G<252 252 252 302> 690 20G<-3 56 56 56 497 556 556 556> 786 120<255 379 255 379>
VStem: 252 50<0 290 0 290>
AnchorPoint: "Anchor-3" 277 710 basechar 0
AnchorPoint: "Anchor-0" 277 0 basechar 0
LayerCount: 2
Fore
SplineSet
255 786 m 1
 325 906 l 1
 379 906 l 1
 296 786 l 1
 255 786 l 1
252 0 m 1
 252 290 l 1
 -3 710 l 1
 56 710 l 1
 277 339 l 1
 497 710 l 1
 556 710 l 1
 302 290 l 1
 302 0 l 1
 252 0 l 1
EndSplineSet
EndChar

StartChar: Ycircumflex
Encoding: 374 374 124
Width: 553
GlyphClass: 2
Flags: MW
HStem: 0 21G<252 252 252 302> 690 20G<-3 56 56 56 497 556 556 556> 786 127<166 300 166 300 254 347 254 389> 882 31<277 277>
VStem: 252 50<0 290 0 290>
AnchorPoint: "Anchor-3" 277 710 basechar 0
AnchorPoint: "Anchor-0" 277 0 basechar 0
LayerCount: 2
Fore
SplineSet
166 786 m 1xe8
 254 913 l 1
 300 913 l 1xd8
 389 786 l 1
 347 786 l 1xe8
 277 882 l 1xd8
 208 786 l 1
 166 786 l 1xe8
252 0 m 1
 252 290 l 1
 -3 710 l 1
 56 710 l 1
 277 339 l 1
 497 710 l 1
 556 710 l 1
 302 290 l 1
 302 0 l 1
 252 0 l 1
EndSplineSet
EndChar

StartChar: Ydieresis
Encoding: 376 376 125
Width: 553
GlyphClass: 2
Flags: MW
HStem: 0 21G<252 252 252 302> 690 20G<-3 56 56 56 497 556 556 556> 803 79<179 231 179 231 322 374>
VStem: 179 52<803 882 803 882> 252 50<0 290 0 290> 322 52<803 882 803 882>
AnchorPoint: "Anchor-3" 277 710 basechar 0
AnchorPoint: "Anchor-0" 277 0 basechar 0
LayerCount: 2
Fore
SplineSet
179 803 m 1
 179 882 l 1
 231 882 l 1
 231 803 l 1
 179 803 l 1
322 803 m 1
 322 882 l 1
 374 882 l 1
 374 803 l 1
 322 803 l 1
252 0 m 1xe8
 252 290 l 1
 -3 710 l 1
 56 710 l 1
 277 339 l 1
 497 710 l 1
 556 710 l 1
 302 290 l 1
 302 0 l 1
 252 0 l 1xe8
EndSplineSet
Substitution2: "'ss08' Style Set 8 in Latin lookup 41 subtable" Ydieresis.ss08
Substitution2: "'aalt' Access All Alternates in Latin lookup 0 subtable" Ydieresis.ss08
EndChar

StartChar: Ygrave
Encoding: 7922 7922 126
Width: 553
GlyphClass: 2
Flags: MW
HStem: 0 21G<252 252 252 302> 690 20G<-3 56 56 56 497 556 556 556> 793 120<174 258 174 298>
VStem: 252 50<0 290 0 290>
AnchorPoint: "Anchor-3" 277 710 basechar 0
AnchorPoint: "Anchor-0" 277 0 basechar 0
LayerCount: 2
Fore
SplineSet
258 793 m 1
 174 913 l 1
 228 913 l 1
 298 793 l 1
 258 793 l 1
252 0 m 1
 252 290 l 1
 -3 710 l 1
 56 710 l 1
 277 339 l 1
 497 710 l 1
 556 710 l 1
 302 290 l 1
 302 0 l 1
 252 0 l 1
EndSplineSet
EndChar

StartChar: uni1EF8
Encoding: 7928 7928 127
Width: 553
GlyphClass: 2
Flags: MW
HStem: 0 21G<252 252 252 302> 690 20G<-3 56 56 56 497 556 556 556> 803 35<326 347 326 356.5> 861 35<200 225>
VStem: 131 35<798 798> 252 50<0 290 0 290> 378 34<905 905>
AnchorPoint: "Anchor-3" 277 710 basechar 0
AnchorPoint: "Anchor-0" 277 0 basechar 0
LayerCount: 2
Fore
SplineSet
333 803 m 0
 306 803 287 814 267 834 c 0
 249 852 236 861 214 861 c 0
 186 861 168 843 166 798 c 1
 131 798 l 1
 135 861 168 896 214 896 c 0xde
 246 896 266 882 287 862 c 0
 306 844 318 838 334 838 c 0
 360 838 374 855 378 905 c 1
 412 905 l 1
 408 841 380 803 333 803 c 0
252 0 m 1
 252 290 l 1
 -3 710 l 1
 56 710 l 1
 277 339 l 1
 497 710 l 1
 556 710 l 1
 302 290 l 1
 302 0 l 1
 252 0 l 1
EndSplineSet
EndChar

StartChar: Z
Encoding: 90 90 128
Width: 530
GlyphClass: 2
Flags: MW
HStem: 0 48<85 501 85 501> 662 48<42 435 42 491>
VStem: 29 56<48 48 48 49 48 49> 435 56<662 662>
AnchorPoint: "Anchor-3" 271 710 basechar 0
AnchorPoint: "Anchor-0" 271 0 basechar 0
LayerCount: 2
Fore
SplineSet
29 0 m 1
 29 49 l 1
 435 662 l 1
 42 662 l 1
 42 710 l 1
 491 710 l 1
 491 661 l 1
 85 48 l 1
 501 48 l 1
 501 0 l 1
 29 0 l 1
EndSplineSet
EndChar

StartChar: Zacute
Encoding: 377 377 129
Width: 530
GlyphClass: 2
Flags: MW
HStem: 0 48<85 501 85 501> 662 48<42 435 42 491> 786 120<249 373 249 373>
VStem: 29 56<48 48 48 49 48 49> 435 56<662 662>
AnchorPoint: "Anchor-3" 271 710 basechar 0
AnchorPoint: "Anchor-0" 271 0 basechar 0
LayerCount: 2
Fore
SplineSet
249 786 m 1
 319 906 l 1
 373 906 l 1
 290 786 l 1
 249 786 l 1
29 0 m 1
 29 49 l 1
 435 662 l 1
 42 662 l 1
 42 710 l 1
 491 710 l 1
 491 661 l 1
 85 48 l 1
 501 48 l 1
 501 0 l 1
 29 0 l 1
EndSplineSet
EndChar

StartChar: Zcaron
Encoding: 381 381 130
Width: 530
GlyphClass: 2
Flags: MW
HStem: 0 48<85 501 85 501> 662 48<42 435 42 491> 786 31<271 271 271 294 248 271> 786 127<159 294 159 248>
VStem: 29 56<48 48 48 49 48 49> 435 56<662 662>
AnchorPoint: "Anchor-3" 271 710 basechar 0
AnchorPoint: "Anchor-0" 271 0 basechar 0
LayerCount: 2
Fore
SplineSet
159 913 m 1xdc
 201 913 l 1xdc
 271 817 l 1xec
 340 913 l 1
 382 913 l 1xdc
 294 786 l 1
 248 786 l 1xec
 159 913 l 1xdc
29 0 m 1
 29 49 l 1
 435 662 l 1
 42 662 l 1
 42 710 l 1
 491 710 l 1
 491 661 l 1
 85 48 l 1
 501 48 l 1
 501 0 l 1
 29 0 l 1
EndSplineSet
EndChar

StartChar: Zdotaccent
Encoding: 379 379 131
Width: 530
GlyphClass: 2
Flags: MW
HStem: 0 48<85 501 85 501> 662 48<42 435 42 491> 803 79<245 297 245 297>
VStem: 29 56<48 48 48 49 48 49> 245 52<803 882 803 882> 435 56<662 662>
AnchorPoint: "Anchor-3" 271 710 basechar 0
AnchorPoint: "Anchor-0" 271 0 basechar 0
LayerCount: 2
Fore
SplineSet
245 803 m 1
 245 882 l 1
 297 882 l 1
 297 803 l 1
 245 803 l 1
29 0 m 1
 29 49 l 1
 435 662 l 1
 42 662 l 1
 42 710 l 1
 491 710 l 1
 491 661 l 1
 85 48 l 1
 501 48 l 1
 501 0 l 1
 29 0 l 1
EndSplineSet
Substitution2: "'ss08' Style Set 8 in Latin lookup 41 subtable" Zdotaccent.ss08
Substitution2: "'aalt' Access All Alternates in Latin lookup 0 subtable" Zdotaccent.ss08
EndChar

StartChar: uniA78B
Encoding: 42891 42891 132
Width: 148
GlyphClass: 1
Flags: MW
HStem: 690 20G<48 100 100 100>
VStem: 48 52<630 710 630 710>
LayerCount: 2
Fore
SplineSet
55 363 m 1
 48 630 l 1
 48 710 l 1
 100 710 l 1
 100 630 l 1
 93 363 l 1
 55 363 l 1
EndSplineSet
EndChar

StartChar: uni013B.loclMAH
Encoding: 65538 -1 133
Width: 560
GlyphClass: 2
Flags: MW
HStem: -110 62<273 301 273 340> 0 48<145 518 145 518> 690 20G<95 145 145 145>
VStem: 95 50<48 710 48 710 48 710> 273 67<-104 -48 -104 -48 -104 -48>
AnchorPoint: "Anchor-4" 353 530 basechar 0
AnchorPoint: "Anchor-3" 120 710 basechar 0
AnchorPoint: "Anchor-1" 151 380 basechar 0
AnchorPoint: "Anchor-0" 306 -193 basechar 0
LayerCount: 2
Fore
SplineSet
95 0 m 1
 95 710 l 1
 145 710 l 1
 145 48 l 1
 518 48 l 1
 518 0 l 1
 95 0 l 1
259 -193 m 1
 301 -110 l 1
 273 -110 l 1
 273 -48 l 1
 340 -48 l 1
 340 -104 l 1
 293 -193 l 1
 259 -193 l 1
EndSplineSet
EndChar

StartChar: uni0145.loclMAH
Encoding: 65539 -1 134
Width: 722
GlyphClass: 2
Flags: MW
HStem: -110 62<327 355 327 394> 0 49<553 577 577 577 577 627> 657 53<145 145>
VStem: 95 50<0 657 0 710> 327 67<-104 -48 -104 -48 -104 -48> 577 50<49 710 0 710>
AnchorPoint: "Anchor-3" 366 710 basechar 0
AnchorPoint: "Anchor-0" 361 -193 basechar 0
LayerCount: 2
Fore
SplineSet
95 0 m 1
 95 710 l 1
 167 710 l 1
 577 49 l 1
 577 710 l 1
 627 710 l 1
 627 0 l 1
 553 0 l 1
 145 657 l 1
 145 0 l 1
 95 0 l 1
313 -193 m 1
 355 -110 l 1
 327 -110 l 1
 327 -48 l 1
 394 -48 l 1
 394 -104 l 1
 347 -193 l 1
 313 -193 l 1
EndSplineSet
EndChar

StartChar: R.ss04
Encoding: 65540 -1 135
Width: 645
GlyphClass: 2
Flags: MW
HStem: 0 21G<95 95 95 145 533 533 533 587> 303 48<145 338 145 338 338 359> 662 48<145 338 145 145>
VStem: 95 50<0 303 351 662> 529 52<453.5 553>
AnchorPoint: "Anchor-3" 323 710 basechar 0
AnchorPoint: "Anchor-0" 323 0 basechar 0
LayerCount: 2
Fore
SplineSet
95 0 m 1
 95 710 l 1
 338 710 l 2
 488 710 581 631 581 502 c 0
 581 401 518 330 410 310 c 1
 587 0 l 1
 533 0 l 1
 359 303 l 1
 353 303 345 303 338 303 c 2
 145 303 l 1
 145 0 l 1
 95 0 l 1
145 351 m 1
 338 351 l 2
 460 351 529 405 529 502 c 0
 529 604 460 662 338 662 c 2
 145 662 l 1
 145 351 l 1
EndSplineSet
EndChar

StartChar: Racute.ss04
Encoding: 65541 -1 136
Width: 645
GlyphClass: 2
Flags: MW
HStem: 0 21G<95 95 95 145 533 533 533 587> 303 48<145 338 145 338 338 359> 662 48<145 338 145 145> 786 120<301 425 301 425>
VStem: 95 50<0 303 351 662> 529 52<453.5 553>
AnchorPoint: "Anchor-3" 323 710 basechar 0
AnchorPoint: "Anchor-0" 323 0 basechar 0
LayerCount: 2
Fore
SplineSet
301 786 m 1
 371 906 l 1
 425 906 l 1
 342 786 l 1
 301 786 l 1
95 0 m 1
 95 710 l 1
 338 710 l 2
 488 710 581 631 581 502 c 0
 581 401 518 330 410 310 c 1
 587 0 l 1
 533 0 l 1
 359 303 l 1
 353 303 345 303 338 303 c 2
 145 303 l 1
 145 0 l 1
 95 0 l 1
145 351 m 1
 338 351 l 2
 460 351 529 405 529 502 c 0
 529 604 460 662 338 662 c 2
 145 662 l 1
 145 351 l 1
EndSplineSet
EndChar

StartChar: Rcaron.ss04
Encoding: 65542 -1 137
Width: 645
GlyphClass: 2
Flags: MW
HStem: 0 21G<95 95 95 145 533 533 533 587> 303 48<145 338 145 338 338 359> 662 48<145 338 145 145> 786 31<323 323 323 346 300 323> 786 127<211 346 211 300>
VStem: 95 50<0 303 351 662> 529 52<453.5 553>
AnchorPoint: "Anchor-3" 323 710 basechar 0
AnchorPoint: "Anchor-0" 323 0 basechar 0
LayerCount: 2
Fore
SplineSet
211 913 m 1xee
 253 913 l 1xee
 323 817 l 1xf6
 392 913 l 1
 434 913 l 1xee
 346 786 l 1
 300 786 l 1xf6
 211 913 l 1xee
95 0 m 1
 95 710 l 1
 338 710 l 2
 488 710 581 631 581 502 c 0
 581 401 518 330 410 310 c 1
 587 0 l 1
 533 0 l 1
 359 303 l 1
 353 303 345 303 338 303 c 2
 145 303 l 1
 145 0 l 1
 95 0 l 1
145 351 m 1
 338 351 l 2
 460 351 529 405 529 502 c 0
 529 604 460 662 338 662 c 2
 145 662 l 1
 145 351 l 1
EndSplineSet
EndChar

StartChar: uni0156.ss04
Encoding: 65543 -1 138
Width: 645
GlyphClass: 2
Flags: MW
HStem: -110 62<289 317 289 356> 0 21G<95 95 95 145 533 533 533 587> 303 48<145 338 145 338 338 359> 662 48<145 338 145 145>
VStem: 95 50<0 303 351 662> 289 67<-104 -48 -104 -48 -104 -48> 529 52<453.5 553>
AnchorPoint: "Anchor-3" 323 710 basechar 0
AnchorPoint: "Anchor-0" 323 -193 basechar 0
LayerCount: 2
Fore
SplineSet
95 0 m 1
 95 710 l 1
 338 710 l 2
 488 710 581 631 581 502 c 0
 581 401 518 330 410 310 c 1
 587 0 l 1
 533 0 l 1
 359 303 l 1
 353 303 345 303 338 303 c 2
 145 303 l 1
 145 0 l 1
 95 0 l 1
145 351 m 1
 338 351 l 2
 460 351 529 405 529 502 c 0
 529 604 460 662 338 662 c 2
 145 662 l 1
 145 351 l 1
275 -193 m 1
 317 -110 l 1
 289 -110 l 1
 289 -48 l 1
 356 -48 l 1
 356 -104 l 1
 309 -193 l 1
 275 -193 l 1
EndSplineSet
EndChar

StartChar: I.ss05
Encoding: 65544 -1 139
Width: 355
GlyphClass: 2
Flags: MW
HStem: 0 48<48 153 48 153 203 307> 662 48<54 153 54 301 203 203 203 301>
VStem: 48 155<0 662 48 662> 153 50<48 662 48 662> 153 154<0 662>
AnchorPoint: "Anchor-3" 178 710 basechar 0
AnchorPoint: "Anchor-2" 307 0 basechar 0
AnchorPoint: "Anchor-0" 178 0 basechar 0
LayerCount: 2
Fore
SplineSet
48 0 m 1xe0
 48 48 l 1xe0
 153 48 l 1
 153 662 l 1
 54 662 l 1
 54 710 l 1
 301 710 l 1
 301 662 l 1
 203 662 l 1
 203 48 l 1xd0
 307 48 l 1
 307 0 l 1xc8
 48 0 l 1xe0
EndSplineSet
EndChar

StartChar: Iacute.ss05
Encoding: 65545 -1 140
Width: 355
GlyphClass: 2
Flags: MW
HStem: 0 48<48 153 48 153 203 307> 662 48<54 153 54 301 203 203 203 301> 786 120<156 280 156 280>
VStem: 48 155<0 662 48 662> 153 50<48 662 48 662> 153 154<0 662>
AnchorPoint: "Anchor-3" 178 710 basechar 0
AnchorPoint: "Anchor-2" 307 0 basechar 0
AnchorPoint: "Anchor-0" 178 0 basechar 0
LayerCount: 2
Fore
SplineSet
156 786 m 1xf0
 226 906 l 1
 280 906 l 1
 197 786 l 1
 156 786 l 1xf0
48 0 m 1
 48 48 l 1xd0
 153 48 l 1
 153 662 l 1
 54 662 l 1
 54 710 l 1
 301 710 l 1
 301 662 l 1
 203 662 l 1
 203 48 l 1xc8
 307 48 l 1
 307 0 l 1xc4
 48 0 l 1
EndSplineSet
EndChar

StartChar: Icircumflex.ss05
Encoding: 65546 -1 141
Width: 355
GlyphClass: 2
Flags: MW
HStem: 0 48<48 153 48 153 203 307> 662 48<54 153 54 301 203 203 203 301> 786 127<67 201 67 201 155 248 155 290> 882 31<178 178>
VStem: 48 155<0 662 48 662> 153 50<48 662 48 662> 153 154<0 662>
AnchorPoint: "Anchor-3" 178 710 basechar 0
AnchorPoint: "Anchor-2" 307 0 basechar 0
AnchorPoint: "Anchor-0" 178 0 basechar 0
LayerCount: 2
Fore
SplineSet
67 786 m 1xe8
 155 913 l 1
 201 913 l 1xd8
 290 786 l 1
 248 786 l 1xe8
 178 882 l 1xd2
 109 786 l 1
 67 786 l 1xe8
48 0 m 1
 48 48 l 1xc8
 153 48 l 1
 153 662 l 1
 54 662 l 1
 54 710 l 1
 301 710 l 1
 301 662 l 1
 203 662 l 1
 203 48 l 1xc4
 307 48 l 1
 307 0 l 1xc2
 48 0 l 1
EndSplineSet
EndChar

StartChar: Idieresis.ss05
Encoding: 65547 -1 142
Width: 355
GlyphClass: 2
Flags: MW
HStem: 0 48<48 153 48 153 203 307> 662 48<54 153 54 301 203 203 203 301> 803 79<80 132 80 132 223 275>
VStem: 48 155<0 662 48 662> 80 52<803 882 803 882> 153 50<48 662 48 662> 153 154<0 662> 223 52<803 882 803 882>
AnchorPoint: "Anchor-3" 178 710 basechar 0
AnchorPoint: "Anchor-2" 307 0 basechar 0
AnchorPoint: "Anchor-0" 178 0 basechar 0
LayerCount: 2
Fore
SplineSet
80 803 m 1xe9
 80 882 l 1
 132 882 l 1
 132 803 l 1
 80 803 l 1xe9
223 803 m 1
 223 882 l 1
 275 882 l 1
 275 803 l 1
 223 803 l 1
48 0 m 1xf0
 48 48 l 1xf0
 153 48 l 1
 153 662 l 1
 54 662 l 1
 54 710 l 1
 301 710 l 1
 301 662 l 1
 203 662 l 1
 203 48 l 1xe4
 307 48 l 1
 307 0 l 1xe2
 48 0 l 1xf0
EndSplineSet
Substitution2: "'ss08' Style Set 8 in Latin lookup 41 subtable" Idieresis.ss05.ss08
Substitution2: "'aalt' Access All Alternates in Latin lookup 0 subtable" Idieresis.ss05.ss08
EndChar

StartChar: Idotaccent.ss05
Encoding: 65548 -1 143
Width: 355
GlyphClass: 2
Flags: MW
HStem: 0 48<48 153 48 153 203 307> 662 48<54 153 54 301 203 203 203 301> 803 79<152 204 152 204>
VStem: 48 155<0 662 48 662> 152 52<803 882 803 882> 153 50<48 662 48 662> 153 154<0 662>
AnchorPoint: "Anchor-3" 178 710 basechar 0
AnchorPoint: "Anchor-2" 307 0 basechar 0
AnchorPoint: "Anchor-0" 178 0 basechar 0
LayerCount: 2
Fore
SplineSet
152 803 m 1xe8
 152 882 l 1
 204 882 l 1
 204 803 l 1
 152 803 l 1xe8
48 0 m 1xf0
 48 48 l 1xf0
 153 48 l 1
 153 662 l 1
 54 662 l 1
 54 710 l 1
 301 710 l 1
 301 662 l 1
 203 662 l 1
 203 48 l 1xe4
 307 48 l 1
 307 0 l 1xe2
 48 0 l 1xf0
EndSplineSet
Substitution2: "'ss08' Style Set 8 in Latin lookup 41 subtable" Idotaccent.ss05.ss08
Substitution2: "'aalt' Access All Alternates in Latin lookup 0 subtable" Idotaccent.ss05.ss08
EndChar

StartChar: Igrave.ss05
Encoding: 65549 -1 144
Width: 355
GlyphClass: 2
Flags: MW
HStem: 0 48<48 153 48 153 203 307> 662 48<54 153 54 301 203 203 203 301> 793 120<75 159 75 199>
VStem: 48 155<0 662 48 662> 153 50<48 662 48 662> 153 154<0 662>
AnchorPoint: "Anchor-3" 178 710 basechar 0
AnchorPoint: "Anchor-2" 307 0 basechar 0
AnchorPoint: "Anchor-0" 178 0 basechar 0
LayerCount: 2
Fore
SplineSet
159 793 m 1xf0
 75 913 l 1
 129 913 l 1
 199 793 l 1
 159 793 l 1xf0
48 0 m 1
 48 48 l 1xd0
 153 48 l 1
 153 662 l 1
 54 662 l 1
 54 710 l 1
 301 710 l 1
 301 662 l 1
 203 662 l 1
 203 48 l 1xc8
 307 48 l 1
 307 0 l 1xc4
 48 0 l 1
EndSplineSet
EndChar

StartChar: Imacron.ss05
Encoding: 65550 -1 145
Width: 355
GlyphClass: 2
Flags: MW
HStem: 0 48<48 153 48 153 203 307> 662 48<54 153 54 301 203 203 203 301> 818 42<50 305 50 305>
VStem: 48 155<0 662 48 662> 153 50<48 662 48 662> 153 154<0 662>
AnchorPoint: "Anchor-3" 178 710 basechar 0
AnchorPoint: "Anchor-2" 307 0 basechar 0
AnchorPoint: "Anchor-0" 178 0 basechar 0
LayerCount: 2
Fore
SplineSet
50 818 m 1xf0
 50 860 l 1
 305 860 l 1
 305 818 l 1
 50 818 l 1xf0
48 0 m 1
 48 48 l 1xf0
 153 48 l 1
 153 662 l 1
 54 662 l 1
 54 710 l 1
 301 710 l 1
 301 662 l 1
 203 662 l 1
 203 48 l 1xe8
 307 48 l 1
 307 0 l 1xe4
 48 0 l 1
EndSplineSet
EndChar

StartChar: Iogonek.ss05
Encoding: 65551 -1 146
Width: 355
GlyphClass: 2
Flags: MW
HStem: -198 40<271 291 271 291.5> 0 48<48 153 48 153 203 267> 662 48<54 153 54 301 203 203 203 301>
VStem: 48 155<0 662 48 662> 153 50<48 662 48 662> 153 154<0 662> 199 46<-137.5 -118>
AnchorPoint: "Anchor-3" 178 710 basechar 0
AnchorPoint: "Anchor-2" 307 0 basechar 0
AnchorPoint: "Anchor-0" 178 0 basechar 0
LayerCount: 2
Fore
SplineSet
48 0 m 1xf0
 48 48 l 1xf0
 153 48 l 1
 153 662 l 1
 54 662 l 1
 54 710 l 1
 301 710 l 1
 301 662 l 1
 203 662 l 1
 203 48 l 1xe8
 307 48 l 1
 307 0 l 1xe4
 278 -43 l 2
 256 -74 245 -99 245 -125 c 0
 245 -150 261 -158 281 -158 c 0
 301 -158 318 -152 330 -143 c 1
 347 -177 l 1
 330 -190 306 -198 277 -198 c 0
 232 -198 199 -179 199 -135 c 0xe2
 199 -101 224 -63 250 -25 c 2
 267 0 l 1
 48 0 l 1xf0
EndSplineSet
EndChar

StartChar: Itilde.ss05
Encoding: 65552 -1 147
Width: 355
GlyphClass: 2
Flags: MW
HStem: 0 48<48 153 48 153 203 307> 662 48<54 153 54 301 203 203 203 301> 803 35<227 248 227 257.5> 861 35<101 126>
VStem: 32 35<798 798> 48 155<0 662 48 662> 153 50<48 662 48 662> 153 154<0 662> 279 34<905 905>
AnchorPoint: "Anchor-3" 178 710 basechar 0
AnchorPoint: "Anchor-2" 307 0 basechar 0
AnchorPoint: "Anchor-0" 178 0 basechar 0
LayerCount: 2
Fore
SplineSet
234 803 m 0xea80
 207 803 188 814 168 834 c 0
 150 852 137 861 115 861 c 0
 87 861 69 843 67 798 c 1
 32 798 l 1
 36 861 69 896 115 896 c 0xda80
 147 896 167 882 188 862 c 0
 207 844 219 838 235 838 c 0
 261 838 275 855 279 905 c 1
 313 905 l 1
 309 841 281 803 234 803 c 0xea80
48 0 m 1xd480
 48 48 l 1xd480
 153 48 l 1
 153 662 l 1
 54 662 l 1
 54 710 l 1
 301 710 l 1
 301 662 l 1
 203 662 l 1
 203 48 l 1xda80
 307 48 l 1
 307 0 l 1xd9
 48 0 l 1xd480
EndSplineSet
EndChar

StartChar: G.ss06
Encoding: 65553 -1 148
Width: 673
GlyphClass: 2
Flags: MW
HStem: -16 49<269 424 269 439> 294 46<358 582 358 630> 677 49<275 419>
VStem: 48 53<257.5 453.5 257.5 468> 582 48<294 294>
AnchorPoint: "Anchor-3" 357 710 basechar 0
AnchorPoint: "Anchor-0" 356 0 basechar 0
LayerCount: 2
Fore
SplineSet
350 -16 m 0
 161 -16 48 131 48 354 c 0
 48 582 165 726 358 726 c 0
 503 726 599 637 628 485 c 1
 576 480 l 1
 553 603 480 677 358 677 c 0
 192 677 101 553 101 354 c 0
 101 161 188 33 350 33 c 0
 498 33 581 141 582 294 c 1
 358 294 l 1
 358 340 l 1
 630 340 l 1
 630 309 l 2
 630 112 528 -16 350 -16 c 0
EndSplineSet
EndChar

StartChar: Gbreve.ss06
Encoding: 65554 -1 149
Width: 673
GlyphClass: 2
Flags: MW
HStem: -16 49<269 424 269 439> 294 46<358 582 358 630> 677 49<275 419> 793 39<332 382 332 394>
VStem: 48 53<257.5 453.5 257.5 468> 582 48<294 294>
AnchorPoint: "Anchor-3" 357 710 basechar 0
AnchorPoint: "Anchor-0" 356 0 basechar 0
LayerCount: 2
Fore
SplineSet
357 793 m 0
 283 793 236 840 228 913 c 1
 264 913 l 1
 272 859 307 832 357 832 c 0
 407 832 442 859 449 913 c 1
 486 913 l 1
 478 840 431 793 357 793 c 0
350 -16 m 0
 161 -16 48 131 48 354 c 0
 48 582 165 726 358 726 c 0
 503 726 599 637 628 485 c 1
 576 480 l 1
 553 603 480 677 358 677 c 0
 192 677 101 553 101 354 c 0
 101 161 188 33 350 33 c 0
 498 33 581 141 582 294 c 1
 358 294 l 1
 358 340 l 1
 630 340 l 1
 630 309 l 2
 630 112 528 -16 350 -16 c 0
EndSplineSet
EndChar

StartChar: Gcircumflex.ss06
Encoding: 65555 -1 150
Width: 673
GlyphClass: 2
Flags: MW
HStem: -16 49<269 424 269 439> 294 46<358 582 358 630> 677 49<275 419> 786 127<246 381 246 381 335 427 335 469> 882 31<358 358>
VStem: 48 53<257.5 453.5 257.5 468> 582 48<294 294>
AnchorPoint: "Anchor-3" 357 710 basechar 0
AnchorPoint: "Anchor-0" 356 0 basechar 0
LayerCount: 2
Fore
SplineSet
246 786 m 1xf6
 335 913 l 1
 381 913 l 1xee
 469 786 l 1
 427 786 l 1xf6
 358 882 l 1xee
 288 786 l 1
 246 786 l 1xf6
350 -16 m 0
 161 -16 48 131 48 354 c 0
 48 582 165 726 358 726 c 0
 503 726 599 637 628 485 c 1
 576 480 l 1
 553 603 480 677 358 677 c 0
 192 677 101 553 101 354 c 0
 101 161 188 33 350 33 c 0
 498 33 581 141 582 294 c 1
 358 294 l 1
 358 340 l 1
 630 340 l 1
 630 309 l 2
 630 112 528 -16 350 -16 c 0
EndSplineSet
EndChar

StartChar: uni0122.ss06
Encoding: 65556 -1 151
Width: 673
GlyphClass: 2
Flags: MW
HStem: -110 62<322 350 322 389> -16 49<269 424 269 439> 294 46<358 582 358 630> 677 49<275 419>
VStem: 48 53<257.5 453.5 257.5 468> 322 67<-104 -48 -104 -48 -104 -48> 582 48<294 294>
AnchorPoint: "Anchor-3" 357 710 basechar 0
AnchorPoint: "Anchor-0" 356 -193 basechar 0
LayerCount: 2
Fore
SplineSet
350 -16 m 0
 161 -16 48 131 48 354 c 0
 48 582 165 726 358 726 c 0
 503 726 599 637 628 485 c 1
 576 480 l 1
 553 603 480 677 358 677 c 0
 192 677 101 553 101 354 c 0
 101 161 188 33 350 33 c 0
 498 33 581 141 582 294 c 1
 358 294 l 1
 358 340 l 1
 630 340 l 1
 630 309 l 2
 630 112 528 -16 350 -16 c 0
308 -193 m 1
 350 -110 l 1
 322 -110 l 1
 322 -48 l 1
 389 -48 l 1
 389 -104 l 1
 342 -193 l 1
 308 -193 l 1
EndSplineSet
EndChar

StartChar: Gdotaccent.ss06
Encoding: 65557 -1 152
Width: 673
GlyphClass: 2
Flags: MW
HStem: -16 49<269 424 269 439> 294 46<358 582 358 630> 677 49<275 419> 803 79<331 383 331 383>
VStem: 48 53<257.5 453.5 257.5 468> 331 52<803 882 803 882> 582 48<294 294>
AnchorPoint: "Anchor-3" 357 710 basechar 0
AnchorPoint: "Anchor-0" 356 0 basechar 0
LayerCount: 2
Fore
SplineSet
331 803 m 1
 331 882 l 1
 383 882 l 1
 383 803 l 1
 331 803 l 1
350 -16 m 0
 161 -16 48 131 48 354 c 0
 48 582 165 726 358 726 c 0
 503 726 599 637 628 485 c 1
 576 480 l 1
 553 603 480 677 358 677 c 0
 192 677 101 553 101 354 c 0
 101 161 188 33 350 33 c 0
 498 33 581 141 582 294 c 1
 358 294 l 1
 358 340 l 1
 630 340 l 1
 630 309 l 2
 630 112 528 -16 350 -16 c 0
EndSplineSet
Substitution2: "'ss08' Style Set 8 in Latin lookup 41 subtable" Gdotaccent.ss06.ss08
Substitution2: "'aalt' Access All Alternates in Latin lookup 0 subtable" Gdotaccent.ss06.ss08
EndChar

StartChar: uni1E20.ss06
Encoding: 65558 -1 153
Width: 673
GlyphClass: 2
Flags: MW
HStem: -16 49<269 424 269 439> 294 46<358 582 358 630> 677 49<275 419> 818 42<230 484 230 484>
VStem: 48 53<257.5 453.5 257.5 468> 582 48<294 294>
AnchorPoint: "Anchor-3" 357 710 basechar 0
AnchorPoint: "Anchor-0" 356 0 basechar 0
LayerCount: 2
Fore
SplineSet
230 818 m 1
 230 860 l 1
 484 860 l 1
 484 818 l 1
 230 818 l 1
350 -16 m 0
 161 -16 48 131 48 354 c 0
 48 582 165 726 358 726 c 0
 503 726 599 637 628 485 c 1
 576 480 l 1
 553 603 480 677 358 677 c 0
 192 677 101 553 101 354 c 0
 101 161 188 33 350 33 c 0
 498 33 581 141 582 294 c 1
 358 294 l 1
 358 340 l 1
 630 340 l 1
 630 309 l 2
 630 112 528 -16 350 -16 c 0
EndSplineSet
EndChar

StartChar: Adieresis.ss08
Encoding: 65559 -1 154
Width: 631
GlyphClass: 2
Flags: MW
HStem: 0 21G<23 23 23 76 555 555 555 608> 224 48<174 457 174 474 157 457> 664 46<315 315> 806 71<222.5 241.5 389.5 408>
VStem: 199 66<830 852> 365 67<830 852>
AnchorPoint: "Anchor-3" 315 710 basechar 0
AnchorPoint: "Anchor-2" 608 0 basechar 0
AnchorPoint: "Anchor-0" 315 0 basechar 0
LayerCount: 2
Fore
SplineSet
232 806 m 0
 213 806 199 819 199 841 c 0
 199 863 213 877 232 877 c 0
 251 877 265 863 265 841 c 0
 265 819 251 806 232 806 c 0
399 806 m 0
 380 806 365 819 365 841 c 0
 365 863 380 877 399 877 c 0
 417 877 432 863 432 841 c 0
 432 819 417 806 399 806 c 0
23 0 m 1
 283 710 l 1
 347 710 l 1
 608 0 l 1
 555 0 l 1
 474 224 l 1
 157 224 l 1
 76 0 l 1
 23 0 l 1
174 272 m 1
 457 272 l 1
 315 664 l 1
 174 272 l 1
EndSplineSet
EndChar

StartChar: Cdotaccent.ss08
Encoding: 65560 -1 155
Width: 685
GlyphClass: 2
Flags: MW
HStem: -16 49<276.5 421 276.5 434> 677 49<276.5 418> 806 71<343.5 362.5>
VStem: 48 53<254 454 254 469> 320 66<830 852>
AnchorPoint: "Anchor-3" 353 710 basechar 0
AnchorPoint: "Anchor-0" 354 0 basechar 0
LayerCount: 2
Fore
SplineSet
353 806 m 0
 334 806 320 819 320 841 c 0
 320 863 334 877 353 877 c 0
 372 877 386 863 386 841 c 0
 386 819 372 806 353 806 c 0
353 -16 m 0
 169 -16 48 124 48 354 c 0
 48 584 169 726 353 726 c 0
 513 726 607 630 636 481 c 1
 583 477 l 1
 561 599 483 677 353 677 c 0
 200 677 101 554 101 354 c 0
 101 154 200 33 353 33 c 0
 489 33 571 114 589 249 c 1
 642 245 l 1
 617 85 515 -16 353 -16 c 0
EndSplineSet
EndChar

StartChar: Edieresis.ss08
Encoding: 65561 -1 156
Width: 583
GlyphClass: 2
Flags: MW
HStem: 0 48<145 531 145 531> 331 47<145 511 145 511> 662 48<145 523 145 145> 806 71<217 235.5 383.5 402.5>
VStem: 95 50<48 331 378 662> 193 67<830 852> 360 66<830 852>
AnchorPoint: "Anchor-3" 310 710 basechar 0
AnchorPoint: "Anchor-2" 531 0 basechar 0
AnchorPoint: "Anchor-0" 310 0 basechar 0
LayerCount: 2
Fore
SplineSet
226 806 m 0
 208 806 193 819 193 841 c 0
 193 863 208 877 226 877 c 0
 245 877 260 863 260 841 c 0
 260 819 245 806 226 806 c 0
393 806 m 0
 374 806 360 819 360 841 c 0
 360 863 374 877 393 877 c 0
 412 877 426 863 426 841 c 0
 426 819 412 806 393 806 c 0
95 0 m 1
 95 710 l 1
 523 710 l 1
 523 662 l 1
 145 662 l 1
 145 378 l 1
 511 378 l 1
 511 331 l 1
 145 331 l 1
 145 48 l 1
 531 48 l 1
 531 0 l 1
 95 0 l 1
EndSplineSet
EndChar

StartChar: Edotaccent.ss08
Encoding: 65562 -1 157
Width: 583
GlyphClass: 2
Flags: MW
HStem: 0 48<145 531 145 531> 331 47<145 511 145 511> 662 48<145 523 145 145> 806 71<300.5 319.5>
VStem: 95 50<48 331 378 662> 277 66<830 852>
AnchorPoint: "Anchor-3" 310 710 basechar 0
AnchorPoint: "Anchor-2" 531 0 basechar 0
AnchorPoint: "Anchor-0" 310 0 basechar 0
LayerCount: 2
Fore
SplineSet
310 806 m 0
 291 806 277 819 277 841 c 0
 277 863 291 877 310 877 c 0
 329 877 343 863 343 841 c 0
 343 819 329 806 310 806 c 0
95 0 m 1
 95 710 l 1
 523 710 l 1
 523 662 l 1
 145 662 l 1
 145 378 l 1
 511 378 l 1
 511 331 l 1
 145 331 l 1
 145 48 l 1
 531 48 l 1
 531 0 l 1
 95 0 l 1
EndSplineSet
EndChar

StartChar: Gdotaccent.ss08
Encoding: 65563 -1 158
Width: 683
GlyphClass: 2
Flags: MW
HStem: -16 49<272 413.5> 0 21G<590 630 590 590> 294 46<358 582 358 630> 677 49<271.5 417.5> 806 71<347 365.5>
VStem: 48 53<257.5 449.5 257.5 466> 323 67<830 852> 582 48<294 294> 588 42
AnchorPoint: "Anchor-3" 356 710 basechar 0
AnchorPoint: "Anchor-0" 358 0 basechar 0
LayerCount: 2
Fore
SplineSet
356 806 m 0xbe80
 338 806 323 819 323 841 c 0
 323 863 338 877 356 877 c 0
 375 877 390 863 390 841 c 0
 390 819 375 806 356 806 c 0xbe80
351 -16 m 0
 164 -16 48 131 48 354 c 0
 48 578 161 726 356 726 c 0
 505 726 599 635 628 485 c 1
 576 480 l 1
 551 607 479 677 356 677 c 0
 187 677 101 545 101 354 c 0
 101 161 192 33 352 33 c 0
 490 33 573 133 582 294 c 1xb5
 358 294 l 1
 358 340 l 1
 630 340 l 1
 630 0 l 1
 590 0 l 1x7480
 586 156 l 1
 558 59 476 -16 351 -16 c 0
EndSplineSet
EndChar

StartChar: Idieresis.ss08
Encoding: 65564 -1 159
Width: 239
GlyphClass: 2
Flags: MW
HStem: 0 21G<95 95 95 145> 690 20G<95 145 145 145> 806 71<27 45.5 193.5 212.5>
VStem: 3 67<830 852> 95 50<0 710 0 710> 170 66<830 852>
AnchorPoint: "Anchor-3" 120 710 basechar 0
AnchorPoint: "Anchor-2" 145 0 basechar 0
AnchorPoint: "Anchor-0" 120 0 basechar 0
LayerCount: 2
Fore
SplineSet
36 806 m 0
 18 806 3 819 3 841 c 0
 3 863 18 877 36 877 c 0
 55 877 70 863 70 841 c 0
 70 819 55 806 36 806 c 0
203 806 m 0
 184 806 170 819 170 841 c 0
 170 863 184 877 203 877 c 0
 222 877 236 863 236 841 c 0
 236 819 222 806 203 806 c 0
95 0 m 1xe8
 95 710 l 1
 145 710 l 1
 145 0 l 1
 95 0 l 1xe8
EndSplineSet
EndChar

StartChar: Idotaccent.ss08
Encoding: 65565 -1 160
Width: 239
GlyphClass: 2
Flags: MW
HStem: 0 21G<95 95 95 145> 690 20G<95 145 145 145> 806 71<110.5 129.5>
VStem: 87 66<830 852> 95 50<0 710 0 710>
AnchorPoint: "Anchor-3" 120 710 basechar 0
AnchorPoint: "Anchor-2" 145 0 basechar 0
AnchorPoint: "Anchor-0" 120 0 basechar 0
LayerCount: 2
Fore
SplineSet
120 806 m 0xf0
 101 806 87 819 87 841 c 0
 87 863 101 877 120 877 c 0
 139 877 153 863 153 841 c 0
 153 819 139 806 120 806 c 0xf0
95 0 m 1xe8
 95 710 l 1
 145 710 l 1
 145 0 l 1
 95 0 l 1xe8
EndSplineSet
EndChar

StartChar: Odieresis.ss08
Encoding: 65566 -1 161
Width: 722
GlyphClass: 2
Flags: MW
HStem: -16 49<280.5 442 280.5 458> 677 49<280.5 442> 806 71<268.5 287 435 453.5>
VStem: 48 53<254.5 453.5 254.5 468.5> 244 67<830 852> 411 67<830 852> 621 53<254.5 453.5>
AnchorPoint: "Anchor-3" 361 710 basechar 0
AnchorPoint: "Anchor-1" 361 355 basechar 0
AnchorPoint: "Anchor-0" 361 0 basechar 0
LayerCount: 2
Fore
SplineSet
278 806 m 0
 259 806 244 819 244 841 c 0
 244 863 259 877 278 877 c 0
 296 877 311 863 311 841 c 0
 311 819 296 806 278 806 c 0
444 806 m 0
 426 806 411 819 411 841 c 0
 411 863 426 877 444 877 c 0
 463 877 478 863 478 841 c 0
 478 819 463 806 444 806 c 0
361 -16 m 0
 167 -16 48 126 48 354 c 0
 48 583 167 726 361 726 c 0
 555 726 674 583 674 354 c 0
 674 126 555 -16 361 -16 c 0
361 33 m 0
 523 33 621 155 621 354 c 0
 621 553 523 677 361 677 c 0
 200 677 101 553 101 354 c 0
 101 155 200 33 361 33 c 0
EndSplineSet
EndChar

StartChar: Udieresis.ss08
Encoding: 65567 -1 162
Width: 671
GlyphClass: 2
Flags: MW
HStem: -16 49<270 401.5 270 416.5> 691 20G<80 130 130 130 541 591 591 591> 806 71<243 261.5 409.5 428.5>
VStem: 80 50<248 711> 219 67<830 852> 386 66<830 852> 541 50<248 711>
AnchorPoint: "Anchor-3" 336 710 basechar 0
AnchorPoint: "Anchor-2" 443 2 basechar 0
AnchorPoint: "Anchor-0" 336 0 basechar 0
LayerCount: 2
Fore
SplineSet
252 806 m 0
 234 806 219 819 219 841 c 0
 219 863 234 877 252 877 c 0
 271 877 286 863 286 841 c 0
 286 819 271 806 252 806 c 0
419 806 m 0
 400 806 386 819 386 841 c 0
 386 863 400 877 419 877 c 0
 438 877 452 863 452 841 c 0
 452 819 438 806 419 806 c 0
336 -16 m 0
 174 -16 80 81 80 248 c 2
 80 711 l 1
 130 711 l 1
 130 248 l 2
 130 110 204 33 336 33 c 0
 467 33 541 110 541 248 c 2
 541 711 l 1
 591 711 l 1
 591 248 l 2
 591 81 497 -16 336 -16 c 0
EndSplineSet
EndChar

StartChar: Wdieresis.ss08
Encoding: 65568 -1 163
Width: 924
GlyphClass: 2
Flags: MW
HStem: 0 61<236 269 269 269 269 303> 634 76<462 462> 806 71<369.5 388 536 554.5>
VStem: 345 67<830 852> 512 67<830 852>
AnchorPoint: "Anchor-3" 462 710 basechar 0
AnchorPoint: "Anchor-0" 462 0 basechar 0
LayerCount: 2
Fore
SplineSet
379 806 m 0
 360 806 345 819 345 841 c 0
 345 863 360 877 379 877 c 0
 397 877 412 863 412 841 c 0
 412 819 397 806 379 806 c 0
545 806 m 0
 527 806 512 819 512 841 c 0
 512 863 527 877 545 877 c 0
 564 877 579 863 579 841 c 0
 579 819 564 806 545 806 c 0
236 0 m 1
 41 710 l 1
 94 710 l 1
 269 61 l 1
 431 710 l 1
 493 710 l 1
 656 61 l 1
 830 710 l 1
 884 710 l 1
 689 0 l 1
 621 0 l 1
 462 634 l 1
 303 0 l 1
 236 0 l 1
EndSplineSet
EndChar

StartChar: Ydieresis.ss08
Encoding: 65569 -1 164
Width: 553
GlyphClass: 2
Flags: MW
HStem: 0 21G<252 252 252 302> 690 20G<-3 56 56 56 497 556 556 556> 806 71<184 202.5 350.5 369.5>
VStem: 160 67<830 852> 252 50<0 290 0 290> 327 66<830 852>
AnchorPoint: "Anchor-3" 277 710 basechar 0
AnchorPoint: "Anchor-0" 277 0 basechar 0
LayerCount: 2
Fore
SplineSet
193 806 m 0
 175 806 160 819 160 841 c 0
 160 863 175 877 193 877 c 0
 212 877 227 863 227 841 c 0
 227 819 212 806 193 806 c 0
360 806 m 0
 341 806 327 819 327 841 c 0
 327 863 341 877 360 877 c 0
 379 877 393 863 393 841 c 0
 393 819 379 806 360 806 c 0
252 0 m 1xe8
 252 290 l 1
 -3 710 l 1
 56 710 l 1
 277 339 l 1
 497 710 l 1
 556 710 l 1
 302 290 l 1
 302 0 l 1
 252 0 l 1xe8
EndSplineSet
EndChar

StartChar: Zdotaccent.ss08
Encoding: 65570 -1 165
Width: 530
GlyphClass: 2
Flags: MW
HStem: 0 48<85 501 85 501> 662 48<42 435 42 491> 806 71<261.5 280.5>
VStem: 29 56<48 48 48 49 48 49> 238 66<830 852> 435 56<662 662>
AnchorPoint: "Anchor-3" 271 710 basechar 0
AnchorPoint: "Anchor-0" 271 0 basechar 0
LayerCount: 2
Fore
SplineSet
271 806 m 0
 252 806 238 819 238 841 c 0
 238 863 252 877 271 877 c 0
 290 877 304 863 304 841 c 0
 304 819 290 806 271 806 c 0
29 0 m 1
 29 49 l 1
 435 662 l 1
 42 662 l 1
 42 710 l 1
 491 710 l 1
 491 661 l 1
 85 48 l 1
 501 48 l 1
 501 0 l 1
 29 0 l 1
EndSplineSet
EndChar

StartChar: Idieresis.ss05.ss08
Encoding: 65571 -1 166
Width: 355
GlyphClass: 2
Flags: MW
HStem: 0 48<48 153 48 153 203 307> 662 48<54 153 54 301 203 203 203 301> 806 71<85 103.5 251.5 270.5>
VStem: 48 155<0 662 48 662> 61 67<830 852> 153 50<48 662 48 662> 153 154<0 662> 228 66<830 852>
AnchorPoint: "Anchor-3" 178 710 basechar 0
AnchorPoint: "Anchor-2" 307 0 basechar 0
AnchorPoint: "Anchor-0" 178 0 basechar 0
LayerCount: 2
Fore
SplineSet
94 806 m 0xe9
 76 806 61 819 61 841 c 0
 61 863 76 877 94 877 c 0
 113 877 128 863 128 841 c 0
 128 819 113 806 94 806 c 0xe9
261 806 m 0
 242 806 228 819 228 841 c 0
 228 863 242 877 261 877 c 0
 280 877 294 863 294 841 c 0
 294 819 280 806 261 806 c 0
48 0 m 1xd0
 48 48 l 1xd0
 153 48 l 1
 153 662 l 1
 54 662 l 1
 54 710 l 1
 301 710 l 1
 301 662 l 1
 203 662 l 1
 203 48 l 1xc4
 307 48 l 1
 307 0 l 1xc2
 48 0 l 1xd0
EndSplineSet
EndChar

StartChar: Idotaccent.ss05.ss08
Encoding: 65572 -1 167
Width: 355
GlyphClass: 2
Flags: MW
HStem: 0 48<48 153 48 153 203 307> 662 48<54 153 54 301 203 203 203 301> 806 71<168.5 187.5>
VStem: 48 155<0 662 48 662> 145 66<830 852> 153 50<48 662 48 662> 153 154<0 662>
AnchorPoint: "Anchor-3" 178 710 basechar 0
AnchorPoint: "Anchor-2" 307 0 basechar 0
AnchorPoint: "Anchor-0" 178 0 basechar 0
LayerCount: 2
Fore
SplineSet
178 806 m 0xe8
 159 806 145 819 145 841 c 0
 145 863 159 877 178 877 c 0
 197 877 211 863 211 841 c 0
 211 819 197 806 178 806 c 0xe8
48 0 m 1xd0
 48 48 l 1xd0
 153 48 l 1
 153 662 l 1
 54 662 l 1
 54 710 l 1
 301 710 l 1
 301 662 l 1
 203 662 l 1
 203 48 l 1xc4
 307 48 l 1
 307 0 l 1xc2
 48 0 l 1xd0
EndSplineSet
EndChar

StartChar: Gdotaccent.ss06.ss08
Encoding: 65573 -1 168
Width: 673
GlyphClass: 2
Flags: MW
HStem: -16 49<269 424 269 439> 294 46<358 582 358 630> 677 49<275 419> 806 71<348 366.5>
VStem: 48 53<257.5 453.5 257.5 468> 324 67<830 852> 582 48<294 294>
AnchorPoint: "Anchor-3" 357 710 basechar 0
AnchorPoint: "Anchor-0" 356 0 basechar 0
LayerCount: 2
Fore
SplineSet
357 806 m 0
 339 806 324 819 324 841 c 0
 324 863 339 877 357 877 c 0
 376 877 391 863 391 841 c 0
 391 819 376 806 357 806 c 0
350 -16 m 0
 161 -16 48 131 48 354 c 0
 48 582 165 726 358 726 c 0
 503 726 599 637 628 485 c 1
 576 480 l 1
 553 603 480 677 358 677 c 0
 192 677 101 553 101 354 c 0
 101 161 188 33 350 33 c 0
 498 33 581 141 582 294 c 1
 358 294 l 1
 358 340 l 1
 630 340 l 1
 630 309 l 2
 630 112 528 -16 350 -16 c 0
EndSplineSet
EndChar

StartChar: A_I.dlig
Encoding: 65574 -1 169
Width: 986
GlyphClass: 3
Flags: MW
HStem: 0 48<679 783 833 938 679 783> 224 48<174 457 174 474 157 457> 662 48<685 783 833 833 833 932>
VStem: 679 154<0 662 48 662> 783 50<48 662 48 662> 783 155<0 662>
AnchorPoint: "Anchor-8" 315 710 baselig 0
AnchorPoint: "Anchor-7" 608 0 baselig 0
AnchorPoint: "Anchor-5" 315 0 baselig 0
AnchorPoint: "Anchor-8" 808 710 baselig 1
AnchorPoint: "Anchor-5" 808 0 baselig 1
AnchorPoint: "Anchor-7" 938 0 baselig 1
LayerCount: 2
Fore
SplineSet
23 0 m 1xf0
 283 710 l 1
 347 710 l 1
 608 0 l 1
 555 0 l 1
 474 224 l 1
 157 224 l 1
 76 0 l 1
 23 0 l 1xf0
679 0 m 1
 679 48 l 1xf0
 783 48 l 1
 783 662 l 1
 685 662 l 1
 685 710 l 1
 932 710 l 1
 932 662 l 1
 833 662 l 1
 833 48 l 1xe8
 938 48 l 1
 938 0 l 1xe4
 679 0 l 1
174 272 m 1
 457 272 l 1
 315 664 l 1
 174 272 l 1
EndSplineSet
Ligature2: "'dlig' Discretionary Ligatures in Latin lookup 32 subtable" A I
EndChar

StartChar: U_I.dlig
Encoding: 65575 -1 170
Width: 1026
GlyphClass: 3
Flags: MW
HStem: -16 49<270 401.5 270 416.5> 0 48<719 824 719 824 874 978> 662 48<725 824 725 972 874 874 874 972>
VStem: 80 50<248 711> 541 50<248 711> 719 155<0 662 48 662> 824 50<48 662 48 662> 824 154<0 662>
AnchorPoint: "Anchor-8" 336 710 baselig 0
AnchorPoint: "Anchor-7" 443 2 baselig 0
AnchorPoint: "Anchor-5" 336 0 baselig 0
AnchorPoint: "Anchor-8" 849 710 baselig 1
AnchorPoint: "Anchor-5" 849 0 baselig 1
AnchorPoint: "Anchor-7" 978 0 baselig 1
LayerCount: 2
Fore
SplineSet
336 -16 m 0xba
 174 -16 80 81 80 248 c 2
 80 711 l 1
 130 711 l 1
 130 248 l 2
 130 110 204 33 336 33 c 0
 467 33 541 110 541 248 c 2
 541 711 l 1
 591 711 l 1
 591 248 l 2
 591 81 497 -16 336 -16 c 0xba
719 0 m 1x7c
 719 48 l 1x7c
 824 48 l 1
 824 662 l 1
 725 662 l 1
 725 710 l 1
 972 710 l 1
 972 662 l 1
 874 662 l 1
 874 48 l 1x7a
 978 48 l 1
 978 0 l 1x79
 719 0 l 1x7c
EndSplineSet
Ligature2: "'dlig' Discretionary Ligatures in Latin lookup 32 subtable" U I
EndChar

StartChar: a
Encoding: 97 97 171
Width: 543
GlyphClass: 2
Flags: MW
HStem: -12 45<184.5 266.5> -1 46<471.5 517> 495 47<222 317>
VStem: 48 51<102 163.5 102 172.5> 415 49 416 48<209 277 277 277 320 326>
AnchorPoint: "Anchor-3" 269 530 basechar 0
AnchorPoint: "Anchor-2" 517 0 basechar 0
AnchorPoint: "Anchor-0" 265 0 basechar 0
LayerCount: 2
Fore
SplineSet
221 -12 m 0xb8
 116 -12 48 43 48 131 c 0
 48 214 110 263 211 282 c 2
 416 320 l 1
 416 442 367 495 267 495 c 0
 177 495 124 450 109 369 c 1
 57 373 l 1
 76 479 150 542 267 542 c 0
 394 542 464 468 464 326 c 2
 464 102 l 2x74
 464 56 477 45 506 45 c 2
 517 45 l 1
 517 0 l 1
 511 -1 504 -1 497 -1 c 0x78
 446 -1 418 20 415 99 c 1
 386 37 312 -12 221 -12 c 0xb8
225 33 m 0
 338 33 416 109 416 209 c 2
 416 277 l 1
 222 240 l 2
 142 225 99 192 99 135 c 0xb4
 99 69 144 33 225 33 c 0
EndSplineSet
Substitution2: "'ss02' Style Set 2 in Latin lookup 35 subtable" a.ss02
Substitution2: "'ss01' Style Set 1 in Latin lookup 34 subtable" a.ss01
Substitution2: "Single Substitution lookup 27 subtable" ordfeminine
AlternateSubs2: "'aalt' Access All Alternates in Latin lookup 1 subtable" ordfeminine a.ss01 a.ss02
EndChar

StartChar: aacute
Encoding: 225 225 172
Width: 543
GlyphClass: 2
Flags: MW
HStem: -12 45<184.5 266.5> -1 46<471.5 517> 495 47<222 317> 606 120<247 371 247 371>
VStem: 48 51<102 163.5 102 172.5> 415 49 416 48<209 277 277 277 320 326>
AnchorPoint: "Anchor-3" 269 530 basechar 0
AnchorPoint: "Anchor-2" 517 0 basechar 0
AnchorPoint: "Anchor-0" 265 0 basechar 0
LayerCount: 2
Fore
SplineSet
247 606 m 1xbc
 317 726 l 1
 371 726 l 1
 288 606 l 1
 247 606 l 1xbc
221 -12 m 0
 116 -12 48 43 48 131 c 0
 48 214 110 263 211 282 c 2
 416 320 l 1
 416 442 367 495 267 495 c 0
 177 495 124 450 109 369 c 1
 57 373 l 1
 76 479 150 542 267 542 c 0
 394 542 464 468 464 326 c 2
 464 102 l 2x7a
 464 56 477 45 506 45 c 2
 517 45 l 1
 517 0 l 1
 511 -1 504 -1 497 -1 c 0x7c
 446 -1 418 20 415 99 c 1
 386 37 312 -12 221 -12 c 0
225 33 m 0
 338 33 416 109 416 209 c 2
 416 277 l 1
 222 240 l 2
 142 225 99 192 99 135 c 0xba
 99 69 144 33 225 33 c 0
EndSplineSet
Substitution2: "'ss02' Style Set 2 in Latin lookup 35 subtable" aacute.ss02
Substitution2: "'ss01' Style Set 1 in Latin lookup 34 subtable" aacute.ss01
AlternateSubs2: "'aalt' Access All Alternates in Latin lookup 1 subtable" aacute.ss01 aacute.ss02
EndChar

StartChar: abreve
Encoding: 259 259 173
Width: 543
GlyphClass: 2
Flags: MW
HStem: -12 45<184.5 266.5> -1 46<471.5 517> 495 47<222 317> 613 39<244 294 244 306>
VStem: 48 51<102 163.5 102 172.5> 415 49 416 48<209 277 277 277 320 326>
AnchorPoint: "Anchor-3" 269 530 basechar 0
AnchorPoint: "Anchor-2" 517 0 basechar 0
AnchorPoint: "Anchor-0" 265 0 basechar 0
LayerCount: 2
Fore
SplineSet
269 613 m 0xbc
 195 613 147 660 139 733 c 1
 176 733 l 1
 183 679 219 652 269 652 c 0
 319 652 354 679 361 733 c 1
 398 733 l 1
 390 660 343 613 269 613 c 0xbc
221 -12 m 0
 116 -12 48 43 48 131 c 0
 48 214 110 263 211 282 c 2
 416 320 l 1
 416 442 367 495 267 495 c 0
 177 495 124 450 109 369 c 1
 57 373 l 1
 76 479 150 542 267 542 c 0
 394 542 464 468 464 326 c 2
 464 102 l 2x7a
 464 56 477 45 506 45 c 2
 517 45 l 1
 517 0 l 1
 511 -1 504 -1 497 -1 c 0x7c
 446 -1 418 20 415 99 c 1
 386 37 312 -12 221 -12 c 0
225 33 m 0
 338 33 416 109 416 209 c 2
 416 277 l 1
 222 240 l 2
 142 225 99 192 99 135 c 0xba
 99 69 144 33 225 33 c 0
EndSplineSet
Substitution2: "'ss02' Style Set 2 in Latin lookup 35 subtable" abreve.ss02
Substitution2: "'ss01' Style Set 1 in Latin lookup 34 subtable" abreve.ss01
AlternateSubs2: "'aalt' Access All Alternates in Latin lookup 1 subtable" abreve.ss01 abreve.ss02
EndChar

StartChar: uni01CE
Encoding: 462 462 174
Width: 543
GlyphClass: 2
Flags: MW
HStem: -12 45<184.5 266.5> -1 46<471.5 517> 495 47<222 317> 606 31<269 269 269 292 246 269> 606 127<157 292 157 246>
VStem: 48 51<102 163.5 102 172.5> 415 49 416 48<209 277 277 277 320 326>
AnchorPoint: "Anchor-3" 269 530 basechar 0
AnchorPoint: "Anchor-2" 517 0 basechar 0
AnchorPoint: "Anchor-0" 265 0 basechar 0
LayerCount: 2
Fore
SplineSet
157 733 m 1xad
 199 733 l 1xae
 269 637 l 1xb5
 338 733 l 1
 380 733 l 1xae
 292 606 l 1
 246 606 l 1xb6
 157 733 l 1xad
221 -12 m 0
 116 -12 48 43 48 131 c 0
 48 214 110 263 211 282 c 2
 416 320 l 1
 416 442 367 495 267 495 c 0
 177 495 124 450 109 369 c 1
 57 373 l 1
 76 479 150 542 267 542 c 0
 394 542 464 468 464 326 c 2
 464 102 l 2x65
 464 56 477 45 506 45 c 2
 517 45 l 1
 517 0 l 1
 511 -1 504 -1 497 -1 c 0x66
 446 -1 418 20 415 99 c 1
 386 37 312 -12 221 -12 c 0
225 33 m 0
 338 33 416 109 416 209 c 2
 416 277 l 1
 222 240 l 2
 142 225 99 192 99 135 c 0xa5
 99 69 144 33 225 33 c 0
EndSplineSet
Substitution2: "'ss02' Style Set 2 in Latin lookup 35 subtable" uni01CE.ss02
Substitution2: "'ss01' Style Set 1 in Latin lookup 34 subtable" uni01CE.ss01
AlternateSubs2: "'aalt' Access All Alternates in Latin lookup 1 subtable" uni01CE.ss01 uni01CE.ss02
EndChar

StartChar: acircumflex
Encoding: 226 226 175
Width: 543
GlyphClass: 2
Flags: MW
HStem: -12 45<184.5 266.5> -1 46<471.5 517> 495 47<222 317> 606 127<158 292 158 292 246 339 246 381> 702 31<269 269>
VStem: 48 51<102 163.5 102 172.5> 415 49 416 48<209 277 277 277 320 326>
AnchorPoint: "Anchor-3" 269 530 basechar 0
AnchorPoint: "Anchor-2" 517 0 basechar 0
AnchorPoint: "Anchor-0" 265 0 basechar 0
LayerCount: 2
Fore
SplineSet
158 606 m 1xb6
 246 733 l 1
 292 733 l 1xae
 381 606 l 1
 339 606 l 1xb6
 269 702 l 1xae
 200 606 l 1
 158 606 l 1xb6
221 -12 m 0
 116 -12 48 43 48 131 c 0
 48 214 110 263 211 282 c 2
 416 320 l 1
 416 442 367 495 267 495 c 0
 177 495 124 450 109 369 c 1
 57 373 l 1
 76 479 150 542 267 542 c 0
 394 542 464 468 464 326 c 2
 464 102 l 2x65
 464 56 477 45 506 45 c 2
 517 45 l 1
 517 0 l 1
 511 -1 504 -1 497 -1 c 0x66
 446 -1 418 20 415 99 c 1
 386 37 312 -12 221 -12 c 0
225 33 m 0
 338 33 416 109 416 209 c 2
 416 277 l 1
 222 240 l 2
 142 225 99 192 99 135 c 0xa5
 99 69 144 33 225 33 c 0
EndSplineSet
Substitution2: "'ss02' Style Set 2 in Latin lookup 35 subtable" acircumflex.ss02
Substitution2: "'ss01' Style Set 1 in Latin lookup 34 subtable" acircumflex.ss01
AlternateSubs2: "'aalt' Access All Alternates in Latin lookup 1 subtable" acircumflex.ss01 acircumflex.ss02
EndChar

StartChar: adieresis
Encoding: 228 228 176
Width: 543
GlyphClass: 2
Flags: MW
HStem: -12 45<184.5 266.5> -1 46<471.5 517> 495 47<222 317> 623 79<171 223 171 223 314 366>
VStem: 48 51<102 163.5 102 172.5> 171 52<623 702 623 702> 314 52<623 702 623 702> 415 49 416 48<209 277 277 277 320 326>
AnchorPoint: "Anchor-3" 269 530 basechar 0
AnchorPoint: "Anchor-2" 517 0 basechar 0
AnchorPoint: "Anchor-0" 265 0 basechar 0
LayerCount: 2
Fore
SplineSet
171 623 m 1xbf
 171 702 l 1
 223 702 l 1
 223 623 l 1
 171 623 l 1xbf
314 623 m 1
 314 702 l 1
 366 702 l 1
 366 623 l 1
 314 623 l 1
221 -12 m 0
 116 -12 48 43 48 131 c 0
 48 214 110 263 211 282 c 2
 416 320 l 1
 416 442 367 495 267 495 c 0
 177 495 124 450 109 369 c 1
 57 373 l 1
 76 479 150 542 267 542 c 0
 394 542 464 468 464 326 c 2
 464 102 l 2x7e80
 464 56 477 45 506 45 c 2
 517 45 l 1
 517 0 l 1
 511 -1 504 -1 497 -1 c 0x7f
 446 -1 418 20 415 99 c 1
 386 37 312 -12 221 -12 c 0
225 33 m 0
 338 33 416 109 416 209 c 2
 416 277 l 1
 222 240 l 2
 142 225 99 192 99 135 c 0xbe80
 99 69 144 33 225 33 c 0
EndSplineSet
Substitution2: "'ss08' Style Set 8 in Latin lookup 41 subtable" adieresis.ss08
Substitution2: "'ss02' Style Set 2 in Latin lookup 35 subtable" adieresis.ss02
Substitution2: "'ss01' Style Set 1 in Latin lookup 34 subtable" adieresis.ss01
AlternateSubs2: "'aalt' Access All Alternates in Latin lookup 1 subtable" adieresis.ss01 adieresis.ss02 adieresis.ss08
EndChar

StartChar: agrave
Encoding: 224 224 177
Width: 543
GlyphClass: 2
Flags: MW
HStem: -12 45<184.5 266.5> -1 46<471.5 517> 495 47<222 317> 613 120<166 250 166 290>
VStem: 48 51<102 163.5 102 172.5> 415 49 416 48<209 277 277 277 320 326>
AnchorPoint: "Anchor-3" 269 530 basechar 0
AnchorPoint: "Anchor-2" 517 0 basechar 0
AnchorPoint: "Anchor-0" 265 0 basechar 0
LayerCount: 2
Fore
SplineSet
250 613 m 1xbc
 166 733 l 1
 220 733 l 1
 290 613 l 1
 250 613 l 1xbc
221 -12 m 0
 116 -12 48 43 48 131 c 0
 48 214 110 263 211 282 c 2
 416 320 l 1
 416 442 367 495 267 495 c 0
 177 495 124 450 109 369 c 1
 57 373 l 1
 76 479 150 542 267 542 c 0
 394 542 464 468 464 326 c 2
 464 102 l 2x6a
 464 56 477 45 506 45 c 2
 517 45 l 1
 517 0 l 1
 511 -1 504 -1 497 -1 c 0x6c
 446 -1 418 20 415 99 c 1
 386 37 312 -12 221 -12 c 0
225 33 m 0
 338 33 416 109 416 209 c 2
 416 277 l 1
 222 240 l 2
 142 225 99 192 99 135 c 0xaa
 99 69 144 33 225 33 c 0
EndSplineSet
Substitution2: "'ss02' Style Set 2 in Latin lookup 35 subtable" agrave.ss02
Substitution2: "'ss01' Style Set 1 in Latin lookup 34 subtable" agrave.ss01
AlternateSubs2: "'aalt' Access All Alternates in Latin lookup 1 subtable" agrave.ss01 agrave.ss02
EndChar

StartChar: amacron
Encoding: 257 257 178
Width: 543
GlyphClass: 2
Flags: MW
HStem: -12 45<184.5 266.5> -1 46<471.5 517> 495 47<222 317> 638 42<141 396 141 396>
VStem: 48 51<102 163.5 102 172.5> 415 49 416 48<209 277 277 277 320 326>
AnchorPoint: "Anchor-3" 269 530 basechar 0
AnchorPoint: "Anchor-2" 517 0 basechar 0
AnchorPoint: "Anchor-0" 265 0 basechar 0
LayerCount: 2
Fore
SplineSet
141 638 m 1xbc
 141 680 l 1
 396 680 l 1
 396 638 l 1
 141 638 l 1xbc
221 -12 m 0
 116 -12 48 43 48 131 c 0
 48 214 110 263 211 282 c 2
 416 320 l 1
 416 442 367 495 267 495 c 0
 177 495 124 450 109 369 c 1
 57 373 l 1
 76 479 150 542 267 542 c 0
 394 542 464 468 464 326 c 2
 464 102 l 2x7a
 464 56 477 45 506 45 c 2
 517 45 l 1
 517 0 l 1
 511 -1 504 -1 497 -1 c 0x7c
 446 -1 418 20 415 99 c 1
 386 37 312 -12 221 -12 c 0
225 33 m 0
 338 33 416 109 416 209 c 2
 416 277 l 1
 222 240 l 2
 142 225 99 192 99 135 c 0xba
 99 69 144 33 225 33 c 0
EndSplineSet
Substitution2: "'ss02' Style Set 2 in Latin lookup 35 subtable" amacron.ss02
Substitution2: "'ss01' Style Set 1 in Latin lookup 34 subtable" amacron.ss01
AlternateSubs2: "'aalt' Access All Alternates in Latin lookup 1 subtable" amacron.ss01 amacron.ss02
EndChar

StartChar: aogonek
Encoding: 261 261 179
Width: 543
GlyphClass: 2
Flags: MW
HStem: -198 40<481.5 501.5 481.5 501.5> -12 45<184.5 266.5> 0 21G<477 477 517 517> 0 45<477 517 506 517> 495 47<222 317>
VStem: 48 51<102 163.5 102 172.5> 409 46<-137.5 -118> 415 49 416 48<209 277 277 277 320 326> 477 40<0 45>
AnchorPoint: "Anchor-3" 269 530 basechar 0
AnchorPoint: "Anchor-2" 517 0 basechar 0
AnchorPoint: "Anchor-0" 265 0 basechar 0
LayerCount: 2
Fore
SplineSet
221 -12 m 0xcd
 116 -12 48 43 48 131 c 0
 48 214 110 263 211 282 c 2
 416 320 l 1
 416 442 367 495 267 495 c 0
 177 495 124 450 109 369 c 1
 57 373 l 1
 76 479 150 542 267 542 c 0
 394 542 464 468 464 326 c 2
 464 102 l 2x9c80
 464 56 477 45 506 45 c 2
 517 45 l 1
 517 0 l 1x9c40
 488 -43 l 2
 467 -74 455 -99 455 -125 c 0
 455 -150 471 -158 492 -158 c 0
 511 -158 528 -152 540 -143 c 1
 558 -177 l 1
 541 -190 516 -198 487 -198 c 0
 443 -198 409 -179 409 -135 c 0xce
 409 -101 434 -63 460 -25 c 2
 477 0 l 1xad
 439 5 418 31 415 99 c 1
 386 37 312 -12 221 -12 c 0xcd
225 33 m 0
 338 33 416 109 416 209 c 2
 416 277 l 1
 222 240 l 2
 142 225 99 192 99 135 c 0xcc80
 99 69 144 33 225 33 c 0
EndSplineSet
Substitution2: "'ss02' Style Set 2 in Latin lookup 35 subtable" aogonek.ss02
Substitution2: "'ss01' Style Set 1 in Latin lookup 34 subtable" aogonek.ss01
AlternateSubs2: "'aalt' Access All Alternates in Latin lookup 1 subtable" aogonek.ss01 aogonek.ss02
EndChar

StartChar: aring
Encoding: 229 229 180
Width: 543
GlyphClass: 2
Flags: MW
HStem: -12 45<184.5 266.5> -1 46<471.5 517> 495 47<222 317> 587 33<255.5 282 255.5 291.5> 709 34<255.5 282>
VStem: 48 51<102 163.5 102 172.5> 190 34<651.5 678 651.5 687> 313 34<651.5 678> 415 49 416 48<209 277 277 277 320 326>
AnchorPoint: "Anchor-3" 269 530 basechar 0
AnchorPoint: "Anchor-2" 517 0 basechar 0
AnchorPoint: "Anchor-0" 265 0 basechar 0
LayerCount: 2
Fore
SplineSet
269 587 m 0xbf80
 223 587 190 619 190 665 c 0
 190 709 223 743 269 743 c 0
 313 743 347 709 347 665 c 0
 347 620 314 587 269 587 c 0xbf80
269 620 m 0
 295 620 313 638 313 665 c 0
 313 691 295 709 269 709 c 0
 242 709 224 691 224 665 c 0
 224 638 242 620 269 620 c 0
221 -12 m 0
 116 -12 48 43 48 131 c 0
 48 214 110 263 211 282 c 2
 416 320 l 1
 416 442 367 495 267 495 c 0
 177 495 124 450 109 369 c 1
 57 373 l 1
 76 479 150 542 267 542 c 0
 394 542 464 468 464 326 c 2
 464 102 l 2x7f40
 464 56 477 45 506 45 c 2
 517 45 l 1
 517 0 l 1
 511 -1 504 -1 497 -1 c 0x7f80
 446 -1 418 20 415 99 c 1
 386 37 312 -12 221 -12 c 0
225 33 m 0
 338 33 416 109 416 209 c 2
 416 277 l 1
 222 240 l 2
 142 225 99 192 99 135 c 0xbf40
 99 69 144 33 225 33 c 0
EndSplineSet
Substitution2: "'ss02' Style Set 2 in Latin lookup 35 subtable" aring.ss02
Substitution2: "'ss01' Style Set 1 in Latin lookup 34 subtable" aring.ss01
AlternateSubs2: "'aalt' Access All Alternates in Latin lookup 1 subtable" aring.ss01 aring.ss02
EndChar

StartChar: atilde
Encoding: 227 227 181
Width: 543
GlyphClass: 2
Flags: MW
HStem: -12 45<184.5 266.5> -1 46<471.5 517> 495 47<222 317> 623 35<318 339 318 348.5> 681 35<192 217> 705 20G<370 404 404 404>
VStem: 48 51<102 163.5 102 172.5> 123 35<618 618> 370 34<725 725> 415 49 416 48<209 277 277 277 320 326>
AnchorPoint: "Anchor-3" 269 530 basechar 0
AnchorPoint: "Anchor-2" 517 0 basechar 0
AnchorPoint: "Anchor-0" 265 0 basechar 0
LayerCount: 2
Fore
SplineSet
325 623 m 0xb680
 298 623 279 634 259 654 c 0
 241 672 228 681 206 681 c 0
 178 681 160 663 158 618 c 1
 123 618 l 1
 127 681 160 716 206 716 c 0xa940
 238 716 258 702 279 682 c 0
 298 664 310 658 326 658 c 0
 352 658 366 675 370 725 c 1
 404 725 l 1
 400 661 372 623 325 623 c 0xb680
221 -12 m 0
 116 -12 48 43 48 131 c 0
 48 214 110 263 211 282 c 2
 416 320 l 1
 416 442 367 495 267 495 c 0
 177 495 124 450 109 369 c 1
 57 373 l 1
 76 479 150 542 267 542 c 0
 394 542 464 468 464 326 c 2
 464 102 l 2x6a20
 464 56 477 45 506 45 c 2
 517 45 l 1
 517 0 l 1
 511 -1 504 -1 497 -1 c 0x6a40
 446 -1 418 20 415 99 c 1
 386 37 312 -12 221 -12 c 0
225 33 m 0
 338 33 416 109 416 209 c 2
 416 277 l 1
 222 240 l 2
 142 225 99 192 99 135 c 0xaa20
 99 69 144 33 225 33 c 0
EndSplineSet
Substitution2: "'ss02' Style Set 2 in Latin lookup 35 subtable" atilde.ss02
Substitution2: "'ss01' Style Set 1 in Latin lookup 34 subtable" atilde.ss01
AlternateSubs2: "'aalt' Access All Alternates in Latin lookup 1 subtable" atilde.ss01 atilde.ss02
EndChar

StartChar: ae
Encoding: 230 230 182
Width: 924
GlyphClass: 2
Flags: MW
HStem: -12 45 -12 47<599.5 695 597.5 707> 253 43<469 823 469 876 469 823> 495 47<223 312 207 317 601.5 701>
VStem: 48 51<100 162 100 175.5> 416 53<253 253 253 260 253 260 253 304> 823 53<253 296>
AnchorPoint: "Anchor-3" 462 530 basechar 0
AnchorPoint: "Anchor-2" 791 34 basechar 0
AnchorPoint: "Anchor-0" 462 0 basechar 0
LayerCount: 2
Fore
SplineSet
224 -12 m 0x7e
 117 -12 48 42 48 131 c 0
 48 220 117 268 211 279 c 2
 416 304 l 1
 415 441 365 495 269 495 c 0
 177 495 121 447 109 369 c 1
 57 373 l 1
 74 476 151 542 263 542 c 0
 361 542 425 501 451 419 c 1
 488 494 555 542 648 542 c 0
 796 542 876 425 876 269 c 2
 876 253 l 1
 469 253 l 1
 472 115 543 35 652 35 c 0
 738 35 793 80 814 149 c 1
 866 145 l 1
 839 54 762 -12 652 -12 c 0
 547 -12 474 47 440 136 c 1
 411 42 324 -12 224 -12 c 0x7e
469 296 m 1
 823 296 l 1
 818 421 754 495 648 495 c 0
 546 495 478 422 469 296 c 1
230 33 m 0
 342 34 416 109 416 209 c 2
 416 260 l 1
 222 237 l 2
 137 227 99 190 99 134 c 0xbe
 99 66 149 31 230 33 c 0
EndSplineSet
EndChar

StartChar: b
Encoding: 98 98 183
Width: 578
GlyphClass: 2
Flags: MW
HStem: -12 47<264 358.5 252.5 375.5> 0 21G<83 123 83 83> 495 47<265.5 359> 690 20G<83 131 131 131>
VStem: 83 41.5 83 48<196 333 419 710> 480 50<194 335.5>
AnchorPoint: "Anchor-3" 290 530 basechar 0
AnchorPoint: "Anchor-1" 145 265 basechar 0
AnchorPoint: "Anchor-0" 290 0 basechar 0
LayerCount: 2
Fore
SplineSet
307 -12 m 0xb6
 221 -12 156 43 126 116 c 1
 123 0 l 1x7a
 83 0 l 1x76
 83 710 l 1
 131 710 l 1
 131 419 l 1
 159 488 224 542 307 542 c 0
 444 542 530 434 530 265 c 0
 530 95 444 -12 307 -12 c 0xb6
305 35 m 0
 412 35 480 123 480 265 c 0
 480 406 412 495 306 495 c 0
 200 495 131 401 131 265 c 0xb6
 131 127 200 35 305 35 c 0
EndSplineSet
EndChar

StartChar: c
Encoding: 99 99 184
Width: 536
GlyphClass: 2
Flags: MW
HStem: -12 47<223.5 323.5 223.5 339.5> 495 47<223.5 323.5>
VStem: 48 51<194 336 194 343>
AnchorPoint: "Anchor-3" 279 530 basechar 0
AnchorPoint: "Anchor-0" 279 0 basechar 0
LayerCount: 2
Fore
SplineSet
279 -12 m 0
 130 -12 48 109 48 265 c 0
 48 421 130 542 279 542 c 0
 400 542 473 469 496 363 c 1
 445 359 l 1
 425 445 368 495 279 495 c 0
 168 495 99 407 99 265 c 0
 99 123 168 35 279 35 c 0
 368 35 430 88 447 181 c 1
 498 177 l 1
 476 66 400 -12 279 -12 c 0
EndSplineSet
EndChar

StartChar: cacute
Encoding: 263 263 185
Width: 536
GlyphClass: 2
Flags: MW
HStem: -12 47<223.5 323.5 223.5 339.5> 495 47<223.5 323.5> 606 120<257 381 257 381>
VStem: 48 51<194 336 194 343>
AnchorPoint: "Anchor-3" 279 530 basechar 0
AnchorPoint: "Anchor-0" 279 0 basechar 0
LayerCount: 2
Fore
SplineSet
257 606 m 1
 327 726 l 1
 381 726 l 1
 298 606 l 1
 257 606 l 1
279 -12 m 0
 130 -12 48 109 48 265 c 0
 48 421 130 542 279 542 c 0
 400 542 473 469 496 363 c 1
 445 359 l 1
 425 445 368 495 279 495 c 0
 168 495 99 407 99 265 c 0
 99 123 168 35 279 35 c 0
 368 35 430 88 447 181 c 1
 498 177 l 1
 476 66 400 -12 279 -12 c 0
EndSplineSet
EndChar

StartChar: ccaron
Encoding: 269 269 186
Width: 536
GlyphClass: 2
Flags: MW
HStem: -12 47<223.5 323.5 223.5 339.5> 495 47<223.5 323.5> 606 31<279 279 279 302 256 279> 606 127<167 302 167 256>
VStem: 48 51<194 336 194 343>
AnchorPoint: "Anchor-3" 279 530 basechar 0
AnchorPoint: "Anchor-0" 279 0 basechar 0
LayerCount: 2
Fore
SplineSet
167 733 m 1xd8
 209 733 l 1xd8
 279 637 l 1xe8
 349 733 l 1
 391 733 l 1xd8
 302 606 l 1
 256 606 l 1xe8
 167 733 l 1xd8
279 -12 m 0
 130 -12 48 109 48 265 c 0
 48 421 130 542 279 542 c 0
 400 542 473 469 496 363 c 1
 445 359 l 1
 425 445 368 495 279 495 c 0
 168 495 99 407 99 265 c 0
 99 123 168 35 279 35 c 0
 368 35 430 88 447 181 c 1
 498 177 l 1
 476 66 400 -12 279 -12 c 0
EndSplineSet
EndChar

StartChar: ccedilla
Encoding: 231 231 187
Width: 536
GlyphClass: 2
Flags: MW
HStem: -209 36<248.5 288 248.5 299.5> -75 31<273 273 273 280.5> -11 46<254 254> 495 47<223.5 323.5>
VStem: 48 51<194 336 194 343> 332 38<-141 -108>
AnchorPoint: "Anchor-3" 279 530 basechar 0
AnchorPoint: "Anchor-0" 279 0 basechar 0
LayerCount: 2
Fore
SplineSet
270 -209 m 0
 216 -209 180 -183 167 -143 c 1
 200 -130 l 1
 210 -157 229 -173 268 -173 c 0
 308 -173 332 -158 332 -124 c 0
 332 -92 312 -75 249 -75 c 1
 230 -53 l 1
 254 -11 l 1
 120 2 48 118 48 265 c 0
 48 421 130 542 279 542 c 0
 400 542 473 469 496 363 c 1
 445 359 l 1
 425 445 368 495 279 495 c 0
 168 495 99 407 99 265 c 0
 99 123 168 35 279 35 c 0
 368 35 430 88 447 181 c 1
 498 177 l 1
 477 70 405 -6 292 -12 c 1
 273 -44 l 1
 336 -46 370 -74 370 -126 c 0
 370 -178 329 -209 270 -209 c 0
EndSplineSet
EndChar

StartChar: ccircumflex
Encoding: 265 265 188
Width: 536
GlyphClass: 2
Flags: MW
HStem: -12 47<223.5 323.5 223.5 339.5> 495 47<223.5 323.5> 606 127<168 303 168 303 257 349 257 391> 702 31<280 280>
VStem: 48 51<194 336 194 343>
AnchorPoint: "Anchor-3" 279 530 basechar 0
AnchorPoint: "Anchor-0" 279 0 basechar 0
LayerCount: 2
Fore
SplineSet
168 606 m 1xe8
 257 733 l 1
 303 733 l 1xd8
 391 606 l 1
 349 606 l 1xe8
 280 702 l 1xd8
 210 606 l 1
 168 606 l 1xe8
279 -12 m 0
 130 -12 48 109 48 265 c 0
 48 421 130 542 279 542 c 0
 400 542 473 469 496 363 c 1
 445 359 l 1
 425 445 368 495 279 495 c 0
 168 495 99 407 99 265 c 0
 99 123 168 35 279 35 c 0
 368 35 430 88 447 181 c 1
 498 177 l 1
 476 66 400 -12 279 -12 c 0
EndSplineSet
EndChar

StartChar: cdotaccent
Encoding: 267 267 189
Width: 536
GlyphClass: 2
Flags: MW
HStem: -12 47<223.5 323.5 223.5 339.5> 495 47<223.5 323.5> 623 79<253 305 253 305>
VStem: 48 51<194 336 194 343> 253 52<623 702 623 702>
AnchorPoint: "Anchor-3" 279 530 basechar 0
AnchorPoint: "Anchor-0" 279 0 basechar 0
LayerCount: 2
Fore
SplineSet
253 623 m 1
 253 702 l 1
 305 702 l 1
 305 623 l 1
 253 623 l 1
279 -12 m 0
 130 -12 48 109 48 265 c 0
 48 421 130 542 279 542 c 0
 400 542 473 469 496 363 c 1
 445 359 l 1
 425 445 368 495 279 495 c 0
 168 495 99 407 99 265 c 0
 99 123 168 35 279 35 c 0
 368 35 430 88 447 181 c 1
 498 177 l 1
 476 66 400 -12 279 -12 c 0
EndSplineSet
Substitution2: "'ss08' Style Set 8 in Latin lookup 41 subtable" cdotaccent.ss08
Substitution2: "'aalt' Access All Alternates in Latin lookup 0 subtable" cdotaccent.ss08
EndChar

StartChar: d
Encoding: 100 100 190
Width: 578
GlyphClass: 2
Flags: MW
HStem: -12 47<221.5 309.5> 0 21G<455 495 455 455> 495 47<221.5 312 201 329> 690 20G<447 495 495 495>
VStem: 48 51<195 335.5 195 350> 447 48<196 331.5 419 710 0 710> 453.5 41.5
AnchorPoint: "Anchor-4" 538 530 basechar 0
AnchorPoint: "Anchor-3" 289 530 basechar 0
AnchorPoint: "Anchor-1" 431 617 basechar 0
AnchorPoint: "Anchor-0" 289 0 basechar 0
LayerCount: 2
Fore
SplineSet
270 -12 m 0xba
 132 -12 48 95 48 265 c 0
 48 435 132 542 270 542 c 0
 354 542 421 491 447 419 c 1
 447 710 l 1
 495 710 l 1
 495 0 l 1x7c
 455 0 l 1x7a
 452 119 l 1
 422 37 349 -12 270 -12 c 0xba
276 35 m 0
 382 35 447 127 447 265 c 0
 447 398 382 495 276 495 c 0
 167 495 99 406 99 265 c 0xbc
 99 125 167 35 276 35 c 0
EndSplineSet
EndChar

StartChar: dcaron
Encoding: 271 271 191
Width: 635
GlyphClass: 2
Flags: MW
HStem: -12 47<221.5 309.5> 0 21G<455 495 455 455> 495 47<221.5 312 201 329> 690 20G<447 495 495 495 592 641 641 641>
VStem: 48 51<195 335.5 195 350> 447 48<196 331.5 419 710 0 710> 453.5 41.5
AnchorPoint: "Anchor-4" 538 530 basechar 0
AnchorPoint: "Anchor-3" 289 530 basechar 0
AnchorPoint: "Anchor-1" 431 617 basechar 0
AnchorPoint: "Anchor-0" 289 0 basechar 0
LayerCount: 2
Fore
SplineSet
270 -12 m 0xba
 132 -12 48 95 48 265 c 0
 48 435 132 542 270 542 c 0
 354 542 421 491 447 419 c 1
 447 710 l 1
 495 710 l 1
 495 0 l 1x7c
 455 0 l 1x7a
 452 119 l 1
 422 37 349 -12 270 -12 c 0xba
559 486 m 1
 592 710 l 1
 641 710 l 1
 597 486 l 1
 559 486 l 1
276 35 m 0
 382 35 447 127 447 265 c 0
 447 398 382 495 276 495 c 0
 167 495 99 406 99 265 c 0xbc
 99 125 167 35 276 35 c 0
EndSplineSet
EndChar

StartChar: dcroat
Encoding: 273 273 192
Width: 578
GlyphClass: 2
Flags: MW
HStem: -12 47<221.5 309.5> 0 21G<455 495 455 455> 495 47<221.5 312 201 329> 597 40<294 447 294 447 495 568> 597 113<294 495 447 495 447 568>
VStem: 48 51<195 335.5 195 350> 447 48<196 331.5 419 597 0 597 637 710> 453.5 41.5
AnchorPoint: "Anchor-4" 538 530 basechar 0
AnchorPoint: "Anchor-3" 289 530 basechar 0
AnchorPoint: "Anchor-1" 431 617 basechar 0
AnchorPoint: "Anchor-0" 289 0 basechar 0
LayerCount: 2
Fore
SplineSet
270 -12 m 0xb5
 132 -12 48 95 48 265 c 0
 48 435 132 542 270 542 c 0
 354 542 421 491 447 419 c 1
 447 597 l 1
 294 597 l 1
 294 637 l 1
 447 637 l 1xb6
 447 710 l 1
 495 710 l 1xae
 495 637 l 1
 568 637 l 1
 568 597 l 1
 495 597 l 1
 495 0 l 1x76
 455 0 l 1x75
 452 119 l 1
 422 37 349 -12 270 -12 c 0xb5
276 35 m 0
 382 35 447 127 447 265 c 0
 447 398 382 495 276 495 c 0
 167 495 99 406 99 265 c 0
 99 125 167 35 276 35 c 0
EndSplineSet
EndChar

StartChar: eth
Encoding: 240 240 193
Width: 558
GlyphClass: 1
Flags: MW
HStem: -12 47<223 335 223 348.5> 455 47<223 314 209.5 335> 702 20G<174 174>
VStem: 48 51<179 311 179 325> 459 51<183.5 316>
LayerCount: 2
Fore
SplineSet
279 -12 m 0
 140 -12 48 85 48 245 c 0
 48 405 140 502 279 502 c 0
 349 502 407 472 447 425 c 1
 431 497 401 552 356 594 c 1
 234 550 l 1
 220 590 l 1
 316 624 l 1
 274 651 223 669 160 679 c 1
 174 722 l 1
 255 707 318 680 367 643 c 1
 520 697 l 1
 535 657 l 1
 403 610 l 1
 481 528 510 408 510 255 c 0
 510 85 418 -12 279 -12 c 0
279 35 m 0
 391 35 459 112 459 255 c 0
 459 377 391 455 279 455 c 0
 167 455 99 377 99 245 c 0
 99 113 167 35 279 35 c 0
EndSplineSet
EndChar

StartChar: e
Encoding: 101 101 194
Width: 554
GlyphClass: 2
Flags: MW
HStem: -12 47<227.5 325 227.5 337> 253 43<99 453 99 506 99 453> 495 47<227 331>
VStem: 48 51<253 253 253 296 253 343> 453 53<253 296>
AnchorPoint: "Anchor-3" 279 529 basechar 0
AnchorPoint: "Anchor-2" 421 34 basechar 0
AnchorPoint: "Anchor-0" 279 0 basechar 0
LayerCount: 2
Fore
SplineSet
282 -12 m 0
 131 -12 48 109 48 265 c 0
 48 421 130 542 278 542 c 0
 426 542 506 425 506 269 c 2
 506 253 l 1
 99 253 l 1
 102 115 173 35 282 35 c 0
 368 35 423 80 444 149 c 1
 496 145 l 1
 469 54 392 -12 282 -12 c 0
99 296 m 1
 453 296 l 1
 448 421 384 495 278 495 c 0
 176 495 108 422 99 296 c 1
EndSplineSet
EndChar

StartChar: eacute
Encoding: 233 233 195
Width: 554
GlyphClass: 2
Flags: MW
HStem: -12 47<227.5 325 227.5 337> 253 43<99 453 99 506 99 453> 495 47<227 331> 605 120<257 381 257 381>
VStem: 48 51<253 253 253 296 253 343> 453 53<253 296>
AnchorPoint: "Anchor-3" 279 529 basechar 0
AnchorPoint: "Anchor-2" 421 34 basechar 0
AnchorPoint: "Anchor-0" 279 0 basechar 0
LayerCount: 2
Fore
SplineSet
257 605 m 1
 327 725 l 1
 381 725 l 1
 298 605 l 1
 257 605 l 1
282 -12 m 0
 131 -12 48 109 48 265 c 0
 48 421 130 542 278 542 c 0
 426 542 506 425 506 269 c 2
 506 253 l 1
 99 253 l 1
 102 115 173 35 282 35 c 0
 368 35 423 80 444 149 c 1
 496 145 l 1
 469 54 392 -12 282 -12 c 0
99 296 m 1
 453 296 l 1
 448 421 384 495 278 495 c 0
 176 495 108 422 99 296 c 1
EndSplineSet
EndChar

StartChar: ecaron
Encoding: 283 283 196
Width: 554
GlyphClass: 2
Flags: MW
HStem: -12 47<227.5 325 227.5 337> 253 43<99 453 99 506 99 453> 495 47<227 331> 605 32<279 279 279 302 256 279> 605 127<167 302 167 256>
VStem: 48 51<253 253 253 296 253 343> 453 53<253 296>
AnchorPoint: "Anchor-3" 279 529 basechar 0
AnchorPoint: "Anchor-2" 421 34 basechar 0
AnchorPoint: "Anchor-0" 279 0 basechar 0
LayerCount: 2
Fore
SplineSet
167 732 m 1xee
 209 732 l 1xee
 279 637 l 1xf6
 349 732 l 1
 391 732 l 1xee
 302 605 l 1
 256 605 l 1xf6
 167 732 l 1xee
282 -12 m 0
 131 -12 48 109 48 265 c 0
 48 421 130 542 278 542 c 0
 426 542 506 425 506 269 c 2
 506 253 l 1
 99 253 l 1
 102 115 173 35 282 35 c 0
 368 35 423 80 444 149 c 1
 496 145 l 1
 469 54 392 -12 282 -12 c 0
99 296 m 1
 453 296 l 1
 448 421 384 495 278 495 c 0
 176 495 108 422 99 296 c 1
EndSplineSet
EndChar

StartChar: ecircumflex
Encoding: 234 234 197
Width: 554
GlyphClass: 2
Flags: MW
HStem: -12 47<227.5 325 227.5 337> 253 43<99 453 99 506 99 453> 495 47<227 331> 605 127<168 303 168 303 257 349 257 391> 701 31<280 280>
VStem: 48 51<253 253 253 296 253 343> 453 53<253 296>
AnchorPoint: "Anchor-3" 279 529 basechar 0
AnchorPoint: "Anchor-2" 421 34 basechar 0
AnchorPoint: "Anchor-0" 279 0 basechar 0
LayerCount: 2
Fore
SplineSet
168 605 m 1xf6
 257 732 l 1
 303 732 l 1xee
 391 605 l 1
 349 605 l 1xf6
 280 701 l 1xee
 210 605 l 1
 168 605 l 1xf6
282 -12 m 0
 131 -12 48 109 48 265 c 0
 48 421 130 542 278 542 c 0
 426 542 506 425 506 269 c 2
 506 253 l 1
 99 253 l 1
 102 115 173 35 282 35 c 0
 368 35 423 80 444 149 c 1
 496 145 l 1
 469 54 392 -12 282 -12 c 0
99 296 m 1
 453 296 l 1
 448 421 384 495 278 495 c 0
 176 495 108 422 99 296 c 1
EndSplineSet
EndChar

StartChar: edieresis
Encoding: 235 235 198
Width: 554
GlyphClass: 2
Flags: MW
HStem: -12 47<227.5 325 227.5 337> 253 43<99 453 99 506 99 453> 495 47<227 331> 622 80<181 233 181 233 325 377>
VStem: 48 51<253 253 253 296 253 343> 181 52<622 702 622 702> 325 52<622 702 622 702> 453 53<253 296>
AnchorPoint: "Anchor-3" 279 529 basechar 0
AnchorPoint: "Anchor-2" 421 34 basechar 0
AnchorPoint: "Anchor-0" 279 0 basechar 0
LayerCount: 2
Fore
SplineSet
181 622 m 1
 181 702 l 1
 233 702 l 1
 233 622 l 1
 181 622 l 1
325 622 m 1
 325 702 l 1
 377 702 l 1
 377 622 l 1
 325 622 l 1
282 -12 m 0
 131 -12 48 109 48 265 c 0
 48 421 130 542 278 542 c 0
 426 542 506 425 506 269 c 2
 506 253 l 1
 99 253 l 1
 102 115 173 35 282 35 c 0
 368 35 423 80 444 149 c 1
 496 145 l 1
 469 54 392 -12 282 -12 c 0
99 296 m 1
 453 296 l 1
 448 421 384 495 278 495 c 0
 176 495 108 422 99 296 c 1
EndSplineSet
Substitution2: "'ss08' Style Set 8 in Latin lookup 41 subtable" edieresis.ss08
Substitution2: "'aalt' Access All Alternates in Latin lookup 0 subtable" edieresis.ss08
EndChar

StartChar: edotaccent
Encoding: 279 279 199
Width: 554
GlyphClass: 2
Flags: MW
HStem: -12 47<227.5 325 227.5 337> 253 43<99 453 99 506 99 453> 495 47<227 331> 622 80<253 305 253 305>
VStem: 48 51<253 253 253 296 253 343> 253 52<622 702 622 702> 453 53<253 296>
AnchorPoint: "Anchor-3" 279 529 basechar 0
AnchorPoint: "Anchor-2" 421 34 basechar 0
AnchorPoint: "Anchor-0" 279 0 basechar 0
LayerCount: 2
Fore
SplineSet
253 622 m 1
 253 702 l 1
 305 702 l 1
 305 622 l 1
 253 622 l 1
282 -12 m 0
 131 -12 48 109 48 265 c 0
 48 421 130 542 278 542 c 0
 426 542 506 425 506 269 c 2
 506 253 l 1
 99 253 l 1
 102 115 173 35 282 35 c 0
 368 35 423 80 444 149 c 1
 496 145 l 1
 469 54 392 -12 282 -12 c 0
99 296 m 1
 453 296 l 1
 448 421 384 495 278 495 c 0
 176 495 108 422 99 296 c 1
EndSplineSet
Substitution2: "'ss08' Style Set 8 in Latin lookup 41 subtable" edotaccent.ss08
Substitution2: "'aalt' Access All Alternates in Latin lookup 0 subtable" edotaccent.ss08
EndChar

StartChar: egrave
Encoding: 232 232 200
Width: 554
GlyphClass: 2
Flags: MW
HStem: -12 47<227.5 325 227.5 337> 253 43<99 453 99 506 99 453> 495 47<227 331> 612 120<177 260 177 301>
VStem: 48 51<253 253 253 296 253 343> 453 53<253 296>
AnchorPoint: "Anchor-3" 279 529 basechar 0
AnchorPoint: "Anchor-2" 421 34 basechar 0
AnchorPoint: "Anchor-0" 279 0 basechar 0
LayerCount: 2
Fore
SplineSet
260 612 m 1
 177 732 l 1
 231 732 l 1
 301 612 l 1
 260 612 l 1
282 -12 m 0
 131 -12 48 109 48 265 c 0
 48 421 130 542 278 542 c 0
 426 542 506 425 506 269 c 2
 506 253 l 1
 99 253 l 1
 102 115 173 35 282 35 c 0
 368 35 423 80 444 149 c 1
 496 145 l 1
 469 54 392 -12 282 -12 c 0
99 296 m 1
 453 296 l 1
 448 421 384 495 278 495 c 0
 176 495 108 422 99 296 c 1
EndSplineSet
EndChar

StartChar: emacron
Encoding: 275 275 201
Width: 554
GlyphClass: 2
Flags: MW
HStem: -12 47<227.5 325 227.5 337> 253 43<99 453 99 506 99 453> 495 47<227 331> 637 43<152 406 152 406>
VStem: 48 51<253 253 253 296 253 343> 453 53<253 296>
AnchorPoint: "Anchor-3" 279 529 basechar 0
AnchorPoint: "Anchor-2" 421 34 basechar 0
AnchorPoint: "Anchor-0" 279 0 basechar 0
LayerCount: 2
Fore
SplineSet
152 637 m 1
 152 680 l 1
 406 680 l 1
 406 637 l 1
 152 637 l 1
282 -12 m 0
 131 -12 48 109 48 265 c 0
 48 421 130 542 278 542 c 0
 426 542 506 425 506 269 c 2
 506 253 l 1
 99 253 l 1
 102 115 173 35 282 35 c 0
 368 35 423 80 444 149 c 1
 496 145 l 1
 469 54 392 -12 282 -12 c 0
99 296 m 1
 453 296 l 1
 448 421 384 495 278 495 c 0
 176 495 108 422 99 296 c 1
EndSplineSet
EndChar

StartChar: eogonek
Encoding: 281 281 202
Width: 554
GlyphClass: 2
Flags: MW
HStem: -198 40<376.5 397.5> -12 47<227.5 295.5> 253 43<99 453 99 506 99 453> 495 47<227 331>
VStem: 48 51<253 253 253 296 253 343> 303 45<-129.5 -99> 453 53<253 296>
AnchorPoint: "Anchor-3" 279 529 basechar 0
AnchorPoint: "Anchor-2" 421 34 basechar 0
AnchorPoint: "Anchor-0" 279 0 basechar 0
LayerCount: 2
Fore
SplineSet
282 -12 m 0
 131 -12 48 109 48 265 c 0
 48 421 130 542 278 542 c 0
 426 542 506 425 506 269 c 2
 506 253 l 1
 99 253 l 1
 102 115 173 35 282 35 c 0
 368 35 423 80 444 149 c 1
 496 145 l 1
 487 115 473 88 454 65 c 1
 455 65 l 1
 389 -17 l 2
 363 -50 348 -83 348 -114 c 0
 348 -145 364 -158 389 -158 c 0
 407 -158 424 -152 436 -143 c 1
 453 -177 l 1
 436 -190 412 -198 383 -198 c 0
 337 -198 303 -175 303 -122 c 0
 303 -76 326 -38 353 -5 c 2
 357 0 l 1
 335 -8 309 -12 282 -12 c 0
99 296 m 1
 453 296 l 1
 448 421 384 495 278 495 c 0
 176 495 108 422 99 296 c 1
EndSplineSet
EndChar

StartChar: uni1EBD
Encoding: 7869 7869 203
Width: 554
GlyphClass: 2
Flags: MW
HStem: -12 47<227.5 325 227.5 337> 253 43<99 453 99 506 99 453> 495 47<227 331> 623 34<329 349.5 329 358.5> 681 34<202 227.5> 705 20G<380 415 415 415>
VStem: 48 51<253 253 253 296 253 343> 134 34<617 617> 380 35<725 725> 453 53<253 296>
AnchorPoint: "Anchor-3" 279 529 basechar 0
AnchorPoint: "Anchor-2" 421 34 basechar 0
AnchorPoint: "Anchor-0" 279 0 basechar 0
LayerCount: 2
Fore
SplineSet
335 623 m 0xf7c0
 308 623 289 633 269 653 c 0
 251 672 239 681 216 681 c 0
 188 681 170 662 168 617 c 1
 134 617 l 1
 137 680 170 715 216 715 c 0xebc0
 248 715 268 702 289 681 c 0
 308 664 321 657 337 657 c 0
 362 657 376 675 380 725 c 1
 415 725 l 1
 411 661 382 623 335 623 c 0xf7c0
282 -12 m 0
 131 -12 48 109 48 265 c 0
 48 421 130 542 278 542 c 0
 426 542 506 425 506 269 c 2
 506 253 l 1
 99 253 l 1
 102 115 173 35 282 35 c 0
 368 35 423 80 444 149 c 1
 496 145 l 1
 469 54 392 -12 282 -12 c 0
99 296 m 1
 453 296 l 1
 448 421 384 495 278 495 c 0
 176 495 108 422 99 296 c 1
EndSplineSet
EndChar

StartChar: uni0259
Encoding: 601 601 204
Width: 554
GlyphClass: 2
Flags: MW
HStem: -12 47<222 326 222 349.5> 234 43<101 455 101 101> 495 47<228.5 326>
VStem: 48 53<234 277 234 277> 455 51<234 234 277 277>
AnchorPoint: "Anchor-3" 275 530 basechar 0
AnchorPoint: "Anchor-2" 132 496 basechar 0
AnchorPoint: "Anchor-0" 275 1 basechar 0
LayerCount: 2
Fore
SplineSet
271 542 m 0
 423 542 506 421 506 265 c 0
 506 109 424 -12 275 -12 c 0
 128 -12 48 105 48 261 c 2
 48 277 l 1
 455 277 l 1
 452 415 381 495 271 495 c 0
 186 495 131 450 110 381 c 1
 58 385 l 1
 85 476 162 542 271 542 c 0
455 234 m 1
 101 234 l 1
 106 109 169 35 275 35 c 0
 377 35 446 108 455 234 c 1
EndSplineSet
EndChar

StartChar: f
Encoding: 102 102 205
Width: 374
GlyphClass: 2
Flags: MW
HStem: 0 21G<141 141 141 189> 487 43<63 141 63 141 189 329> 667 43<264 269 269 331>
VStem: 141 48<0 487 0 487 530 589>
AnchorPoint: "Anchor-3" 188 710 basechar 0
AnchorPoint: "Anchor-0" 188 0 basechar 0
LayerCount: 2
Fore
SplineSet
141 0 m 1
 141 487 l 1
 63 487 l 1
 63 530 l 1
 141 530 l 1
 141 593 l 2
 141 665 182 710 264 710 c 2
 331 710 l 1
 331 667 l 1
 269 667 l 2
 212 667 189 637 189 589 c 2
 189 530 l 1
 329 530 l 1
 329 487 l 1
 189 487 l 1
 189 0 l 1
 141 0 l 1
EndSplineSet
EndChar

StartChar: g
Encoding: 103 103 206
Width: 578
GlyphClass: 2
Flags: MW
HStem: -162 47<228.5 329.5 228.5 343.5> -7 21G<70 70> 26 47<219 312.5> 495 47<218.5 313 203 325> 510 20G<448 495 495 495>
VStem: 48 51<220 349 220 362> 70 51<-7 -3> 447 48<49 146 146 146 285 346.5> 448 47<417 530>
AnchorPoint: "Anchor-3" 275 530 basechar 0
AnchorPoint: "Anchor-0" 275 -150 basechar 0
LayerCount: 2
Fore
SplineSet
275 -162 m 0xed
 163 -162 80 -98 70 -7 c 1
 121 -3 l 1xf3
 129 -71 182 -115 275 -115 c 0
 384 -115 447 -57 447 49 c 2
 447 146 l 1
 417 74 354 26 271 26 c 0
 137 26 48 128 48 285 c 0
 48 439 136 542 270 542 c 0xf5
 356 542 421 490 448 417 c 1
 448 530 l 1xec80
 495 530 l 1
 495 49 l 2
 495 -83 412 -162 275 -162 c 0xed
272 73 m 0
 377 73 446 155 447 285 c 0
 447 408 378 495 272 495 c 0
 165 495 99 413 99 285 c 0xf5
 99 155 166 73 272 73 c 0
EndSplineSet
EndChar

StartChar: gbreve
Encoding: 287 287 207
Width: 578
GlyphClass: 2
Flags: MW
HStem: -162 47<228.5 329.5 228.5 343.5> -7 21G<70 70> 26 47<219 312.5> 495 47<218.5 313 203 325> 510 20G<448 495 495 495> 613 39<250 300 250 312>
VStem: 48 51<220 349 220 362> 70 51<-7 -3> 447 48<49 146 146 146 285 346.5> 448 47<417 530>
AnchorPoint: "Anchor-3" 275 530 basechar 0
AnchorPoint: "Anchor-0" 275 -150 basechar 0
LayerCount: 2
Fore
SplineSet
275 613 m 0xee80
 201 613 154 660 146 733 c 1
 182 733 l 1
 190 679 225 652 275 652 c 0
 325 652 360 679 367 733 c 1
 404 733 l 1
 396 660 349 613 275 613 c 0xee80
275 -162 m 0
 163 -162 80 -98 70 -7 c 1
 121 -3 l 1xf580
 129 -71 182 -115 275 -115 c 0
 384 -115 447 -57 447 49 c 2
 447 146 l 1
 417 74 354 26 271 26 c 0
 137 26 48 128 48 285 c 0
 48 439 136 542 270 542 c 0xf680
 356 542 421 490 448 417 c 1
 448 530 l 1xee40
 495 530 l 1
 495 49 l 2
 495 -83 412 -162 275 -162 c 0
272 73 m 0
 377 73 446 155 447 285 c 0
 447 408 378 495 272 495 c 0
 165 495 99 413 99 285 c 0xf680
 99 155 166 73 272 73 c 0
EndSplineSet
EndChar

StartChar: gcaron
Encoding: 487 487 208
Width: 578
GlyphClass: 2
Flags: MW
HStem: -162 47<228.5 329.5 228.5 343.5> -7 21G<70 70> 26 47<219 312.5> 495 47<218.5 313 203 325> 510 20G<448 495 495 495> 606 31<275 275 275 298 252 275> 606 127<163 298 163 252>
VStem: 48 51<220 349 220 362> 70 51<-7 -3> 447 48<49 146 146 146 285 346.5> 448 47<417 530>
AnchorPoint: "Anchor-3" 275 530 basechar 0
AnchorPoint: "Anchor-0" 275 -150 basechar 0
LayerCount: 2
Fore
SplineSet
163 733 m 1xf2c0
 205 733 l 1xeb40
 275 637 l 1xf4c0
 345 733 l 1
 387 733 l 1xf2c0
 298 606 l 1
 252 606 l 1xf540
 163 733 l 1xf2c0
275 -162 m 0
 163 -162 80 -98 70 -7 c 1
 121 -3 l 1xf0c0
 129 -71 182 -115 275 -115 c 0
 384 -115 447 -57 447 49 c 2
 447 146 l 1
 417 74 354 26 271 26 c 0
 137 26 48 128 48 285 c 0
 48 439 136 542 270 542 c 0xf140
 356 542 421 490 448 417 c 1
 448 530 l 1xe920
 495 530 l 1
 495 49 l 2
 495 -83 412 -162 275 -162 c 0
272 73 m 0
 377 73 446 155 447 285 c 0
 447 408 378 495 272 495 c 0
 165 495 99 413 99 285 c 0xf140
 99 155 166 73 272 73 c 0
EndSplineSet
EndChar

StartChar: gcircumflex
Encoding: 285 285 209
Width: 578
GlyphClass: 2
Flags: MW
HStem: -162 47<228.5 329.5 228.5 343.5> -7 21G<70 70> 26 47<219 312.5> 495 47<218.5 313 203 325> 510 20G<448 495 495 495> 606 127<164 299 164 299 253 345 253 387> 702 31<276 276>
VStem: 48 51<220 349 220 362> 70 51<-7 -3> 447 48<49 146 146 146 285 346.5> 448 47<417 530>
AnchorPoint: "Anchor-3" 275 530 basechar 0
AnchorPoint: "Anchor-0" 275 -150 basechar 0
LayerCount: 2
Fore
SplineSet
164 606 m 1xf4c0
 253 733 l 1
 299 733 l 1xeb40
 387 606 l 1
 345 606 l 1xf540
 276 702 l 1xf340
 206 606 l 1
 164 606 l 1xf4c0
275 -162 m 0
 163 -162 80 -98 70 -7 c 1
 121 -3 l 1xf0c0
 129 -71 182 -115 275 -115 c 0
 384 -115 447 -57 447 49 c 2
 447 146 l 1
 417 74 354 26 271 26 c 0
 137 26 48 128 48 285 c 0
 48 439 136 542 270 542 c 0xf140
 356 542 421 490 448 417 c 1
 448 530 l 1xe920
 495 530 l 1
 495 49 l 2
 495 -83 412 -162 275 -162 c 0
272 73 m 0
 377 73 446 155 447 285 c 0
 447 408 378 495 272 495 c 0
 165 495 99 413 99 285 c 0xf140
 99 155 166 73 272 73 c 0
EndSplineSet
EndChar

StartChar: uni0123
Encoding: 291 291 210
Width: 578
GlyphClass: 2
Flags: MW
HStem: -162 47<228.5 329.5 228.5 343.5> -7 21G<70 70> 26 47<219 312.5> 495 47<218.5 313 203 325> 510 20G<448 495 495 495> 613 62<240 307 279 307 279 307>
VStem: 48 51<220 349 220 362> 70 51<-7 -3> 240 67<613 669 669 669> 447 48<49 146 146 146 285 346.5> 448 47<417 530>
AnchorPoint: "Anchor-3" 275 530 basechar 0
AnchorPoint: "Anchor-0" 275 -150 basechar 0
LayerCount: 2
Fore
SplineSet
240 613 m 1xeec0
 240 669 l 1
 287 757 l 1
 321 757 l 1
 279 675 l 1
 307 675 l 1
 307 613 l 1
 240 613 l 1xeec0
275 -162 m 0
 163 -162 80 -98 70 -7 c 1
 121 -3 l 1xf5c0
 129 -71 182 -115 275 -115 c 0
 384 -115 447 -57 447 49 c 2
 447 146 l 1
 417 74 354 26 271 26 c 0
 137 26 48 128 48 285 c 0
 48 439 136 542 270 542 c 0xf6c0
 356 542 421 490 448 417 c 1
 448 530 l 1xeea0
 495 530 l 1
 495 49 l 2
 495 -83 412 -162 275 -162 c 0
272 73 m 0
 377 73 446 155 447 285 c 0
 447 408 378 495 272 495 c 0
 165 495 99 413 99 285 c 0xf6c0
 99 155 166 73 272 73 c 0
EndSplineSet
EndChar

StartChar: gdotaccent
Encoding: 289 289 211
Width: 578
GlyphClass: 2
Flags: MW
HStem: -162 47<228.5 329.5 228.5 343.5> -7 21G<70 70> 26 47<219 312.5> 495 47<218.5 313 203 325> 510 20G<448 495 495 495> 623 79<249 301 249 301>
VStem: 48 51<220 349 220 362> 70 51<-7 -3> 249 52<623 702 623 702> 447 48<49 146 146 146 285 346.5> 448 47<417 530>
AnchorPoint: "Anchor-3" 275 530 basechar 0
AnchorPoint: "Anchor-0" 275 -150 basechar 0
LayerCount: 2
Fore
SplineSet
249 623 m 1xeec0
 249 702 l 1
 301 702 l 1
 301 623 l 1
 249 623 l 1xeec0
275 -162 m 0
 163 -162 80 -98 70 -7 c 1
 121 -3 l 1xf5c0
 129 -71 182 -115 275 -115 c 0
 384 -115 447 -57 447 49 c 2
 447 146 l 1
 417 74 354 26 271 26 c 0
 137 26 48 128 48 285 c 0
 48 439 136 542 270 542 c 0xf6c0
 356 542 421 490 448 417 c 1
 448 530 l 1xeea0
 495 530 l 1
 495 49 l 2
 495 -83 412 -162 275 -162 c 0
272 73 m 0
 377 73 446 155 447 285 c 0
 447 408 378 495 272 495 c 0
 165 495 99 413 99 285 c 0xf6c0
 99 155 166 73 272 73 c 0
EndSplineSet
Substitution2: "'ss08' Style Set 8 in Latin lookup 41 subtable" gdotaccent.ss08
Substitution2: "'aalt' Access All Alternates in Latin lookup 0 subtable" gdotaccent.ss08
EndChar

StartChar: uni1E21
Encoding: 7713 7713 212
Width: 578
GlyphClass: 2
Flags: MW
HStem: -162 47<228.5 329.5 228.5 343.5> -7 21G<70 70> 26 47<219 312.5> 495 47<218.5 313 203 325> 510 20G<448 495 495 495> 638 42<148 402 148 402>
VStem: 48 51<220 349 220 362> 70 51<-7 -3> 447 48<49 146 146 146 285 346.5> 448 47<417 530>
AnchorPoint: "Anchor-3" 275 530 basechar 0
AnchorPoint: "Anchor-0" 275 -150 basechar 0
LayerCount: 2
Fore
SplineSet
148 638 m 1xee80
 148 680 l 1
 402 680 l 1
 402 638 l 1
 148 638 l 1xee80
275 -162 m 0
 163 -162 80 -98 70 -7 c 1
 121 -3 l 1xf580
 129 -71 182 -115 275 -115 c 0
 384 -115 447 -57 447 49 c 2
 447 146 l 1
 417 74 354 26 271 26 c 0
 137 26 48 128 48 285 c 0
 48 439 136 542 270 542 c 0xf680
 356 542 421 490 448 417 c 1
 448 530 l 1xee40
 495 530 l 1
 495 49 l 2
 495 -83 412 -162 275 -162 c 0
272 73 m 0
 377 73 446 155 447 285 c 0
 447 408 378 495 272 495 c 0
 165 495 99 413 99 285 c 0xf680
 99 155 166 73 272 73 c 0
EndSplineSet
EndChar

StartChar: uni01E5
Encoding: 485 485 213
Width: 607
GlyphClass: 2
Flags: MW
HStem: -162 47<228.5 329.5 228.5 343.5> -7 21G<70 70> 26 47<219 312.5> 259 42<234 446 234 446 495 564> 495 47<218.5 313 203 322.5> 510 20G<448 495 495 495>
VStem: 48 51<220 349 220 362> 70 51<-7 -3> 446 49<259 259 301 301> 447 48<49 146 146 146> 448 47<417 530>
AnchorPoint: "Anchor-3" 275 530 basechar 0
AnchorPoint: "Anchor-0" 275 -150 basechar 0
LayerCount: 2
Fore
SplineSet
275 -162 m 0xf640
 163 -162 80 -98 70 -7 c 1
 121 -3 l 1xf940
 129 -71 182 -115 275 -115 c 0
 384 -115 447 -57 447 49 c 2
 447 146 l 1
 417 74 354 26 271 26 c 0
 137 26 48 128 48 285 c 0
 48 439 136 542 270 542 c 0xfa40
 356 542 421 490 448 417 c 1
 448 530 l 1xf620
 495 530 l 1
 495 301 l 1
 564 301 l 1
 564 259 l 1
 495 259 l 1
 495 49 l 2
 495 -83 412 -162 275 -162 c 0xf640
272 73 m 0
 370 73 437 144 446 259 c 1
 234 259 l 1
 234 301 l 1
 446 301 l 1
 441 416 373 495 272 495 c 0
 165 495 99 413 99 285 c 0xfa80
 99 155 166 73 272 73 c 0
EndSplineSet
EndChar

StartChar: h
Encoding: 104 104 214
Width: 564
GlyphClass: 2
Flags: MW
HStem: 0 21G<83 83 83 131 433 433 433 481> 497 45<265 344> 690 20G<83 131 131 131>
VStem: 83 48<0 317 425 710> 433 48<0 317 317 341 0 372.5>
AnchorPoint: "Anchor-3" 107 690 basechar 0
AnchorPoint: "Anchor-1" 147 617 basechar 0
AnchorPoint: "Anchor-0" 282 0 basechar 0
LayerCount: 2
Fore
SplineSet
83 0 m 1
 83 710 l 1
 131 710 l 1
 131 425 l 1
 154 503 224 542 306 542 c 0
 423 542 481 455 481 341 c 2
 481 0 l 1
 433 0 l 1
 433 317 l 2
 433 428 393 497 295 497 c 0
 193 497 131 425 131 317 c 2
 131 0 l 1
 83 0 l 1
EndSplineSet
EndChar

StartChar: hbar
Encoding: 295 295 215
Width: 564
GlyphClass: 2
Flags: MW
HStem: 0 21G<83 83 83 131 433 433 433 481> 497 45<265 344> 597 40<10 83 10 83 131 283> 597 113<10 131 10 131 83 131 83 283>
VStem: 83 48<0 317 425 597 637 710> 433 48<0 317 317 341 0 372.5>
AnchorPoint: "Anchor-3" 107 690 basechar 0
AnchorPoint: "Anchor-1" 147 617 basechar 0
AnchorPoint: "Anchor-0" 282 0 basechar 0
LayerCount: 2
Fore
SplineSet
83 0 m 1xec
 83 597 l 1
 10 597 l 1
 10 637 l 1
 83 637 l 1xec
 83 710 l 1
 131 710 l 1xdc
 131 637 l 1
 283 637 l 1
 283 597 l 1
 131 597 l 1
 131 425 l 1
 154 503 224 542 306 542 c 0
 423 542 481 455 481 341 c 2
 481 0 l 1
 433 0 l 1
 433 317 l 2
 433 428 393 497 295 497 c 0
 193 497 131 425 131 317 c 2
 131 0 l 1
 83 0 l 1xec
EndSplineSet
EndChar

StartChar: hcircumflex
Encoding: 293 293 216
Width: 564
GlyphClass: 2
Flags: MW
HStem: 0 21G<83 83 83 131 433 433 433 481> 497 45<265 344> 690 20G<83 131 131 131> 766 127<-4 131 -4 131 85 178 85 220> 862 31<108 108>
VStem: 83 48<0 317 425 710> 433 48<0 317 317 341 0 372.5>
AnchorPoint: "Anchor-3" 107 690 basechar 0
AnchorPoint: "Anchor-1" 147 617 basechar 0
AnchorPoint: "Anchor-0" 282 0 basechar 0
LayerCount: 2
Fore
SplineSet
-4 766 m 1xf6
 85 893 l 1
 131 893 l 1xee
 220 766 l 1
 178 766 l 1xf6
 108 862 l 1xee
 38 766 l 1
 -4 766 l 1xf6
83 0 m 1
 83 710 l 1
 131 710 l 1
 131 425 l 1
 154 503 224 542 306 542 c 0
 423 542 481 455 481 341 c 2
 481 0 l 1
 433 0 l 1
 433 317 l 2
 433 428 393 497 295 497 c 0
 193 497 131 425 131 317 c 2
 131 0 l 1
 83 0 l 1
EndSplineSet
EndChar

StartChar: i
Encoding: 105 105 217
Width: 215
GlyphClass: 2
Flags: MW
HStem: 0 21G<83 83 83 131> 510 20G<83 131 131 131> 623 79<81 133 81 133>
VStem: 81 52<623 702 623 702> 83 48<0 530 0 530>
AnchorPoint: "Anchor-3" 107 530 basechar 0
AnchorPoint: "Anchor-2" 131 0 basechar 0
AnchorPoint: "Anchor-0" 107 0 basechar 0
LayerCount: 2
Fore
SplineSet
81 623 m 1xf0
 81 702 l 1
 133 702 l 1
 133 623 l 1
 81 623 l 1xf0
83 0 m 1xe8
 83 530 l 1
 131 530 l 1
 131 0 l 1
 83 0 l 1xe8
EndSplineSet
Substitution2: "'ss08' Style Set 8 in Latin lookup 41 subtable" i.ss08
Substitution2: "'locl' Localized Forms in Latin lookup 9 subtable" i.loclTRK
Substitution2: "Single Substitution lookup 3 subtable" dotlessi
AlternateSubs2: "'aalt' Access All Alternates in Latin lookup 1 subtable" i.loclTRK i.ss08
EndChar

StartChar: dotlessi
Encoding: 305 305 218
Width: 215
GlyphClass: 2
Flags: MW
HStem: 0 21G<83 83 83 131> 510 20G<83 131 131 131>
VStem: 83 48<0 530 0 530>
AnchorPoint: "Anchor-3" 107 530 basechar 0
AnchorPoint: "Anchor-2" 131 0 basechar 0
AnchorPoint: "Anchor-0" 107 0 basechar 0
LayerCount: 2
Fore
SplineSet
83 0 m 1
 83 530 l 1
 131 530 l 1
 131 0 l 1
 83 0 l 1
EndSplineSet
EndChar

StartChar: iacute
Encoding: 237 237 219
Width: 215
GlyphClass: 2
Flags: MW
HStem: 0 21G<83 83 83 131> 510 20G<83 131 131 131> 606 120<86 210 86 210>
VStem: 83 48<0 530 0 530>
AnchorPoint: "Anchor-3" 107 530 basechar 0
AnchorPoint: "Anchor-2" 131 0 basechar 0
AnchorPoint: "Anchor-0" 107 0 basechar 0
LayerCount: 2
Fore
SplineSet
86 606 m 1
 156 726 l 1
 210 726 l 1
 126 606 l 1
 86 606 l 1
83 0 m 1
 83 530 l 1
 131 530 l 1
 131 0 l 1
 83 0 l 1
EndSplineSet
EndChar

StartChar: icircumflex
Encoding: 238 238 220
Width: 215
GlyphClass: 2
Flags: MW
HStem: 0 21G<83 83 83 131> 510 20G<83 131 131 131> 606 127<-4 131 -4 131 85 178 85 220> 702 31<108 108>
VStem: 83 48<0 530 0 530>
AnchorPoint: "Anchor-3" 107 530 basechar 0
AnchorPoint: "Anchor-2" 131 0 basechar 0
AnchorPoint: "Anchor-0" 107 0 basechar 0
LayerCount: 2
Fore
SplineSet
-4 606 m 1xe8
 85 733 l 1
 131 733 l 1xd8
 220 606 l 1
 178 606 l 1xe8
 108 702 l 1xd8
 38 606 l 1
 -4 606 l 1xe8
83 0 m 1
 83 530 l 1
 131 530 l 1
 131 0 l 1
 83 0 l 1
EndSplineSet
EndChar

StartChar: idieresis
Encoding: 239 239 221
Width: 215
GlyphClass: 2
Flags: MW
HStem: 0 21G<83 83 83 131> 510 20G<83 131 131 131> 623 79<10 62 10 62 153 205>
VStem: 10 52<623 702 623 702> 83 48<0 530 0 530> 153 52<623 702 623 702>
AnchorPoint: "Anchor-3" 107 530 basechar 0
AnchorPoint: "Anchor-2" 131 0 basechar 0
AnchorPoint: "Anchor-0" 107 0 basechar 0
LayerCount: 2
Fore
SplineSet
10 623 m 1
 10 702 l 1
 62 702 l 1
 62 623 l 1
 10 623 l 1
153 623 m 1
 153 702 l 1
 205 702 l 1
 205 623 l 1
 153 623 l 1
83 0 m 1xe8
 83 530 l 1
 131 530 l 1
 131 0 l 1
 83 0 l 1xe8
EndSplineSet
Substitution2: "'ss08' Style Set 8 in Latin lookup 41 subtable" idieresis.ss08
Substitution2: "'aalt' Access All Alternates in Latin lookup 0 subtable" idieresis.ss08
EndChar

StartChar: i.loclTRK
Encoding: 65576 -1 222
Width: 215
GlyphClass: 2
Flags: MW
HStem: 0 21G<83 83 83 131> 510 20G<83 131 131 131> 623 79<81 133 81 133>
VStem: 81 52<623 702 623 702> 83 48<0 530 0 530>
AnchorPoint: "Anchor-3" 107 530 basechar 0
AnchorPoint: "Anchor-2" 131 0 basechar 0
AnchorPoint: "Anchor-0" 107 0 basechar 0
LayerCount: 2
Fore
SplineSet
81 623 m 1xf0
 81 702 l 1
 133 702 l 1
 133 623 l 1
 81 623 l 1xf0
83 0 m 1xe8
 83 530 l 1
 131 530 l 1
 131 0 l 1
 83 0 l 1xe8
EndSplineSet
Substitution2: "'ss08' Style Set 8 in Latin lookup 41 subtable" i.loclTRK.ss08
Substitution2: "'aalt' Access All Alternates in Latin lookup 0 subtable" i.loclTRK.ss08
EndChar

StartChar: igrave
Encoding: 236 236 223
Width: 215
GlyphClass: 2
Flags: MW
HStem: 0 21G<83 83 83 131> 510 20G<83 131 131 131> 613 120<5 88 5 129>
VStem: 83 48<0 530 0 530>
AnchorPoint: "Anchor-3" 107 530 basechar 0
AnchorPoint: "Anchor-2" 131 0 basechar 0
AnchorPoint: "Anchor-0" 107 0 basechar 0
LayerCount: 2
Fore
SplineSet
88 613 m 1
 5 733 l 1
 59 733 l 1
 129 613 l 1
 88 613 l 1
83 0 m 1
 83 530 l 1
 131 530 l 1
 131 0 l 1
 83 0 l 1
EndSplineSet
EndChar

StartChar: imacron
Encoding: 299 299 224
Width: 215
GlyphClass: 2
Flags: MW
HStem: 0 21G<83 83 83 131> 510 20G<83 131 131 131> 638 42<-20 235 -20 235>
VStem: 83 48<0 530 0 530>
AnchorPoint: "Anchor-3" 107 530 basechar 0
AnchorPoint: "Anchor-2" 131 0 basechar 0
AnchorPoint: "Anchor-0" 107 0 basechar 0
LayerCount: 2
Fore
SplineSet
-20 638 m 1
 -20 680 l 1
 235 680 l 1
 235 638 l 1
 -20 638 l 1
83 0 m 1
 83 530 l 1
 131 530 l 1
 131 0 l 1
 83 0 l 1
EndSplineSet
EndChar

StartChar: iogonek
Encoding: 303 303 225
Width: 215
GlyphClass: 2
Flags: MW
HStem: -198 40<95.5 115.5 95.5 115.5> 0 21G<83 83 83 92 131 131> 510 20G<83 131 131 131> 623 79<81 133 81 133>
VStem: 23 46<-137.5 -118> 81 52<623 702 623 702> 83 48<0 530 0 530>
AnchorPoint: "Anchor-3" 107 530 basechar 0
AnchorPoint: "Anchor-2" 131 0 basechar 0
AnchorPoint: "Anchor-0" 107 0 basechar 0
LayerCount: 2
Fore
SplineSet
81 623 m 1xf4
 81 702 l 1
 133 702 l 1
 133 623 l 1
 81 623 l 1xf4
83 0 m 1xf2
 83 530 l 1
 131 530 l 1
 131 0 l 1xf2
 102 -43 l 2
 81 -74 69 -99 69 -125 c 0
 69 -150 85 -158 106 -158 c 0
 125 -158 142 -152 154 -143 c 1
 172 -177 l 1
 155 -190 130 -198 101 -198 c 0
 57 -198 23 -179 23 -135 c 0xf8
 23 -101 48 -63 74 -25 c 2
 92 0 l 1
 83 0 l 1xf2
EndSplineSet
Substitution2: "'ss08' Style Set 8 in Latin lookup 41 subtable" iogonek.ss08
Substitution2: "'aalt' Access All Alternates in Latin lookup 0 subtable" iogonek.ss08
EndChar

StartChar: itilde
Encoding: 297 297 226
Width: 215
GlyphClass: 2
Flags: MW
HStem: 0 21G<83 83 83 131> 510 20G<83 131 131 131> 623 35<157 178 157 187.5> 681 35<30 55.5> 705 20G<208 243 243 243>
VStem: -38 35<618 618> 83 48<0 530 0 530> 208 35<725 725>
AnchorPoint: "Anchor-3" 107 530 basechar 0
AnchorPoint: "Anchor-2" 131 0 basechar 0
AnchorPoint: "Anchor-0" 107 0 basechar 0
LayerCount: 2
Fore
SplineSet
164 623 m 0xef
 136 623 118 634 98 654 c 0
 79 672 67 681 44 681 c 0
 16 681 -1 663 -3 618 c 1
 -38 618 l 1
 -35 681 -2 716 44 716 c 0xd7
 76 716 97 702 118 682 c 0
 137 664 149 658 165 658 c 0
 191 658 204 675 208 725 c 1
 243 725 l 1
 239 661 211 623 164 623 c 0xef
83 0 m 1
 83 530 l 1
 131 530 l 1
 131 0 l 1
 83 0 l 1
EndSplineSet
EndChar

StartChar: ij
Encoding: 307 307 227
Width: 446
GlyphClass: 2
Flags: MW
HStem: -150 43<201 233 201 233 233 240> 0 21G<83 83 83 131> 510 20G<83 131 131 131 315 363 363 363> 623 79<81 133 81 133 313 365>
VStem: 81 52<623 702 623 702> 83 48<0 530 0 530> 201 162<-150 -26 -107 -26> 313 52<623 702 623 702> 315 48<-22 530>
AnchorPoint: "Anchor-3" 339 530 basechar 0
AnchorPoint: "Anchor-2" 131 0 basechar 0
AnchorPoint: "Anchor-0" 326 -150 basechar 0
LayerCount: 2
Fore
SplineSet
81 623 m 1xf9
 81 702 l 1
 133 702 l 1
 133 623 l 1
 81 623 l 1xf9
313 623 m 1
 313 702 l 1
 365 702 l 1
 365 623 l 1
 313 623 l 1
83 0 m 1xf6
 83 530 l 1
 131 530 l 1
 131 0 l 1
 83 0 l 1xf6
201 -150 m 1
 201 -107 l 1xf6
 233 -107 l 2
 292 -107 315 -89 315 -22 c 2
 315 530 l 1
 363 530 l 1
 363 -26 l 2xf480
 363 -117 325 -150 240 -150 c 2
 201 -150 l 1
EndSplineSet
Substitution2: "'ss08' Style Set 8 in Latin lookup 41 subtable" ij.ss08
Substitution2: "'aalt' Access All Alternates in Latin lookup 0 subtable" ij.ss08
EndChar

StartChar: j
Encoding: 106 106 228
Width: 240
GlyphClass: 2
Flags: MW
HStem: -150 43<-5 27 -5 27 27 34> 510 20G<109 157 157 157> 623 79<107 159 107 159>
VStem: -5 162<-150 -26 -107 -26> 107 52<623 702 623 702> 109 48<-22 530>
AnchorPoint: "Anchor-3" 133 530 basechar 0
AnchorPoint: "Anchor-0" 120 -150 basechar 0
LayerCount: 2
Fore
SplineSet
107 623 m 1xe8
 107 702 l 1
 159 702 l 1
 159 623 l 1
 107 623 l 1xe8
-5 -150 m 1xf0
 -5 -107 l 1xf0
 27 -107 l 2
 86 -107 109 -89 109 -22 c 2
 109 530 l 1
 157 530 l 1
 157 -26 l 2xe4
 157 -117 119 -150 34 -150 c 2
 -5 -150 l 1xf0
EndSplineSet
Substitution2: "'ss08' Style Set 8 in Latin lookup 41 subtable" j.ss08
Substitution2: "Single Substitution lookup 16 subtable" uni006A0301
Substitution2: "Single Substitution lookup 3 subtable" uni0237
AlternateSubs2: "'aalt' Access All Alternates in Latin lookup 1 subtable" uni006A0301 j.ss08
EndChar

StartChar: uni0237
Encoding: 567 567 229
Width: 240
GlyphClass: 2
Flags: MW
HStem: -150 43<-5 27 -5 27 27 34> 510 20G<109 157 157 157>
VStem: -5 162<-150 -26 -107 -26> 109 48<-22 530>
AnchorPoint: "Anchor-3" 133 530 basechar 0
AnchorPoint: "Anchor-0" 120 -150 basechar 0
LayerCount: 2
Fore
SplineSet
-5 -150 m 1xe0
 -5 -107 l 1xe0
 27 -107 l 2
 86 -107 109 -89 109 -22 c 2
 109 530 l 1
 157 530 l 1
 157 -26 l 2xd0
 157 -117 119 -150 34 -150 c 2
 -5 -150 l 1xe0
EndSplineSet
EndChar

StartChar: uni006A0301
Encoding: 65577 -1 230
Width: 240
GlyphClass: 2
Flags: MW
HStem: -150 43<-5 27 -5 27 27 34> 510 20G<109 157 157 157> 606 120<111 235 111 235>
VStem: -5 162<-150 -26 -107 -26> 109 48<-22 530>
AnchorPoint: "Anchor-3" 133 530 basechar 0
AnchorPoint: "Anchor-0" 120 -150 basechar 0
LayerCount: 2
Fore
SplineSet
111 606 m 1xf0
 181 726 l 1
 235 726 l 1
 152 606 l 1
 111 606 l 1xf0
-5 -150 m 1
 -5 -107 l 1xf0
 27 -107 l 2
 86 -107 109 -89 109 -22 c 2
 109 530 l 1
 157 530 l 1
 157 -26 l 2xe8
 157 -117 119 -150 34 -150 c 2
 -5 -150 l 1
EndSplineSet
EndChar

StartChar: jcircumflex
Encoding: 309 309 231
Width: 240
GlyphClass: 2
Flags: MW
HStem: -150 43<-5 27 -5 27 27 34> 510 20G<109 157 157 157> 606 127<22 156 22 156 110 203 110 245> 702 31<133 133>
VStem: -5 162<-150 -26 -107 -26> 109 48<-22 530>
AnchorPoint: "Anchor-3" 133 530 basechar 0
AnchorPoint: "Anchor-0" 120 -150 basechar 0
LayerCount: 2
Fore
SplineSet
22 606 m 1xe8
 110 733 l 1
 156 733 l 1xd8
 245 606 l 1
 203 606 l 1xe8
 133 702 l 1xd8
 64 606 l 1
 22 606 l 1xe8
-5 -150 m 1
 -5 -107 l 1xd8
 27 -107 l 2
 86 -107 109 -89 109 -22 c 2
 109 530 l 1
 157 530 l 1
 157 -26 l 2xd4
 157 -117 119 -150 34 -150 c 2
 -5 -150 l 1
EndSplineSet
EndChar

StartChar: k
Encoding: 107 107 232
Width: 577
GlyphClass: 2
Flags: MW
HStem: 0 21G<83 83 83 131 470 470 470 528> 510 20G<448 512 512 512> 690 20G<83 131 131 131>
VStem: 83 48<0 150 211 710>
AnchorPoint: "Anchor-3" 107 670 basechar 0
AnchorPoint: "Anchor-0" 298 0 basechar 0
LayerCount: 2
Fore
SplineSet
83 0 m 1
 83 710 l 1
 131 710 l 1
 131 211 l 1
 448 530 l 1
 512 530 l 1
 286 303 l 1
 528 0 l 1
 470 0 l 1
 253 272 l 1
 131 150 l 1
 131 0 l 1
 83 0 l 1
EndSplineSet
EndChar

StartChar: uni01E9
Encoding: 489 489 233
Width: 577
GlyphClass: 2
Flags: MW
HStem: 0 21G<83 83 83 131 470 470 470 528> 510 20G<448 512 512 512> 690 20G<83 131 131 131> 746 31<107 107 107 130 84 107> 746 127<-4 130 -4 84>
VStem: 83 48<0 150 211 710>
AnchorPoint: "Anchor-3" 107 670 basechar 0
AnchorPoint: "Anchor-0" 298 0 basechar 0
LayerCount: 2
Fore
SplineSet
-4 873 m 1xec
 38 873 l 1xec
 107 777 l 1xf4
 177 873 l 1
 219 873 l 1xec
 130 746 l 1
 84 746 l 1xf4
 -4 873 l 1xec
83 0 m 1
 83 710 l 1
 131 710 l 1
 131 211 l 1
 448 530 l 1
 512 530 l 1
 286 303 l 1
 528 0 l 1
 470 0 l 1
 253 272 l 1
 131 150 l 1
 131 0 l 1
 83 0 l 1
EndSplineSet
EndChar

StartChar: uni0137
Encoding: 311 311 234
Width: 577
GlyphClass: 2
Flags: MW
HStem: -110 62<264 292 264 331> 0 21G<83 83 83 131 470 470 470 528> 510 20G<448 512 512 512> 690 20G<83 131 131 131>
VStem: 83 48<0 150 211 710> 264 67<-104 -48 -104 -48 -104 -48>
AnchorPoint: "Anchor-3" 107 670 basechar 0
AnchorPoint: "Anchor-0" 298 -193 basechar 0
LayerCount: 2
Fore
SplineSet
83 0 m 1
 83 710 l 1
 131 710 l 1
 131 211 l 1
 448 530 l 1
 512 530 l 1
 286 303 l 1
 528 0 l 1
 470 0 l 1
 253 272 l 1
 131 150 l 1
 131 0 l 1
 83 0 l 1
250 -193 m 1
 292 -110 l 1
 264 -110 l 1
 264 -48 l 1
 331 -48 l 1
 331 -104 l 1
 284 -193 l 1
 250 -193 l 1
EndSplineSet
EndChar

StartChar: l
Encoding: 108 108 235
Width: 247
GlyphClass: 2
Flags: MW
HStem: 0 43<144.5 216 180 216 180 216> 690 20G<83 131 131 131>
VStem: 83 48<87 89 89 710>
AnchorPoint: "Anchor-4" 175 530 basechar 0
AnchorPoint: "Anchor-3" 107 670 basechar 0
AnchorPoint: "Anchor-1" 122 367 basechar 0
AnchorPoint: "Anchor-0" 151 0 basechar 0
LayerCount: 2
Fore
SplineSet
173 0 m 2
 116 0 83 28 83 87 c 2
 83 710 l 1
 131 710 l 1
 131 89 l 2
 131 59 147 43 180 43 c 2
 216 43 l 1
 216 0 l 1
 173 0 l 2
EndSplineSet
Substitution2: "'ss03' Style Set 3 in Latin lookup 36 subtable" l.ss03
Substitution2: "'aalt' Access All Alternates in Latin lookup 0 subtable" l.ss03
EndChar

StartChar: lacute
Encoding: 314 314 236
Width: 247
GlyphClass: 2
Flags: MW
HStem: 0 43<144.5 216 180 216 180 216> 690 20G<83 131 131 131> 746 120<86 210 86 210>
VStem: 83 48<87 89 89 710>
AnchorPoint: "Anchor-4" 175 530 basechar 0
AnchorPoint: "Anchor-3" 107 670 basechar 0
AnchorPoint: "Anchor-1" 122 367 basechar 0
AnchorPoint: "Anchor-0" 151 0 basechar 0
LayerCount: 2
Fore
SplineSet
86 746 m 1
 156 866 l 1
 210 866 l 1
 126 746 l 1
 86 746 l 1
173 0 m 2
 116 0 83 28 83 87 c 2
 83 710 l 1
 131 710 l 1
 131 89 l 2
 131 59 147 43 180 43 c 2
 216 43 l 1
 216 0 l 1
 173 0 l 2
EndSplineSet
Substitution2: "'ss03' Style Set 3 in Latin lookup 36 subtable" lacute.ss03
Substitution2: "'aalt' Access All Alternates in Latin lookup 0 subtable" lacute.ss03
EndChar

StartChar: lcaron
Encoding: 318 318 237
Width: 273
GlyphClass: 2
Flags: MW
HStem: 0 43<144.5 216 180 216 180 216> 690 20G<83 131 131 131 231 280 280 280>
VStem: 83 48<87 89 89 710>
AnchorPoint: "Anchor-4" 175 530 basechar 0
AnchorPoint: "Anchor-3" 107 670 basechar 0
AnchorPoint: "Anchor-1" 122 367 basechar 0
AnchorPoint: "Anchor-0" 151 0 basechar 0
LayerCount: 2
Fore
SplineSet
173 0 m 2
 116 0 83 28 83 87 c 2
 83 710 l 1
 131 710 l 1
 131 89 l 2
 131 59 147 43 180 43 c 2
 216 43 l 1
 216 0 l 1
 173 0 l 2
198 486 m 1
 231 710 l 1
 280 710 l 1
 236 486 l 1
 198 486 l 1
EndSplineSet
Substitution2: "'ss03' Style Set 3 in Latin lookup 36 subtable" lcaron.ss03
Substitution2: "'aalt' Access All Alternates in Latin lookup 0 subtable" lcaron.ss03
EndChar

StartChar: uni013C
Encoding: 316 316 238
Width: 247
GlyphClass: 2
Flags: MW
HStem: -110 62<118 146 118 184> 0 43<144.5 216 180 216 180 216> 690 20G<83 131 131 131>
VStem: 83 48<87 89 89 710> 118 66<-104 -48 -104 -48 -104 -48>
AnchorPoint: "Anchor-4" 175 530 basechar 0
AnchorPoint: "Anchor-3" 107 670 basechar 0
AnchorPoint: "Anchor-1" 122 367 basechar 0
AnchorPoint: "Anchor-0" 151 -193 basechar 0
LayerCount: 2
Fore
SplineSet
173 0 m 2xf0
 116 0 83 28 83 87 c 2
 83 710 l 1
 131 710 l 1
 131 89 l 2
 131 59 147 43 180 43 c 2
 216 43 l 1
 216 0 l 1
 173 0 l 2xf0
103 -193 m 1
 146 -110 l 1
 118 -110 l 1
 118 -48 l 1
 184 -48 l 1
 184 -104 l 1xe8
 137 -193 l 1
 103 -193 l 1
EndSplineSet
Substitution2: "'ss03' Style Set 3 in Latin lookup 36 subtable" uni013C.ss03
Substitution2: "'locl' Localized Forms in Latin lookup 11 subtable" uni013C.loclMAH
AlternateSubs2: "'aalt' Access All Alternates in Latin lookup 1 subtable" uni013C.loclMAH uni013C.ss03
EndChar

StartChar: lslash
Encoding: 322 322 239
Width: 247
GlyphClass: 2
Flags: MW
HStem: 0 43<144.5 216 180 216 180 216> 690 20G<83 131 131 131>
VStem: 83 48<87 89 89 325 325 325 393 710>
AnchorPoint: "Anchor-4" 175 530 basechar 0
AnchorPoint: "Anchor-3" 107 670 basechar 0
AnchorPoint: "Anchor-1" 122 367 basechar 0
AnchorPoint: "Anchor-0" 151 0 basechar 0
LayerCount: 2
Fore
SplineSet
173 0 m 2
 116 0 83 28 83 87 c 2
 83 325 l 1
 17 287 l 1
 17 327 l 1
 83 365 l 1
 83 710 l 1
 131 710 l 1
 131 393 l 1
 227 447 l 1
 227 407 l 1
 131 352 l 1
 131 89 l 2
 131 59 147 43 180 43 c 2
 216 43 l 1
 216 0 l 1
 173 0 l 2
EndSplineSet
Substitution2: "'ss03' Style Set 3 in Latin lookup 36 subtable" lslash.ss03
Substitution2: "'aalt' Access All Alternates in Latin lookup 0 subtable" lslash.ss03
EndChar

StartChar: m
Encoding: 109 109 240
Width: 856
GlyphClass: 2
Flags: MW
HStem: 0 21G<83 83 83 131 402 402 402 450 725 725 725 773> 497 45<254 321.5 568.5 639> 510 20G<83 128 128 128>
VStem: 83 46 83 48<0 317 0 530> 402 48<0 311 0 317 0 372.5> 725 48<0 317 317 339 0 373.5>
AnchorPoint: "Anchor-3" 426 530 basechar 0
AnchorPoint: "Anchor-0" 426 0 basechar 0
LayerCount: 2
Fore
SplineSet
83 0 m 1xce
 83 530 l 1xae
 128 530 l 1xb6
 130 423 l 1xd6
 151 493 215 542 293 542 c 0
 366 542 421 492 441 410 c 1
 463 492 528 542 609 542 c 0
 709 542 773 462 773 339 c 2
 773 0 l 1
 725 0 l 1
 725 317 l 2
 725 430 678 497 600 497 c 0
 514 497 450 419 450 311 c 2
 450 0 l 1
 402 0 l 1
 402 317 l 2
 402 428 361 497 282 497 c 0
 196 497 131 421 131 317 c 2
 131 0 l 1
 83 0 l 1xce
EndSplineSet
EndChar

StartChar: n
Encoding: 110 110 241
Width: 564
GlyphClass: 2
Flags: MW
HStem: 0 21G<83 83 83 131 433 433 433 481> 497 45<264 345> 510 20G<83 128 128 128>
VStem: 83 45.5 83 48<0 317 0 530> 433 48<0 317 317 341 0 371.5>
AnchorPoint: "Anchor-3" 282 530 basechar 0
AnchorPoint: "Anchor-0" 282 0 basechar 0
LayerCount: 2
Fore
SplineSet
83 0 m 1xcc
 83 530 l 1xac
 128 530 l 1xb4
 129 420 l 1xd4
 153 501 223 542 305 542 c 0
 425 542 481 453 481 341 c 2
 481 0 l 1
 433 0 l 1
 433 317 l 2
 433 426 395 497 295 497 c 0
 194 497 131 426 131 317 c 2
 131 0 l 1
 83 0 l 1xcc
EndSplineSet
EndChar

StartChar: nacute
Encoding: 324 324 242
Width: 564
GlyphClass: 2
Flags: MW
HStem: 0 21G<83 83 83 131 433 433 433 481> 497 45<264 345> 510 20G<83 128 128 128> 606 120<261 385 261 385>
VStem: 83 45.5 83 48<0 317 0 530> 433 48<0 317 317 341 0 371.5>
AnchorPoint: "Anchor-3" 282 530 basechar 0
AnchorPoint: "Anchor-0" 282 0 basechar 0
LayerCount: 2
Fore
SplineSet
261 606 m 1xd6
 331 726 l 1
 385 726 l 1
 301 606 l 1
 261 606 l 1xd6
83 0 m 1
 83 530 l 1xb6
 128 530 l 1xba
 129 420 l 1xda
 153 501 223 542 305 542 c 0
 425 542 481 453 481 341 c 2
 481 0 l 1
 433 0 l 1
 433 317 l 2
 433 426 395 497 295 497 c 0
 194 497 131 426 131 317 c 2
 131 0 l 1
 83 0 l 1
EndSplineSet
EndChar

StartChar: ncaron
Encoding: 328 328 243
Width: 564
GlyphClass: 2
Flags: MW
HStem: 0 21G<83 83 83 131 433 433 433 481> 497 45<264 345> 510 20G<83 128 128 128> 606 31<282 282 282 305 259 282> 606 127<171 305 171 259>
VStem: 83 45.5 83 48<0 317 0 530> 433 48<0 317 317 341 0 371.5>
AnchorPoint: "Anchor-3" 282 530 basechar 0
AnchorPoint: "Anchor-0" 282 0 basechar 0
LayerCount: 2
Fore
SplineSet
171 733 m 1xcb
 213 733 l 1xcb
 282 637 l 1xd3
 352 733 l 1
 394 733 l 1xcb
 305 606 l 1
 259 606 l 1xd3
 171 733 l 1xcb
83 0 m 1
 83 530 l 1xb3
 128 530 l 1xb5
 129 420 l 1xd5
 153 501 223 542 305 542 c 0
 425 542 481 453 481 341 c 2
 481 0 l 1
 433 0 l 1
 433 317 l 2
 433 426 395 497 295 497 c 0
 194 497 131 426 131 317 c 2
 131 0 l 1
 83 0 l 1
EndSplineSet
EndChar

StartChar: uni0146
Encoding: 326 326 244
Width: 564
GlyphClass: 2
Flags: MW
HStem: -110 62<249 277 249 316> 0 21G<83 83 83 131 433 433 433 481> 497 45<264 345> 510 20G<83 128 128 128>
VStem: 83 45.5 83 48<0 317 0 530> 249 67<-104 -48 -104 -48 -104 -48> 433 48<0 317 317 341 0 371.5>
AnchorPoint: "Anchor-3" 282 530 basechar 0
AnchorPoint: "Anchor-0" 282 -193 basechar 0
LayerCount: 2
Fore
SplineSet
83 0 m 1xe7
 83 530 l 1xd7
 128 530 l 1xdb
 129 420 l 1xeb
 153 501 223 542 305 542 c 0
 425 542 481 453 481 341 c 2
 481 0 l 1
 433 0 l 1
 433 317 l 2
 433 426 395 497 295 497 c 0
 194 497 131 426 131 317 c 2
 131 0 l 1
 83 0 l 1xe7
235 -193 m 1
 277 -110 l 1
 249 -110 l 1
 249 -48 l 1
 316 -48 l 1
 316 -104 l 1
 269 -193 l 1
 235 -193 l 1
EndSplineSet
Substitution2: "'locl' Localized Forms in Latin lookup 11 subtable" uni0146.loclMAH
Substitution2: "'aalt' Access All Alternates in Latin lookup 0 subtable" uni0146.loclMAH
EndChar

StartChar: ntilde
Encoding: 241 241 245
Width: 564
GlyphClass: 2
Flags: MW
HStem: 0 21G<83 83 83 131 433 433 433 481> 497 45<264 345> 510 20G<83 128 128 128> 623 35<332 353 332 362.5> 681 35<205 230.5> 705 20G<383 418 418 418>
VStem: 83 45.5 83 48<0 317 0 530> 137 35<618 618> 383 35<725 725> 433 48<0 317 317 341 0 371.5>
AnchorPoint: "Anchor-3" 282 530 basechar 0
AnchorPoint: "Anchor-0" 282 0 basechar 0
LayerCount: 2
Fore
SplineSet
339 623 m 0xd540
 311 623 293 634 273 654 c 0
 254 672 242 681 219 681 c 0
 191 681 174 663 172 618 c 1
 137 618 l 1
 140 681 173 716 219 716 c 0xc8a0
 251 716 272 702 293 682 c 0
 312 664 324 658 340 658 c 0
 366 658 379 675 383 725 c 1
 418 725 l 1
 414 661 386 623 339 623 c 0xd540
83 0 m 1xc920
 83 530 l 1xa920
 128 530 l 1xaa20
 129 420 l 1xca20
 153 501 223 542 305 542 c 0
 425 542 481 453 481 341 c 2
 481 0 l 1
 433 0 l 1
 433 317 l 2
 433 426 395 497 295 497 c 0
 194 497 131 426 131 317 c 2
 131 0 l 1
 83 0 l 1xc920
EndSplineSet
EndChar

StartChar: eng
Encoding: 331 331 246
Width: 564
GlyphClass: 2
Flags: MW
HStem: -150 43<271 348 271 350> 0 21G<83 83 83 131> 497 45<264 345> 510 20G<83 128 128 128>
VStem: 83 45.5 83 48<0 317 0 530> 433 48<-23 -22 -22 317 317 341>
AnchorPoint: "Anchor-3" 282 530 basechar 0
AnchorPoint: "Anchor-0" 282 0 basechar 0
LayerCount: 2
Fore
SplineSet
83 0 m 1xe6
 83 530 l 1xd6
 128 530 l 1xda
 129 420 l 1xea
 153 501 223 542 305 542 c 0
 425 542 481 453 481 341 c 2
 481 -22 l 2
 481 -98 428 -150 348 -150 c 2
 271 -150 l 1
 271 -107 l 1
 350 -107 l 2
 399 -107 433 -72 433 -23 c 2
 433 317 l 2
 433 426 395 497 295 497 c 0
 194 497 131 426 131 317 c 2
 131 0 l 1
 83 0 l 1xe6
EndSplineSet
EndChar

StartChar: o
Encoding: 111 111 247
Width: 558
GlyphClass: 2
Flags: MW
HStem: -12 47<223 335 223 349.5> 495 47<223 335>
VStem: 48 51<194 336 194 350> 459 51<194 336>
AnchorPoint: "Anchor-3" 279 530 basechar 0
AnchorPoint: "Anchor-1" 279 265 basechar 0
AnchorPoint: "Anchor-0" 279 0 basechar 0
LayerCount: 2
Fore
SplineSet
279 -12 m 0
 138 -12 48 95 48 265 c 0
 48 435 138 542 279 542 c 0
 420 542 510 435 510 265 c 0
 510 95 420 -12 279 -12 c 0
279 35 m 0
 391 35 459 123 459 265 c 0
 459 407 391 495 279 495 c 0
 167 495 99 407 99 265 c 0
 99 123 167 35 279 35 c 0
EndSplineSet
Substitution2: "Single Substitution lookup 27 subtable" ordmasculine
Substitution2: "'aalt' Access All Alternates in Latin lookup 0 subtable" ordmasculine
EndChar

StartChar: oacute
Encoding: 243 243 248
Width: 558
GlyphClass: 2
Flags: MW
HStem: -12 47<223 335 223 349.5> 495 47<223 335> 606 120<257 381 257 381>
VStem: 48 51<194 336 194 350> 459 51<194 336>
AnchorPoint: "Anchor-3" 279 530 basechar 0
AnchorPoint: "Anchor-1" 279 265 basechar 0
AnchorPoint: "Anchor-0" 279 0 basechar 0
LayerCount: 2
Fore
SplineSet
257 606 m 1
 327 726 l 1
 381 726 l 1
 298 606 l 1
 257 606 l 1
279 -12 m 0
 138 -12 48 95 48 265 c 0
 48 435 138 542 279 542 c 0
 420 542 510 435 510 265 c 0
 510 95 420 -12 279 -12 c 0
279 35 m 0
 391 35 459 123 459 265 c 0
 459 407 391 495 279 495 c 0
 167 495 99 407 99 265 c 0
 99 123 167 35 279 35 c 0
EndSplineSet
EndChar

StartChar: ocircumflex
Encoding: 244 244 249
Width: 558
GlyphClass: 2
Flags: MW
HStem: -12 47<223 335 223 349.5> 495 47<223 335> 606 127<168 303 168 303 257 349 257 391> 702 31<280 280>
VStem: 48 51<194 336 194 350> 459 51<194 336>
AnchorPoint: "Anchor-3" 279 530 basechar 0
AnchorPoint: "Anchor-1" 279 265 basechar 0
AnchorPoint: "Anchor-0" 279 0 basechar 0
LayerCount: 2
Fore
SplineSet
168 606 m 1xec
 257 733 l 1
 303 733 l 1xdc
 391 606 l 1
 349 606 l 1xec
 280 702 l 1xdc
 210 606 l 1
 168 606 l 1xec
279 -12 m 0
 138 -12 48 95 48 265 c 0
 48 435 138 542 279 542 c 0
 420 542 510 435 510 265 c 0
 510 95 420 -12 279 -12 c 0
279 35 m 0
 391 35 459 123 459 265 c 0
 459 407 391 495 279 495 c 0
 167 495 99 407 99 265 c 0
 99 123 167 35 279 35 c 0
EndSplineSet
EndChar

StartChar: odieresis
Encoding: 246 246 250
Width: 558
GlyphClass: 2
Flags: MW
HStem: -12 47<223 335 223 349.5> 495 47<223 335> 623 79<181 233 181 233 325 377>
VStem: 48 51<194 336 194 350> 181 52<623 702 623 702> 325 52<623 702 623 702> 459 51<194 336>
AnchorPoint: "Anchor-3" 279 530 basechar 0
AnchorPoint: "Anchor-1" 279 265 basechar 0
AnchorPoint: "Anchor-0" 279 0 basechar 0
LayerCount: 2
Fore
SplineSet
181 623 m 1
 181 702 l 1
 233 702 l 1
 233 623 l 1
 181 623 l 1
325 623 m 1
 325 702 l 1
 377 702 l 1
 377 623 l 1
 325 623 l 1
279 -12 m 0
 138 -12 48 95 48 265 c 0
 48 435 138 542 279 542 c 0
 420 542 510 435 510 265 c 0
 510 95 420 -12 279 -12 c 0
279 35 m 0
 391 35 459 123 459 265 c 0
 459 407 391 495 279 495 c 0
 167 495 99 407 99 265 c 0
 99 123 167 35 279 35 c 0
EndSplineSet
Substitution2: "'ss08' Style Set 8 in Latin lookup 41 subtable" odieresis.ss08
Substitution2: "'aalt' Access All Alternates in Latin lookup 0 subtable" odieresis.ss08
EndChar

StartChar: ograve
Encoding: 242 242 251
Width: 558
GlyphClass: 2
Flags: MW
HStem: -12 47<223 335 223 349.5> 495 47<223 335> 613 120<177 260 177 301>
VStem: 48 51<194 336 194 350> 459 51<194 336>
AnchorPoint: "Anchor-3" 279 530 basechar 0
AnchorPoint: "Anchor-1" 279 265 basechar 0
AnchorPoint: "Anchor-0" 279 0 basechar 0
LayerCount: 2
Fore
SplineSet
260 613 m 1
 177 733 l 1
 231 733 l 1
 301 613 l 1
 260 613 l 1
279 -12 m 0
 138 -12 48 95 48 265 c 0
 48 435 138 542 279 542 c 0
 420 542 510 435 510 265 c 0
 510 95 420 -12 279 -12 c 0
279 35 m 0
 391 35 459 123 459 265 c 0
 459 407 391 495 279 495 c 0
 167 495 99 407 99 265 c 0
 99 123 167 35 279 35 c 0
EndSplineSet
EndChar

StartChar: ohungarumlaut
Encoding: 337 337 252
Width: 558
GlyphClass: 2
Flags: MW
HStem: -12 47<223 335 223 349.5> 495 47<223 335> 606 120<204 328 204 328 311 328 274 351 311 311>
VStem: 48 51<194 336 194 350> 459 51<194 336>
AnchorPoint: "Anchor-3" 279 530 basechar 0
AnchorPoint: "Anchor-1" 279 265 basechar 0
AnchorPoint: "Anchor-0" 279 0 basechar 0
LayerCount: 2
Fore
SplineSet
204 606 m 1
 274 726 l 1
 328 726 l 1
 245 606 l 1
 204 606 l 1
311 606 m 1
 381 726 l 1
 435 726 l 1
 351 606 l 1
 311 606 l 1
279 -12 m 0
 138 -12 48 95 48 265 c 0
 48 435 138 542 279 542 c 0
 420 542 510 435 510 265 c 0
 510 95 420 -12 279 -12 c 0
279 35 m 0
 391 35 459 123 459 265 c 0
 459 407 391 495 279 495 c 0
 167 495 99 407 99 265 c 0
 99 123 167 35 279 35 c 0
EndSplineSet
EndChar

StartChar: omacron
Encoding: 333 333 253
Width: 558
GlyphClass: 2
Flags: MW
HStem: -12 47<223 335 223 349.5> 495 47<223 335> 638 42<152 406 152 406>
VStem: 48 51<194 336 194 350> 459 51<194 336>
AnchorPoint: "Anchor-3" 279 530 basechar 0
AnchorPoint: "Anchor-1" 279 265 basechar 0
AnchorPoint: "Anchor-0" 279 0 basechar 0
LayerCount: 2
Fore
SplineSet
152 638 m 1
 152 680 l 1
 406 680 l 1
 406 638 l 1
 152 638 l 1
279 -12 m 0
 138 -12 48 95 48 265 c 0
 48 435 138 542 279 542 c 0
 420 542 510 435 510 265 c 0
 510 95 420 -12 279 -12 c 0
279 35 m 0
 391 35 459 123 459 265 c 0
 459 407 391 495 279 495 c 0
 167 495 99 407 99 265 c 0
 99 123 167 35 279 35 c 0
EndSplineSet
EndChar

StartChar: oslash
Encoding: 248 248 254
Width: 558
GlyphClass: 2
Flags: MW
HStem: -12 47<258 335 258 349.5> 495 47<223 300>
VStem: 48 51<229.5 336 229.5 350> 459 51<194 300.5>
AnchorPoint: "Anchor-3" 279 530 basechar 0
AnchorPoint: "Anchor-1" 279 265 basechar 0
AnchorPoint: "Anchor-0" 279 0 basechar 0
LayerCount: 2
Fore
SplineSet
74 -14 m 1
 119 54 l 1
 74 102 48 175 48 265 c 0
 48 435 138 542 279 542 c 0
 331 542 376 527 412 500 c 1
 441 544 l 1
 484 544 l 1
 439 476 l 1
 484 428 510 355 510 265 c 0
 510 95 420 -12 279 -12 c 0
 227 -12 182 3 145 30 c 1
 117 -14 l 1
 74 -14 l 1
99 265 m 0
 99 194 116 136 147 97 c 1
 385 460 l 1
 357 483 321 495 279 495 c 0
 167 495 99 407 99 265 c 0
279 35 m 0
 391 35 459 123 459 265 c 0
 459 336 442 394 411 433 c 1
 172 70 l 1
 201 47 237 35 279 35 c 0
EndSplineSet
EndChar

StartChar: otilde
Encoding: 245 245 255
Width: 558
GlyphClass: 2
Flags: MW
HStem: -12 47<223 335 223 349.5> 495 47<223 335> 623 35<329 349.5 329 358.5> 681 35<202 227.5> 705 20G<380 415 415 415>
VStem: 48 51<194 336 194 350> 134 34<618 618> 380 35<725 725> 459 51<194 336>
AnchorPoint: "Anchor-3" 279 530 basechar 0
AnchorPoint: "Anchor-1" 279 265 basechar 0
AnchorPoint: "Anchor-0" 279 0 basechar 0
LayerCount: 2
Fore
SplineSet
335 623 m 0xef80
 308 623 289 634 269 654 c 0
 251 672 239 681 216 681 c 0
 188 681 170 663 168 618 c 1
 134 618 l 1
 137 681 170 716 216 716 c 0xd780
 248 716 268 702 289 682 c 0
 308 664 321 658 337 658 c 0
 362 658 376 675 380 725 c 1
 415 725 l 1
 411 661 382 623 335 623 c 0xef80
279 -12 m 0
 138 -12 48 95 48 265 c 0
 48 435 138 542 279 542 c 0
 420 542 510 435 510 265 c 0
 510 95 420 -12 279 -12 c 0
279 35 m 0
 391 35 459 123 459 265 c 0
 459 407 391 495 279 495 c 0
 167 495 99 407 99 265 c 0
 99 123 167 35 279 35 c 0
EndSplineSet
EndChar

StartChar: oe
Encoding: 339 339 256
Width: 966
GlyphClass: 2
Flags: MW
HStem: -12 47<223 328 643.5 737.5> 253 43<511 865 511 918 511 865> 495 47<223 328 208.5 335 640.5 744>
VStem: 48 51<194 336 194 350> 459 52<253 253 253 296 253 336> 865 53<253 296>
AnchorPoint: "Anchor-3" 484 530 basechar 0
AnchorPoint: "Anchor-2" 834 34 basechar 0
AnchorPoint: "Anchor-1" 279 265 basechar 0
AnchorPoint: "Anchor-0" 484 0 basechar 0
LayerCount: 2
Fore
SplineSet
279 -12 m 0
 138 -12 48 95 48 265 c 0
 48 435 138 542 279 542 c 0
 377 542 450 490 485 402 c 1
 520 487 590 542 691 542 c 0
 838 542 918 425 918 269 c 2
 918 253 l 1
 511 253 l 1
 514 115 585 35 695 35 c 0
 780 35 835 80 856 149 c 1
 908 145 l 1
 881 54 804 -12 695 -12 c 0
 592 -12 521 44 486 128 c 1
 450 40 377 -12 279 -12 c 0
279 35 m 0
 391 35 459 123 459 265 c 0
 459 407 391 495 279 495 c 0
 167 495 99 407 99 265 c 0
 99 123 167 35 279 35 c 0
511 296 m 1
 865 296 l 1
 860 421 797 495 691 495 c 0
 589 495 520 422 511 296 c 1
EndSplineSet
EndChar

StartChar: p
Encoding: 112 112 257
Width: 578
GlyphClass: 2
Flags: MW
HStem: -150 21G<83 83 83 131> -12 47<269.5 361 256 381> 495 47<267.5 360> 510 20G<83 127 127 127>
VStem: 83 44.5 83 48<-150 111 196.5 333.5> 480 50<193.5 336.5>
AnchorPoint: "Anchor-3" 290 530 basechar 0
AnchorPoint: "Anchor-0" 290 0 basechar 0
LayerCount: 2
Fore
SplineSet
83 -150 m 1xe6
 83 530 l 1xd6
 127 530 l 1xda
 128 411 l 1xea
 160 495 226 542 309 542 c 0
 451 542 530 427 530 265 c 0
 530 103 451 -12 311 -12 c 0
 228 -12 158 43 131 111 c 1
 131 -150 l 1
 83 -150 l 1xe6
308 35 m 0
 414 35 480 122 480 265 c 0
 480 408 413 495 307 495 c 0xe6
 203 495 131 402 131 265 c 0
 131 128 204 35 308 35 c 0
EndSplineSet
EndChar

